<?xml version="1.0" encoding="utf-8" standalone="no"?>
<!DOCTYPE svg PUBLIC "-//W3C//DTD SVG 1.1//EN"
  "http://www.w3.org/Graphics/SVG/1.1/DTD/svg11.dtd">
<svg xmlns:xlink="http://www.w3.org/1999/xlink" width="1152pt" height="720pt" viewBox="0 0 1152 720" xmlns="http://www.w3.org/2000/svg" version="1.1">
 <metadata>
  <rdf:RDF xmlns:dc="http://purl.org/dc/elements/1.1/" xmlns:cc="http://creativecommons.org/ns#" xmlns:rdf="http://www.w3.org/1999/02/22-rdf-syntax-ns#">
   <cc:Work>
    <dc:type rdf:resource="http://purl.org/dc/dcmitype/StillImage"/>
    <dc:date>2023-12-04T19:23:34.300214</dc:date>
    <dc:format>image/svg+xml</dc:format>
    <dc:creator>
     <cc:Agent>
      <dc:title>Matplotlib v3.8.2, https://matplotlib.org/</dc:title>
     </cc:Agent>
    </dc:creator>
   </cc:Work>
  </rdf:RDF>
 </metadata>
 <defs>
  <style type="text/css">*{stroke-linejoin: round; stroke-linecap: butt}</style>
 </defs>
 <g id="figure_1">
  <g id="patch_1">
   <path d="M 0 720 
L 1152 720 
L 1152 0 
L 0 0 
z
" style="fill: #ffffff"/>
  </g>
  <g id="axes_1">
   <g id="patch_2">
    <path d="M 36.012685 692.12 
L 1131.705 692.12 
L 1131.705 16.416 
L 36.012685 16.416 
z
" style="fill: #ffffff"/>
   </g>
   <g id="PathCollection_1">
    <defs>
     <path id="mae21902376" d="M 0 3 
C 0.795609 3 1.55874 2.683901 2.12132 2.12132 
C 2.683901 1.55874 3 0.795609 3 0 
C 3 -0.795609 2.683901 -1.55874 2.12132 -2.12132 
C 1.55874 -2.683901 0.795609 -3 0 -3 
C -0.795609 -3 -1.55874 -2.683901 -2.12132 -2.12132 
C -2.683901 -1.55874 -3 -0.795609 -3 0 
C -3 0.795609 -2.683901 1.55874 -2.12132 2.12132 
C -1.55874 2.683901 -0.795609 3 0 3 
z
" style="stroke: #ff0000"/>
    </defs>
    <g clip-path="url(#pa033727558)">
     <use xlink:href="#mae21902376" x="454.910391" y="229.342764" style="fill: #ff0000; stroke: #ff0000"/>
    </g>
   </g>
   <g id="PathCollection_2">
    <g clip-path="url(#pa033727558)">
     <use xlink:href="#mae21902376" x="810.586095" y="420.531689" style="fill: #ff0000; stroke: #ff0000"/>
    </g>
   </g>
   <g id="PathCollection_3">
    <g clip-path="url(#pa033727558)">
     <use xlink:href="#mae21902376" x="922.758175" y="221.816639" style="fill: #ff0000; stroke: #ff0000"/>
    </g>
   </g>
   <g id="PathCollection_4">
    <g clip-path="url(#pa033727558)">
     <use xlink:href="#mae21902376" x="454.910391" y="405.07243" style="fill: #ff0000; stroke: #ff0000"/>
    </g>
   </g>
   <g id="matplotlib.axis_1">
    <g id="xtick_1">
     <g id="line2d_1">
      <defs>
       <path id="mdef72e8ee2" d="M 0 0 
L 0 3.5 
" style="stroke: #000000; stroke-width: 0.8"/>
      </defs>
      <g>
       <use xlink:href="#mdef72e8ee2" x="36.012685" y="692.12" style="stroke: #000000; stroke-width: 0.8"/>
      </g>
     </g>
     <g id="text_1">
      <!-- 100 -->
      <g transform="translate(26.468935 706.718438) scale(0.1 -0.1)">
       <defs>
        <path id="DejaVuSans-31" d="M 794 531 
L 1825 531 
L 1825 4091 
L 703 3866 
L 703 4441 
L 1819 4666 
L 2450 4666 
L 2450 531 
L 3481 531 
L 3481 0 
L 794 0 
L 794 531 
z
" transform="scale(0.015625)"/>
        <path id="DejaVuSans-30" d="M 2034 4250 
Q 1547 4250 1301 3770 
Q 1056 3291 1056 2328 
Q 1056 1369 1301 889 
Q 1547 409 2034 409 
Q 2525 409 2770 889 
Q 3016 1369 3016 2328 
Q 3016 3291 2770 3770 
Q 2525 4250 2034 4250 
z
M 2034 4750 
Q 2819 4750 3233 4129 
Q 3647 3509 3647 2328 
Q 3647 1150 3233 529 
Q 2819 -91 2034 -91 
Q 1250 -91 836 529 
Q 422 1150 422 2328 
Q 422 3509 836 4129 
Q 1250 4750 2034 4750 
z
" transform="scale(0.015625)"/>
       </defs>
       <use xlink:href="#DejaVuSans-31"/>
       <use xlink:href="#DejaVuSans-30" x="63.623047"/>
       <use xlink:href="#DejaVuSans-30" x="127.246094"/>
      </g>
     </g>
    </g>
    <g id="xtick_2">
     <g id="line2d_2">
      <g>
       <use xlink:href="#mdef72e8ee2" x="192.540158" y="692.12" style="stroke: #000000; stroke-width: 0.8"/>
      </g>
     </g>
     <g id="text_2">
      <!-- 200 -->
      <g transform="translate(182.996408 706.718438) scale(0.1 -0.1)">
       <defs>
        <path id="DejaVuSans-32" d="M 1228 531 
L 3431 531 
L 3431 0 
L 469 0 
L 469 531 
Q 828 903 1448 1529 
Q 2069 2156 2228 2338 
Q 2531 2678 2651 2914 
Q 2772 3150 2772 3378 
Q 2772 3750 2511 3984 
Q 2250 4219 1831 4219 
Q 1534 4219 1204 4116 
Q 875 4013 500 3803 
L 500 4441 
Q 881 4594 1212 4672 
Q 1544 4750 1819 4750 
Q 2544 4750 2975 4387 
Q 3406 4025 3406 3419 
Q 3406 3131 3298 2873 
Q 3191 2616 2906 2266 
Q 2828 2175 2409 1742 
Q 1991 1309 1228 531 
z
" transform="scale(0.015625)"/>
       </defs>
       <use xlink:href="#DejaVuSans-32"/>
       <use xlink:href="#DejaVuSans-30" x="63.623047"/>
       <use xlink:href="#DejaVuSans-30" x="127.246094"/>
      </g>
     </g>
    </g>
    <g id="xtick_3">
     <g id="line2d_3">
      <g>
       <use xlink:href="#mdef72e8ee2" x="349.067632" y="692.12" style="stroke: #000000; stroke-width: 0.8"/>
      </g>
     </g>
     <g id="text_3">
      <!-- 300 -->
      <g transform="translate(339.523882 706.718438) scale(0.1 -0.1)">
       <defs>
        <path id="DejaVuSans-33" d="M 2597 2516 
Q 3050 2419 3304 2112 
Q 3559 1806 3559 1356 
Q 3559 666 3084 287 
Q 2609 -91 1734 -91 
Q 1441 -91 1130 -33 
Q 819 25 488 141 
L 488 750 
Q 750 597 1062 519 
Q 1375 441 1716 441 
Q 2309 441 2620 675 
Q 2931 909 2931 1356 
Q 2931 1769 2642 2001 
Q 2353 2234 1838 2234 
L 1294 2234 
L 1294 2753 
L 1863 2753 
Q 2328 2753 2575 2939 
Q 2822 3125 2822 3475 
Q 2822 3834 2567 4026 
Q 2313 4219 1838 4219 
Q 1578 4219 1281 4162 
Q 984 4106 628 3988 
L 628 4550 
Q 988 4650 1302 4700 
Q 1616 4750 1894 4750 
Q 2613 4750 3031 4423 
Q 3450 4097 3450 3541 
Q 3450 3153 3228 2886 
Q 3006 2619 2597 2516 
z
" transform="scale(0.015625)"/>
       </defs>
       <use xlink:href="#DejaVuSans-33"/>
       <use xlink:href="#DejaVuSans-30" x="63.623047"/>
       <use xlink:href="#DejaVuSans-30" x="127.246094"/>
      </g>
     </g>
    </g>
    <g id="xtick_4">
     <g id="line2d_4">
      <g>
       <use xlink:href="#mdef72e8ee2" x="505.595106" y="692.12" style="stroke: #000000; stroke-width: 0.8"/>
      </g>
     </g>
     <g id="text_4">
      <!-- 400 -->
      <g transform="translate(496.051356 706.718438) scale(0.1 -0.1)">
       <defs>
        <path id="DejaVuSans-34" d="M 2419 4116 
L 825 1625 
L 2419 1625 
L 2419 4116 
z
M 2253 4666 
L 3047 4666 
L 3047 1625 
L 3713 1625 
L 3713 1100 
L 3047 1100 
L 3047 0 
L 2419 0 
L 2419 1100 
L 313 1100 
L 313 1709 
L 2253 4666 
z
" transform="scale(0.015625)"/>
       </defs>
       <use xlink:href="#DejaVuSans-34"/>
       <use xlink:href="#DejaVuSans-30" x="63.623047"/>
       <use xlink:href="#DejaVuSans-30" x="127.246094"/>
      </g>
     </g>
    </g>
    <g id="xtick_5">
     <g id="line2d_5">
      <g>
       <use xlink:href="#mdef72e8ee2" x="662.122579" y="692.12" style="stroke: #000000; stroke-width: 0.8"/>
      </g>
     </g>
     <g id="text_5">
      <!-- 500 -->
      <g transform="translate(652.578829 706.718438) scale(0.1 -0.1)">
       <defs>
        <path id="DejaVuSans-35" d="M 691 4666 
L 3169 4666 
L 3169 4134 
L 1269 4134 
L 1269 2991 
Q 1406 3038 1543 3061 
Q 1681 3084 1819 3084 
Q 2600 3084 3056 2656 
Q 3513 2228 3513 1497 
Q 3513 744 3044 326 
Q 2575 -91 1722 -91 
Q 1428 -91 1123 -41 
Q 819 9 494 109 
L 494 744 
Q 775 591 1075 516 
Q 1375 441 1709 441 
Q 2250 441 2565 725 
Q 2881 1009 2881 1497 
Q 2881 1984 2565 2268 
Q 2250 2553 1709 2553 
Q 1456 2553 1204 2497 
Q 953 2441 691 2322 
L 691 4666 
z
" transform="scale(0.015625)"/>
       </defs>
       <use xlink:href="#DejaVuSans-35"/>
       <use xlink:href="#DejaVuSans-30" x="63.623047"/>
       <use xlink:href="#DejaVuSans-30" x="127.246094"/>
      </g>
     </g>
    </g>
    <g id="xtick_6">
     <g id="line2d_6">
      <g>
       <use xlink:href="#mdef72e8ee2" x="818.650053" y="692.12" style="stroke: #000000; stroke-width: 0.8"/>
      </g>
     </g>
     <g id="text_6">
      <!-- 600 -->
      <g transform="translate(809.106303 706.718438) scale(0.1 -0.1)">
       <defs>
        <path id="DejaVuSans-36" d="M 2113 2584 
Q 1688 2584 1439 2293 
Q 1191 2003 1191 1497 
Q 1191 994 1439 701 
Q 1688 409 2113 409 
Q 2538 409 2786 701 
Q 3034 994 3034 1497 
Q 3034 2003 2786 2293 
Q 2538 2584 2113 2584 
z
M 3366 4563 
L 3366 3988 
Q 3128 4100 2886 4159 
Q 2644 4219 2406 4219 
Q 1781 4219 1451 3797 
Q 1122 3375 1075 2522 
Q 1259 2794 1537 2939 
Q 1816 3084 2150 3084 
Q 2853 3084 3261 2657 
Q 3669 2231 3669 1497 
Q 3669 778 3244 343 
Q 2819 -91 2113 -91 
Q 1303 -91 875 529 
Q 447 1150 447 2328 
Q 447 3434 972 4092 
Q 1497 4750 2381 4750 
Q 2619 4750 2861 4703 
Q 3103 4656 3366 4563 
z
" transform="scale(0.015625)"/>
       </defs>
       <use xlink:href="#DejaVuSans-36"/>
       <use xlink:href="#DejaVuSans-30" x="63.623047"/>
       <use xlink:href="#DejaVuSans-30" x="127.246094"/>
      </g>
     </g>
    </g>
    <g id="xtick_7">
     <g id="line2d_7">
      <g>
       <use xlink:href="#mdef72e8ee2" x="975.177526" y="692.12" style="stroke: #000000; stroke-width: 0.8"/>
      </g>
     </g>
     <g id="text_7">
      <!-- 700 -->
      <g transform="translate(965.633776 706.718438) scale(0.1 -0.1)">
       <defs>
        <path id="DejaVuSans-37" d="M 525 4666 
L 3525 4666 
L 3525 4397 
L 1831 0 
L 1172 0 
L 2766 4134 
L 525 4134 
L 525 4666 
z
" transform="scale(0.015625)"/>
       </defs>
       <use xlink:href="#DejaVuSans-37"/>
       <use xlink:href="#DejaVuSans-30" x="63.623047"/>
       <use xlink:href="#DejaVuSans-30" x="127.246094"/>
      </g>
     </g>
    </g>
    <g id="xtick_8">
     <g id="line2d_8">
      <g>
       <use xlink:href="#mdef72e8ee2" x="1131.705" y="692.12" style="stroke: #000000; stroke-width: 0.8"/>
      </g>
     </g>
     <g id="text_8">
      <!-- 800 -->
      <g transform="translate(1122.16125 706.718438) scale(0.1 -0.1)">
       <defs>
        <path id="DejaVuSans-38" d="M 2034 2216 
Q 1584 2216 1326 1975 
Q 1069 1734 1069 1313 
Q 1069 891 1326 650 
Q 1584 409 2034 409 
Q 2484 409 2743 651 
Q 3003 894 3003 1313 
Q 3003 1734 2745 1975 
Q 2488 2216 2034 2216 
z
M 1403 2484 
Q 997 2584 770 2862 
Q 544 3141 544 3541 
Q 544 4100 942 4425 
Q 1341 4750 2034 4750 
Q 2731 4750 3128 4425 
Q 3525 4100 3525 3541 
Q 3525 3141 3298 2862 
Q 3072 2584 2669 2484 
Q 3125 2378 3379 2068 
Q 3634 1759 3634 1313 
Q 3634 634 3220 271 
Q 2806 -91 2034 -91 
Q 1263 -91 848 271 
Q 434 634 434 1313 
Q 434 1759 690 2068 
Q 947 2378 1403 2484 
z
M 1172 3481 
Q 1172 3119 1398 2916 
Q 1625 2713 2034 2713 
Q 2441 2713 2670 2916 
Q 2900 3119 2900 3481 
Q 2900 3844 2670 4047 
Q 2441 4250 2034 4250 
Q 1625 4250 1398 4047 
Q 1172 3844 1172 3481 
z
" transform="scale(0.015625)"/>
       </defs>
       <use xlink:href="#DejaVuSans-38"/>
       <use xlink:href="#DejaVuSans-30" x="63.623047"/>
       <use xlink:href="#DejaVuSans-30" x="127.246094"/>
      </g>
     </g>
    </g>
   </g>
   <g id="matplotlib.axis_2">
    <g id="ytick_1">
     <g id="line2d_9">
      <defs>
       <path id="m337d41ad13" d="M 0 0 
L -3.5 0 
" style="stroke: #000000; stroke-width: 0.8"/>
      </defs>
      <g>
       <use xlink:href="#m337d41ad13" x="36.012685" y="692.12" style="stroke: #000000; stroke-width: 0.8"/>
      </g>
     </g>
     <g id="text_9">
      <!-- $\mathdefault{10^{0}}$ -->
      <g transform="translate(11.412685 695.919219) scale(0.1 -0.1)">
       <use xlink:href="#DejaVuSans-31" transform="translate(0 0.765625)"/>
       <use xlink:href="#DejaVuSans-30" transform="translate(63.623047 0.765625)"/>
       <use xlink:href="#DejaVuSans-30" transform="translate(128.203125 39.046875) scale(0.7)"/>
      </g>
     </g>
    </g>
    <g id="ytick_2">
     <g id="line2d_10">
      <g>
       <use xlink:href="#m337d41ad13" x="36.012685" y="354.268" style="stroke: #000000; stroke-width: 0.8"/>
      </g>
     </g>
     <g id="text_10">
      <!-- $\mathdefault{10^{1}}$ -->
      <g transform="translate(11.412685 358.067219) scale(0.1 -0.1)">
       <use xlink:href="#DejaVuSans-31" transform="translate(0 0.684375)"/>
       <use xlink:href="#DejaVuSans-30" transform="translate(63.623047 0.684375)"/>
       <use xlink:href="#DejaVuSans-31" transform="translate(128.203125 38.965625) scale(0.7)"/>
      </g>
     </g>
    </g>
    <g id="ytick_3">
     <g id="line2d_11">
      <g>
       <use xlink:href="#m337d41ad13" x="36.012685" y="16.416" style="stroke: #000000; stroke-width: 0.8"/>
      </g>
     </g>
     <g id="text_11">
      <!-- $\mathdefault{10^{2}}$ -->
      <g transform="translate(11.412685 20.215219) scale(0.1 -0.1)">
       <use xlink:href="#DejaVuSans-31" transform="translate(0 0.765625)"/>
       <use xlink:href="#DejaVuSans-30" transform="translate(63.623047 0.765625)"/>
       <use xlink:href="#DejaVuSans-32" transform="translate(128.203125 39.046875) scale(0.7)"/>
      </g>
     </g>
    </g>
    <g id="ytick_4">
     <g id="line2d_12">
      <defs>
       <path id="m895e51d9ce" d="M 0 0 
L -2 0 
" style="stroke: #000000; stroke-width: 0.6"/>
      </defs>
      <g>
       <use xlink:href="#m895e51d9ce" x="36.012685" y="590.416414" style="stroke: #000000; stroke-width: 0.6"/>
      </g>
     </g>
    </g>
    <g id="ytick_5">
     <g id="line2d_13">
      <g>
       <use xlink:href="#m895e51d9ce" x="36.012685" y="530.92363" style="stroke: #000000; stroke-width: 0.6"/>
      </g>
     </g>
    </g>
    <g id="ytick_6">
     <g id="line2d_14">
      <g>
       <use xlink:href="#m895e51d9ce" x="36.012685" y="488.712828" style="stroke: #000000; stroke-width: 0.6"/>
      </g>
     </g>
    </g>
    <g id="ytick_7">
     <g id="line2d_15">
      <g>
       <use xlink:href="#m895e51d9ce" x="36.012685" y="455.971586" style="stroke: #000000; stroke-width: 0.6"/>
      </g>
     </g>
    </g>
    <g id="ytick_8">
     <g id="line2d_16">
      <g>
       <use xlink:href="#m895e51d9ce" x="36.012685" y="429.220044" style="stroke: #000000; stroke-width: 0.6"/>
      </g>
     </g>
    </g>
    <g id="ytick_9">
     <g id="line2d_17">
      <g>
       <use xlink:href="#m895e51d9ce" x="36.012685" y="406.601937" style="stroke: #000000; stroke-width: 0.6"/>
      </g>
     </g>
    </g>
    <g id="ytick_10">
     <g id="line2d_18">
      <g>
       <use xlink:href="#m895e51d9ce" x="36.012685" y="387.009242" style="stroke: #000000; stroke-width: 0.6"/>
      </g>
     </g>
    </g>
    <g id="ytick_11">
     <g id="line2d_19">
      <g>
       <use xlink:href="#m895e51d9ce" x="36.012685" y="369.72726" style="stroke: #000000; stroke-width: 0.6"/>
      </g>
     </g>
    </g>
    <g id="ytick_12">
     <g id="line2d_20">
      <g>
       <use xlink:href="#m895e51d9ce" x="36.012685" y="252.564414" style="stroke: #000000; stroke-width: 0.6"/>
      </g>
     </g>
    </g>
    <g id="ytick_13">
     <g id="line2d_21">
      <g>
       <use xlink:href="#m895e51d9ce" x="36.012685" y="193.07163" style="stroke: #000000; stroke-width: 0.6"/>
      </g>
     </g>
    </g>
    <g id="ytick_14">
     <g id="line2d_22">
      <g>
       <use xlink:href="#m895e51d9ce" x="36.012685" y="150.860828" style="stroke: #000000; stroke-width: 0.6"/>
      </g>
     </g>
    </g>
    <g id="ytick_15">
     <g id="line2d_23">
      <g>
       <use xlink:href="#m895e51d9ce" x="36.012685" y="118.119586" style="stroke: #000000; stroke-width: 0.6"/>
      </g>
     </g>
    </g>
    <g id="ytick_16">
     <g id="line2d_24">
      <g>
       <use xlink:href="#m895e51d9ce" x="36.012685" y="91.368044" style="stroke: #000000; stroke-width: 0.6"/>
      </g>
     </g>
    </g>
    <g id="ytick_17">
     <g id="line2d_25">
      <g>
       <use xlink:href="#m895e51d9ce" x="36.012685" y="68.749937" style="stroke: #000000; stroke-width: 0.6"/>
      </g>
     </g>
    </g>
    <g id="ytick_18">
     <g id="line2d_26">
      <g>
       <use xlink:href="#m895e51d9ce" x="36.012685" y="49.157242" style="stroke: #000000; stroke-width: 0.6"/>
      </g>
     </g>
    </g>
    <g id="ytick_19">
     <g id="line2d_27">
      <g>
       <use xlink:href="#m895e51d9ce" x="36.012685" y="31.87526" style="stroke: #000000; stroke-width: 0.6"/>
      </g>
     </g>
    </g>
   </g>
   <g id="line2d_28">
    <path d="M 33.611657 696.4671 
L 53.004054 661.680318 
L 73.708278 626.893535 
L 95.866587 592.106753 
L 119.641094 557.31997 
L 145.216969 522.533188 
L 172.806171 487.746405 
L 202.651794 452.959622 
L 235.033062 418.17284 
L 270.271037 383.386057 
L 275.098613 348.599275 
L 277.27055 313.812492 
L 280.025391 279.02571 
L 283.520224 244.238927 
L 287.954891 209.452144 
L 293.583911 174.665362 
L 295.16137 166.241591 
L 296.832816 157.817819 
L 298.603904 149.394048 
L 300.480634 140.970277 
L 302.469378 132.546505 
L 304.5769 124.122734 
L 306.810383 115.698963 
L 309.177459 107.275191 
L 311.686234 98.85142 
L 314.345322 90.427649 
L 317.163879 82.003877 
L 320.151641 73.580106 
L 323.318958 65.156335 
L 326.676844 56.732563 
L 330.237015 48.308792 
L 334.011946 39.885021 
L 338.014918 31.461249 
L 342.260081 23.037478 
L 346.76251 14.613707 
" clip-path="url(#pa033727558)" style="fill: none; stroke-dasharray: 0.5,0.825; stroke-dashoffset: 0; stroke: #363636; stroke-width: 0.5"/>
   </g>
   <g id="line2d_29">
    <path d="M 38.281755 696.4671 
L 58.753059 661.680318 
L 80.781389 626.893535 
L 104.563999 592.106753 
L 130.330335 557.31997 
L 158.348096 522.533188 
L 188.930596 487.746405 
L 222.445739 452.959622 
L 259.327063 418.17284 
L 300.087559 383.386057 
L 345.337521 348.599275 
L 395.808922 313.812492 
L 452.392131 279.02571 
L 516.201297 244.238927 
L 588.715977 209.452144 
L 672.251788 174.665362 
L 694.623914 166.241591 
L 718.125649 157.817819 
L 743.205917 149.394048 
L 770.498645 140.970277 
L 786.450848 132.546505 
L 802.575553 124.122734 
L 819.205358 115.698963 
L 836.555732 107.275191 
L 854.769406 98.85142 
L 873.958233 90.427649 
L 894.22662 82.003877 
L 915.681095 73.580106 
L 938.433488 65.156335 
L 962.602104 56.732563 
L 988.312554 48.308792 
L 1015.698711 39.885021 
L 1044.903844 31.461249 
L 1076.081951 23.037478 
L 1109.399254 14.613707 
" clip-path="url(#pa033727558)" style="fill: none; stroke-dasharray: 0.5,0.825; stroke-dashoffset: 0; stroke: #363636; stroke-width: 0.5"/>
   </g>
   <g id="line2d_30">
    <path d="M 46.06525 696.4671 
L 68.334734 661.680318 
L 92.569907 626.893535 
L 119.059687 592.106753 
L 148.145736 557.31997 
L 180.233307 522.533188 
L 215.804636 487.746405 
L 255.435647 452.959622 
L 299.817065 418.17284 
L 349.781762 383.386057 
L 406.341501 348.599275 
L 470.739342 313.812492 
L 544.532097 279.02571 
L 629.74272 244.238927 
L 729.182771 209.452144 
L 847.473568 174.665362 
L 856.753897 172.209958 
L 873.942558 166.241591 
L 899.741719 157.817819 
L 927.489141 149.394048 
L 957.38671 140.970277 
L 989.643166 132.546505 
L 1024.48057 124.122734 
L 1062.141249 115.698963 
L 1102.890591 107.275191 
L 1147.019118 98.85142 
" clip-path="url(#pa033727558)" style="fill: none; stroke-dasharray: 0.5,0.825; stroke-dashoffset: 0; stroke: #363636; stroke-width: 0.5"/>
   </g>
   <g id="line2d_31">
    <path d="M 61.63224 696.4671 
L 87.498085 661.680318 
L 116.146944 626.893535 
L 148.051063 592.106753 
L 183.776539 557.31997 
L 224.003729 522.533188 
L 269.552718 487.746405 
L 321.415463 452.959622 
L 380.797068 418.17284 
L 449.170169 383.386057 
L 528.34946 348.599275 
L 620.600183 313.812492 
L 728.812031 279.02571 
L 856.825566 244.238927 
L 861.764963 243.011522 
L 1004.348622 209.452144 
L 1153 185.214306 
" clip-path="url(#pa033727558)" style="fill: none; stroke-dasharray: 0.5,0.825; stroke-dashoffset: 0; stroke: #363636; stroke-width: 0.5"/>
   </g>
   <g id="line2d_32">
    <path d="M 108.333212 696.4671 
L 144.988136 661.680318 
L 186.878056 626.893535 
L 235.02519 592.106753 
L 290.668945 557.31997 
L 355.314996 522.533188 
L 430.796963 487.746405 
L 519.35491 452.959622 
L 623.737078 418.17284 
L 747.335389 383.386057 
L 818.204171 365.854598 
L 891.653618 348.599275 
L 1093.26593 313.812492 
L 1153 306.981126 
" clip-path="url(#pa033727558)" style="fill: none; stroke-dasharray: 0.5,0.825; stroke-dashoffset: 0; stroke: #363636; stroke-width: 0.5"/>
   </g>
   <g id="line2d_33">
    <path d="M 186.168165 696.4671 
L 240.804889 661.680318 
L 304.763241 626.893535 
L 379.982069 592.106753 
L 468.822957 557.31997 
L 574.167107 522.533188 
L 699.537372 487.746405 
L 777.295221 468.904298 
L 842.776999 452.959622 
L 1037.008532 418.17284 
L 1153 404.562222 
" clip-path="url(#pa033727558)" style="fill: none; stroke-dasharray: 0.5,0.825; stroke-dashoffset: 0; stroke: #363636; stroke-width: 0.5"/>
   </g>
   <g id="line2d_34">
    <path d="M 341.838071 696.4671 
L 432.438393 661.680318 
L 540.533613 626.893535 
L 669.895827 592.106753 
L 738.59856 575.919077 
L 811.155479 557.31997 
L 998.60085 522.533188 
L 1153 503.856612 
" clip-path="url(#pa033727558)" style="fill: none; stroke-dasharray: 0.5,0.825; stroke-dashoffset: 0; stroke: #363636; stroke-width: 0.5"/>
   </g>
   <g id="line2d_35">
    <path d="M 778.853709 696.4671 
L 955.524741 661.680318 
L 1153 636.377916 
" clip-path="url(#pa033727558)" style="fill: none; stroke-dasharray: 0.5,0.825; stroke-dashoffset: 0; stroke: #363636; stroke-width: 0.5"/>
   </g>
   <g id="line2d_36">
    <path d="M 117.561785 -1 
L 104.032175 124.985942 
L 97.99464 587.922722 
L 110.558544 587.922722 
L 129.768715 587.922722 
L 148.978886 587.922722 
L 168.189057 587.922722 
L 187.399227 587.922722 
L 206.609398 587.922722 
L 225.819569 587.922722 
L 245.02974 587.922722 
L 264.239911 587.922722 
L 283.450082 587.922722 
L 302.660253 587.922722 
L 321.870424 587.922722 
L 341.080595 587.922722 
L 360.290765 587.922722 
L 379.500936 587.922722 
L 398.711107 587.922722 
L 417.921278 587.922722 
L 437.131449 587.922722 
L 456.34162 587.922722 
L 475.551791 587.922722 
L 494.761962 587.922722 
L 513.972133 587.922722 
L 533.182303 587.922722 
L 552.392474 587.922722 
L 571.602645 587.922722 
L 590.812816 587.922722 
L 610.022987 587.922722 
L 629.233158 587.922722 
L 648.443329 587.922722 
L 667.6535 587.922722 
L 686.863671 587.922722 
L 706.073842 587.922722 
L 725.284012 587.922722 
L 734.566215 587.922722 
L 736.281731 605.375763 
L 739.065998 639.928132 
L 741.258364 675.335044 
L 742.976079 711.419675 
" clip-path="url(#pa033727558)" style="fill: none; stroke-dasharray: 1.85,0.8; stroke-dashoffset: 0; stroke: #000000; stroke-width: 0.5"/>
   </g>
   <g id="line2d_37">
    <path d="M 204.764559 -1 
L 192.540149 463.665371 
L 192.664171 463.665371 
L 213.809681 463.665371 
L 234.95519 463.665371 
L 256.1007 463.665371 
L 277.246209 463.665371 
L 298.391718 463.665371 
L 319.537228 463.665371 
L 340.682737 463.665371 
L 361.828247 463.665371 
L 382.973756 463.665371 
L 404.119266 463.665371 
L 425.264775 463.665371 
L 446.410285 463.665371 
L 467.555794 463.665371 
L 488.701304 463.665371 
L 509.846813 463.665371 
L 530.992323 463.665371 
L 552.137832 463.665371 
L 573.283342 463.665371 
L 594.428851 463.665371 
L 615.574361 463.665371 
L 636.71987 463.665371 
L 657.86538 463.665371 
L 679.010889 463.665371 
L 700.156399 463.665371 
L 721.301908 463.665371 
L 742.447418 463.665371 
L 763.592927 463.665371 
L 779.308592 463.665371 
L 780.960446 471.363551 
L 786.60227 502.451816 
L 791.135969 535.061641 
L 794.748501 568.90765 
L 797.606626 603.748507 
L 799.854676 639.383173 
L 801.614498 675.646603 
L 802.986898 712.405035 
" clip-path="url(#pa033727558)" style="fill: none; stroke-dasharray: 1.85,0.8; stroke-dashoffset: 0; stroke: #000000; stroke-width: 0.5"/>
   </g>
   <g id="line2d_38">
    <path d="M 301.703135 -1 
L 295.703041 109.651319 
L 294.448495 361.474064 
L 305.144111 361.474064 
L 328.224959 361.474064 
L 351.305807 361.474064 
L 374.386655 361.474064 
L 397.467504 361.474064 
L 420.548352 361.474064 
L 443.6292 361.474064 
L 466.710048 361.474064 
L 489.790896 361.474064 
L 512.871744 361.474064 
L 535.952592 361.474064 
L 559.03344 361.474064 
L 582.114288 361.474064 
L 605.195136 361.474064 
L 628.275984 361.474064 
L 651.356832 361.474064 
L 674.437681 361.474064 
L 697.518529 361.474064 
L 720.599377 361.474064 
L 743.680225 361.474064 
L 766.761073 361.474064 
L 789.841921 361.474064 
L 812.922769 361.474064 
L 819.967444 361.474064 
L 827.098532 379.27666 
L 835.863647 406.972617 
L 843.052662 436.75982 
L 848.882993 468.285944 
L 853.564969 501.242086 
L 857.293206 535.361314 
L 860.241165 570.416954 
L 862.558741 606.219839 
L 864.372265 642.614567 
L 865.78609 679.475178 
L 866.885067 716.700704 
" clip-path="url(#pa033727558)" style="fill: none; stroke-dasharray: 1.85,0.8; stroke-dashoffset: 0; stroke: #000000; stroke-width: 0.5"/>
   </g>
   <g id="line2d_39">
    <path d="M 403.012586 -1 
L 401.473441 43.652576 
L 405.830424 240.671369 
L 406.67159 275.266548 
L 429.262573 275.266548 
L 454.27876 275.266548 
L 479.294947 275.266548 
L 504.311133 275.266548 
L 529.32732 275.266548 
L 554.343507 275.266548 
L 579.359693 275.266548 
L 604.37588 275.266548 
L 629.392067 275.266548 
L 654.408253 275.266548 
L 679.42444 275.266548 
L 704.440627 275.266548 
L 729.456813 275.266548 
L 754.473 275.266548 
L 779.489187 275.266548 
L 804.505373 275.266548 
L 829.52156 275.266548 
L 852.55416 275.266548 
L 853.846157 276.724319 
L 868.939264 296.917661 
L 881.87219 320.181983 
L 892.784624 346.125918 
L 901.860433 374.378488 
L 909.31006 404.592577 
L 915.353845 436.449381 
L 920.207775 469.662836 
L 924.072932 503.982491 
L 927.129009 539.194118 
L 929.53144 575.118212 
L 931.411255 611.606961 
L 932.876692 648.540385 
L 934.015741 685.822221 
L 934.843171 721 
" clip-path="url(#pa033727558)" style="fill: none; stroke-dasharray: 1.85,0.8; stroke-dashoffset: 0; stroke: #000000; stroke-width: 0.5"/>
   </g>
   <g id="line2d_40">
    <path d="M 511.9519 12.988449 
L 521.480597 106.121396 
L 536.526778 200.633521 
L 538.472192 200.633521 
L 565.423717 200.633521 
L 592.375243 200.633521 
L 619.326768 200.633521 
L 646.278293 200.633521 
L 673.229818 200.633521 
L 700.181344 200.633521 
L 727.132869 200.633521 
L 754.084394 200.633521 
L 781.03592 200.633521 
L 807.987445 200.633521 
L 834.93897 200.633521 
L 861.890495 200.633521 
L 866.127657 200.633521 
L 884.611995 210.399936 
L 904.608913 225.241181 
L 922.400321 243.406137 
L 937.956741 264.639851 
L 951.329504 288.658047 
L 962.63986 315.15686 
L 972.062511 343.824103 
L 979.806095 374.35166 
L 986.093811 406.447159 
L 991.14692 439.843116 
L 995.17269 474.3026 
L 998.357008 509.621472 
L 1000.861033 545.627864 
L 1002.820829 582.179791 
L 1004.348919 619.16173 
L 1005.536855 656.480829 
L 1006.458195 694.063179 
" clip-path="url(#pa033727558)" style="fill: none; stroke-dasharray: 1.85,0.8; stroke-dashoffset: 0; stroke: #000000; stroke-width: 0.5"/>
   </g>
   <g id="line2d_41">
    <path d="M 629.78275 -1 
L 643.14575 49.654505 
L 663.272562 93.111185 
L 687.658853 118.954086 
L 714.74694 129.467253 
L 743.066885 132.529405 
L 771.706633 133.700224 
L 800.326707 134.79824 
L 828.709682 136.61395 
L 856.575215 139.863758 
L 883.595037 145.148902 
L 909.426516 152.908512 
L 933.741476 163.425955 
L 956.251818 176.850841 
L 976.731273 193.221632 
L 995.03187 212.484095 
L 1011.093228 234.506372 
L 1024.942699 259.093852 
L 1036.685914 286.005988 
L 1046.48958 314.974827 
L 1054.560231 345.723331 
L 1061.12299 377.981241 
L 1066.403498 411.496973 
L 1070.614649 446.045111 
L 1073.948347 481.429867 
L 1076.571601 517.485431 
L 1078.625829 554.074216 
L 1080.228245 591.083896 
L 1081.474392 628.423955 
L 1082.441142 666.022194 
L 1083.189723 703.821488 
" clip-path="url(#pa033727558)" style="fill: none; stroke-dasharray: 1.85,0.8; stroke-dashoffset: 0; stroke: #000000; stroke-width: 0.5"/>
   </g>
   <g id="line2d_42">
    <path d="M 761.216859 -1 
L 771.036386 17.59662 
L 793.980905 43.886364 
L 819.7191 61.620285 
L 847.067739 73.515368 
L 875.140237 82.380479 
L 903.328002 90.199571 
L 931.186157 98.224829 
L 958.333637 107.287679 
L 984.409932 117.979833 
L 1009.072722 130.725192 
L 1032.013759 145.80928 
L 1052.980362 163.395244 
L 1071.795659 183.535672 
L 1088.372205 206.185046 
L 1102.715158 231.215735 
L 1114.914116 258.437899 
L 1125.125911 287.621448 
L 1133.552577 318.517319 
" clip-path="url(#pa033727558)" style="fill: none; stroke-dasharray: 1.85,0.8; stroke-dashoffset: 0; stroke: #000000; stroke-width: 0.5"/>
   </g>
   <g id="line2d_43">
    <path d="M 74.450451 -1 
L 36.322416 690.691529 
L 36.322149 690.832514 
L 36.321868 690.977147 
L 36.321572 691.125519 
L 36.32126 691.27772 
L 36.320931 691.433843 
L 36.320586 691.593984 
L 36.320222 691.758239 
L 36.319839 691.926708 
L 36.319437 692.099492 
L 36.319013 692.276694 
" clip-path="url(#pa033727558)" style="fill: none; stroke: #d1d1d1; stroke-width: 0.5; stroke-linecap: square"/>
   </g>
   <g id="line2d_44">
    <path d="M 346.961745 -1 
L 322.257561 170.291109 
L 314.432248 344.739769 
L 314.417309 345.35843 
L 314.401692 345.990659 
L 314.385371 346.636684 
L 314.368316 347.296735 
L 314.3505 347.971039 
L 314.331891 348.659828 
L 314.312459 349.363331 
L 314.292171 350.08178 
L 314.270994 350.815405 
L 314.248895 351.564439 
L 314.225839 352.329112 
L 314.201789 353.109655 
L 314.176709 353.9063 
L 314.15056 354.719277 
L 314.123304 355.548815 
L 314.094901 356.395144 
L 314.065309 357.258491 
L 314.034487 358.139084 
L 314.00239 359.037149 
L 313.968976 359.95291 
L 313.9342 360.886589 
L 313.898013 361.838407 
L 313.86037 362.808584 
L 313.821223 363.797336 
L 313.780521 364.804878 
L 313.738215 365.831423 
L 313.694254 366.877179 
L 313.648584 367.942353 
L 313.601154 369.02715 
L 313.551908 370.131771 
L 313.500792 371.256411 
L 313.447751 372.401266 
L 313.392726 373.566525 
L 313.335661 374.752375 
L 313.276497 375.958998 
L 313.215175 377.186574 
L 313.151635 378.435275 
L 313.085816 379.705271 
L 313.017657 380.996728 
L 312.947096 382.309807 
L 312.87407 383.644661 
L 312.798517 385.001442 
L 312.720372 386.380296 
L 312.639572 387.781362 
L 312.556053 389.204775 
L 312.469749 390.650665 
L 312.380595 392.119155 
L 312.288526 393.610363 
L 312.193476 395.124402 
L 312.09538 396.661377 
L 311.994173 398.221389 
L 311.889787 399.804533 
L 311.782158 401.410896 
L 311.67122 403.040561 
L 311.556908 404.693604 
L 311.439156 406.370095 
L 311.317899 408.070095 
L 311.193073 409.793664 
L 311.064615 411.54085 
L 310.932459 413.311699 
L 310.796544 415.106248 
L 310.656807 416.924529 
L 310.513185 418.766566 
L 310.365619 420.632378 
L 310.214048 422.521977 
L 310.058413 424.43537 
L 309.898655 426.372556 
L 309.734717 428.333528 
L 309.566543 430.318273 
L 309.394078 432.326771 
L 309.217267 434.358999 
L 309.036059 436.414924 
L 308.850401 438.494509 
L 308.660243 440.59771 
L 308.465538 442.724479 
L 308.266237 444.87476 
L 308.062295 447.048493 
L 307.853668 449.245612 
L 307.640313 451.466045 
L 307.422189 453.709715 
L 307.199257 455.976539 
L 306.971479 458.26643 
L 306.738819 460.579296 
L 306.501243 462.915038 
L 304.103069 485.251318 
L 301.277177 509.385131 
L 298.019511 535.198665 
L 294.338714 562.558372 
L 290.254543 591.322736 
L 285.795584 621.348826 
L 280.996688 652.497364 
L 275.896486 684.636336 
L 270.535178 717.643282 
" clip-path="url(#pa033727558)" style="fill: none; stroke: #d1d1d1; stroke-width: 0.5; stroke-linecap: square"/>
   </g>
   <g id="line2d_45">
    <path d="M 705.74556 4.910732 
L 698.996081 28.289217 
L 693.391405 50.355012 
L 688.757271 70.893195 
L 684.94406 89.708027 
L 681.824211 106.636503 
L 679.29071 121.554578 
L 677.256613 134.371589 
L 675.654454 145.018585 
L 674.929451 149.988398 
L 674.695856 151.574168 
L 674.453967 153.190185 
L 674.203855 154.834961 
L 673.945524 156.507479 
L 673.678943 158.207018 
L 673.404048 159.933057 
L 673.120762 161.685212 
L 672.828992 163.463193 
L 672.528635 165.266785 
L 672.219583 167.095823 
L 671.901723 168.950179 
L 671.574938 170.829757 
L 671.239107 172.734481 
L 670.894112 174.664292 
L 670.53983 176.619145 
L 670.17614 178.599 
L 669.802922 180.603826 
L 669.420055 182.633596 
L 669.027421 184.688285 
L 668.624902 186.767869 
L 668.212385 188.872325 
L 667.789755 191.001627 
L 667.356903 193.155749 
L 666.91372 195.334663 
L 666.460103 197.538338 
L 665.995949 199.766739 
L 665.52116 202.019831 
L 665.03564 204.297573 
L 664.539298 206.59992 
L 664.032046 208.926827 
L 663.5138 211.278241 
L 662.984479 213.65411 
L 662.444007 216.054376 
L 661.892312 218.478976 
L 661.329325 220.927848 
L 660.754983 223.400921 
L 660.169225 225.898124 
L 659.571997 228.419381 
L 658.96325 230.964611 
L 658.342936 233.533729 
L 657.711015 236.126647 
L 657.067453 238.743271 
L 656.412218 241.383501 
L 655.745284 244.047234 
L 655.066633 246.734361 
L 654.376249 249.444767 
L 653.674123 252.178332 
L 652.960253 254.93493 
L 652.234639 257.71443 
L 651.497291 260.516694 
L 650.74822 263.341581 
L 649.987446 266.188944 
L 649.214992 269.058631 
L 648.430889 271.950485 
L 647.635171 274.864344 
L 646.827878 277.800044 
L 646.009056 280.757415 
L 645.178754 283.736285 
L 644.337028 286.736477 
L 643.483938 289.757813 
L 642.619549 292.80011 
L 641.743929 295.863184 
L 640.857153 298.946847 
L 639.959299 302.050909 
L 639.050449 305.17518 
L 638.130689 308.319463 
L 629.256839 337.88172 
L 619.567911 368.936453 
L 609.165821 401.323199 
L 598.163783 434.882273 
L 586.678566 469.460249 
L 574.824142 504.913805 
L 562.707046 541.112076 
L 550.423409 577.93777 
L 538.057442 615.287344 
L 525.681044 653.070509 
L 513.354197 691.209322 
L 503.874313 721 
" clip-path="url(#pa033727558)" style="fill: none; stroke: #d1d1d1; stroke-width: 0.5; stroke-linecap: square"/>
   </g>
   <g id="line2d_46">
    <path d="M 1132.851732 24.475952 
L 1130.334118 28.997716 
L 1127.879626 33.421892 
L 1125.481656 37.756905 
L 1123.134257 42.010508 
L 1120.83205 46.189845 
L 1118.570164 50.3015 
L 1116.344178 54.351549 
L 1114.150069 58.345602 
L 1111.984172 62.28884 
L 1109.843141 66.186056 
L 1107.723919 70.041683 
L 1105.623703 73.859827 
L 1103.539926 77.644288 
L 1101.470233 81.398589 
L 1099.412458 85.125995 
L 1097.364611 88.829533 
L 1095.324864 92.51201 
L 1093.291532 96.176029 
L 1091.263066 99.824005 
L 1089.23804 103.458176 
L 1087.215144 107.080618 
L 1085.19317 110.693254 
L 1083.171011 114.297867 
L 1081.14765 117.896109 
L 1079.122152 121.489508 
L 1077.093664 125.079477 
L 1075.061404 128.667326 
L 1073.024659 132.254259 
L 1070.98278 135.841394 
L 1068.935179 139.429755 
L 1066.881322 143.02029 
L 1064.820728 146.613868 
L 1062.752968 150.211287 
L 1060.677656 153.81328 
L 1058.594451 157.420516 
L 1056.503052 161.033608 
L 1054.403197 164.653112 
L 1052.29466 168.279535 
L 1050.177249 171.913337 
L 1048.050801 175.554932 
L 1045.915187 179.204695 
L 1043.770302 182.862959 
L 1041.61607 186.530025 
L 1039.452438 190.206158 
L 1037.279375 193.891593 
L 1035.096872 197.586535 
L 1032.904942 201.291162 
L 1030.703614 205.00563 
L 1010.20897 239.347746 
L 989.0277 274.543965 
L 967.298013 310.554951 
L 945.178158 347.309347 
L 922.825765 384.727017 
L 900.386922 422.730612 
L 877.991377 461.250539 
L 855.751209 500.226585 
L 833.76131 539.607989 
L 812.10085 579.352695 
L 790.835109 619.426301 
L 770.017367 659.800939 
L 749.690679 700.4542 
" clip-path="url(#pa033727558)" style="fill: none; stroke: #d1d1d1; stroke-width: 0.5; stroke-linecap: square"/>
   </g>
   <g id="line2d_47">
    <path d="M 1147.904358 596.375972 
L 1117.477085 635.697211 
L 1087.642349 675.152591 
L 1058.418435 714.737753 
" clip-path="url(#pa033727558)" style="fill: none; stroke: #d1d1d1; stroke-width: 0.5; stroke-linecap: square"/>
   </g>
   <g id="line2d_48">
    <path d="M 29.381557 703.559314 
L 53.514338 659.916056 
L 78.008801 619.013951 
L 102.892895 580.593228 
L 128.19637 544.423669 
L 153.951253 510.30067 
L 180.192444 478.041869 
L 206.958484 447.484246 
L 234.292577 418.481604 
L 262.244006 390.902385 
L 290.870155 364.627728 
L 320.239478 339.54975 
L 350.43598 315.569964 
L 381.56624 292.597797 
L 413.770905 270.549078 
L 447.244731 249.344358 
L 482.274526 228.907101 
L 519.318371 209.161793 
L 559.196441 190.030583 
L 603.686225 171.424699 
L 605.692419 170.659582 
L 607.714913 169.895162 
L 609.754389 169.13143 
L 611.811581 168.368373 
L 613.88728 167.605979 
L 615.982334 166.844235 
L 618.097664 166.083128 
L 620.234265 165.322646 
L 622.393217 164.562773 
L 624.575696 163.803496 
L 626.782988 163.0448 
L 629.016498 162.286668 
L 631.277773 161.529084 
L 633.568517 160.772031 
L 635.890618 160.015491 
L 638.246175 159.259445 
L 640.637531 158.503874 
L 643.067317 157.748754 
L 645.538502 156.994066 
L 648.054457 156.239783 
L 650.619033 155.485882 
L 653.236663 154.732334 
L 655.912493 153.97911 
L 658.652546 153.226178 
L 661.463948 152.473504 
L 664.355228 151.721049 
L 667.33673 150.968772 
L 670.421195 150.216626 
L 673.624603 149.464558 
L 676.967428 148.712509 
L 680.476597 147.96041 
L 684.188668 147.208182 
L 688.155319 146.455729 
L 692.453545 145.702934 
L 697.206581 144.949647 
L 702.633215 144.19567 
L 709.191783 143.440716 
L 718.201956 142.68431 
L 748.581181 141.925341 
" clip-path="url(#pa033727558)" style="fill: none; stroke: #363636; stroke-width: 0.5; stroke-linecap: square"/>
   </g>
   <g id="line2d_49">
    <path d="M 96.333359 703.559314 
L 119.332729 659.916056 
L 142.649489 619.013951 
L 166.30569 580.593228 
L 190.324739 544.423669 
L 214.731746 510.30067 
L 239.553967 478.041869 
L 264.821365 447.484246 
L 290.567368 418.481604 
L 316.829917 390.902385 
L 343.652966 364.627728 
L 371.088682 339.54975 
L 399.200781 315.569964 
L 428.069768 292.597797 
L 457.801534 270.549078 
L 488.541914 249.344358 
L 520.503843 228.907101 
L 554.027162 209.161793 
L 589.725815 190.030583 
L 628.937732 171.424699 
L 630.687159 170.659582 
L 632.448935 169.895162 
L 634.223575 169.13143 
L 636.011634 168.368373 
L 637.813706 167.605979 
L 639.630435 166.844235 
L 641.462513 166.083128 
L 643.310693 165.322646 
L 645.17579 164.562773 
L 647.058694 163.803496 
L 648.960375 163.0448 
L 650.881896 162.286668 
L 652.824426 161.529084 
L 654.789255 160.772031 
L 656.777811 160.015491 
L 658.791683 159.259445 
L 660.832645 158.503874 
L 662.902691 157.748754 
L 665.00407 156.994066 
L 667.139339 156.239783 
L 669.311419 155.485882 
L 671.523675 154.732334 
L 673.780015 153.97911 
L 676.085018 153.226178 
L 678.444102 152.473504 
L 680.863759 151.721049 
L 683.351868 150.968772 
L 685.918144 150.216626 
L 688.574779 149.464558 
L 691.337419 148.712509 
L 694.226659 147.96041 
L 697.270502 147.208182 
L 700.508597 146.455729 
L 704.000125 145.702934 
L 707.840012 144.949647 
L 712.197249 144.19567 
L 717.427081 143.440716 
L 724.557589 142.68431 
L 748.581181 141.925341 
" clip-path="url(#pa033727558)" style="fill: none; stroke: #363636; stroke-width: 0.5; stroke-linecap: square"/>
   </g>
   <g id="line2d_50">
    <path d="M 163.285161 703.559314 
L 185.15112 659.916056 
L 207.290177 619.013951 
L 229.718485 580.593228 
L 252.453108 544.423669 
L 275.51224 510.30067 
L 298.91549 478.041869 
L 322.684246 447.484246 
L 346.842159 418.481604 
L 371.415828 390.902385 
L 396.435776 364.627728 
L 421.937887 339.54975 
L 447.965583 315.569964 
L 474.573296 292.597797 
L 501.832164 270.549078 
L 529.839098 249.344358 
L 558.73316 228.907101 
L 588.735954 209.161793 
L 620.25519 190.030583 
L 654.189239 171.424699 
L 655.681898 170.659582 
L 657.182957 169.895162 
L 658.692761 169.13143 
L 660.211686 168.368373 
L 661.740133 167.605979 
L 663.278536 166.844235 
L 664.827362 166.083128 
L 666.387121 165.322646 
L 667.958364 164.562773 
L 669.541692 163.803496 
L 671.137762 163.0448 
L 672.747294 162.286668 
L 674.371079 161.529084 
L 676.009993 160.772031 
L 677.665005 160.015491 
L 679.337191 159.259445 
L 681.02776 158.503874 
L 682.738065 157.748754 
L 684.469638 156.994066 
L 686.22422 156.239783 
L 688.003804 155.485882 
L 689.810687 154.732334 
L 691.647538 153.97911 
L 693.51749 153.226178 
L 695.424256 152.473504 
L 697.37229 151.721049 
L 699.367007 150.968772 
L 701.415092 150.216626 
L 703.524956 149.464558 
L 705.70741 148.712509 
L 707.97672 147.96041 
L 710.352336 147.208182 
L 712.861876 146.455729 
L 715.546704 145.702934 
L 718.473444 144.949647 
L 721.761283 144.19567 
L 725.662379 143.440716 
L 730.913222 142.68431 
L 748.581181 141.925341 
" clip-path="url(#pa033727558)" style="fill: none; stroke: #363636; stroke-width: 0.5; stroke-linecap: square"/>
   </g>
   <g id="line2d_51">
    <path d="M 230.236964 703.559314 
L 250.969511 659.916056 
L 271.930865 619.013951 
L 293.131281 580.593228 
L 314.581477 544.423669 
L 336.292733 510.30067 
L 358.277013 478.041869 
L 380.547127 447.484246 
L 403.116949 418.481604 
L 426.001738 390.902385 
L 449.218586 364.627728 
L 472.787091 339.54975 
L 496.730384 315.569964 
L 521.076825 292.597797 
L 545.862793 270.549078 
L 571.136281 249.344358 
L 596.962477 228.907101 
L 623.444745 209.161793 
L 650.784564 190.030583 
L 679.440746 171.424699 
L 680.676638 170.659582 
L 681.916978 169.895162 
L 683.161948 169.13143 
L 684.411739 168.368373 
L 685.66656 167.605979 
L 686.926636 166.844235 
L 688.192212 166.083128 
L 689.46355 165.322646 
L 690.740938 164.562773 
L 692.02469 163.803496 
L 693.315149 163.0448 
L 694.612691 162.286668 
L 695.917733 161.529084 
L 697.230732 160.772031 
L 698.552198 160.015491 
L 699.8827 159.259445 
L 701.222874 158.503874 
L 702.573439 157.748754 
L 703.935206 156.994066 
L 705.309102 156.239783 
L 706.69619 155.485882 
L 708.097698 154.732334 
L 709.51506 153.97911 
L 710.949962 153.226178 
L 712.40441 152.473504 
L 713.880821 151.721049 
L 715.382145 150.968772 
L 716.91204 150.216626 
L 718.475133 149.464558 
L 720.0774 148.712509 
L 721.726782 147.96041 
L 723.43417 147.208182 
L 725.215154 146.455729 
L 727.093283 145.702934 
L 729.106875 144.949647 
L 731.325318 144.19567 
L 733.897677 143.440716 
L 737.268856 142.68431 
L 748.581181 141.925341 
" clip-path="url(#pa033727558)" style="fill: none; stroke: #363636; stroke-width: 0.5; stroke-linecap: square"/>
   </g>
   <g id="line2d_52">
    <path d="M 297.188766 703.559314 
L 316.787902 659.916056 
L 336.571552 619.013951 
L 356.544076 580.593228 
L 376.709846 544.423669 
L 397.073227 510.30067 
L 417.638537 478.041869 
L 438.410008 447.484246 
L 459.39174 418.481604 
L 480.587649 390.902385 
L 502.001397 364.627728 
L 523.636296 339.54975 
L 545.495186 315.569964 
L 567.580353 292.597797 
L 589.893422 270.549078 
L 612.433464 249.344358 
L 635.191793 228.907101 
L 658.153536 209.161793 
L 681.313939 190.030583 
L 704.692253 171.424699 
L 705.671377 170.659582 
L 706.651 169.895162 
L 707.631134 169.13143 
L 708.611791 168.368373 
L 709.592987 167.605979 
L 710.574737 166.844235 
L 711.557061 166.083128 
L 712.539978 165.322646 
L 713.523512 164.562773 
L 714.507688 163.803496 
L 715.492536 163.0448 
L 716.478089 162.286668 
L 717.464386 161.529084 
L 718.45147 160.772031 
L 719.439391 160.015491 
L 720.428208 159.259445 
L 721.417989 158.503874 
L 722.408813 157.748754 
L 723.400774 156.994066 
L 724.393984 156.239783 
L 725.388576 155.485882 
L 726.38471 154.732334 
L 727.382582 153.97911 
L 728.382434 153.226178 
L 729.384564 152.473504 
L 730.389353 151.721049 
L 731.397283 150.968772 
L 732.408989 150.216626 
L 733.425309 149.464558 
L 734.447391 148.712509 
L 735.476843 147.96041 
L 736.516004 147.208182 
L 737.568432 146.455729 
L 738.639863 145.702934 
L 739.740307 144.949647 
L 740.889352 144.19567 
L 742.132975 143.440716 
L 743.624489 142.68431 
L 748.581181 141.925341 
" clip-path="url(#pa033727558)" style="fill: none; stroke: #363636; stroke-width: 0.5; stroke-linecap: square"/>
   </g>
   <g id="line2d_53">
    <path d="M 364.140568 703.559314 
L 382.606293 659.916056 
L 401.21224 619.013951 
L 419.956871 580.593228 
L 438.838215 544.423669 
L 457.85372 510.30067 
L 477.00006 478.041869 
L 496.272889 447.484246 
L 515.666531 418.481604 
L 535.173559 390.902385 
L 554.784207 364.627728 
L 574.4855 339.54975 
L 594.259988 315.569964 
L 614.083881 292.597797 
L 633.924052 270.549078 
L 653.730647 249.344358 
L 673.42111 228.907101 
L 692.862328 209.161793 
L 711.843313 190.030583 
L 729.94376 171.424699 
L 730.666117 170.659582 
L 731.385022 169.895162 
L 732.10032 169.13143 
L 732.811843 168.368373 
L 733.519413 167.605979 
L 734.222838 166.844235 
L 734.92191 166.083128 
L 735.616406 165.322646 
L 736.306086 164.562773 
L 736.990686 163.803496 
L 737.669923 163.0448 
L 738.343487 162.286668 
L 739.011039 161.529084 
L 739.672208 160.772031 
L 740.326584 160.015491 
L 740.973716 159.259445 
L 741.613103 158.503874 
L 742.244187 157.748754 
L 742.866342 156.994066 
L 743.478866 156.239783 
L 744.080961 155.485882 
L 744.671721 154.732334 
L 745.250104 153.97911 
L 745.814906 153.226178 
L 746.364718 152.473504 
L 746.897884 151.721049 
L 747.412422 150.968772 
L 747.905937 150.216626 
L 748.375486 149.464558 
L 748.817382 148.712509 
L 749.226905 147.96041 
L 749.597838 147.208182 
L 749.92171 146.455729 
L 750.186442 145.702934 
L 750.373738 144.949647 
L 750.453386 144.19567 
L 750.368273 143.440716 
L 749.980122 142.68431 
L 748.581181 141.925341 
" clip-path="url(#pa033727558)" style="fill: none; stroke: #363636; stroke-width: 0.5; stroke-linecap: square"/>
   </g>
   <g id="line2d_54">
    <path d="M 431.092371 703.559314 
L 448.424684 659.916056 
L 465.852928 619.013951 
L 483.369667 580.593228 
L 500.966585 544.423669 
L 518.634214 510.30067 
L 536.361583 478.041869 
L 554.13577 447.484246 
L 571.941321 418.481604 
L 589.75947 390.902385 
L 607.567017 364.627728 
L 625.334705 339.54975 
L 643.024789 315.569964 
L 660.587409 292.597797 
L 677.954681 270.549078 
L 695.027831 249.344358 
L 711.650427 228.907101 
L 727.571119 209.161793 
L 742.372688 190.030583 
L 755.195267 171.424699 
L 755.660856 170.659582 
L 756.119044 169.895162 
L 756.569506 169.13143 
L 757.011896 168.368373 
L 757.44584 167.605979 
L 757.870939 166.844235 
L 758.286759 166.083128 
L 758.692835 165.322646 
L 759.088659 164.562773 
L 759.473684 163.803496 
L 759.84731 163.0448 
L 760.208885 162.286668 
L 760.557693 161.529084 
L 760.892946 160.772031 
L 761.213777 160.015491 
L 761.519225 159.259445 
L 761.808218 158.503874 
L 762.079561 157.748754 
L 762.33191 156.994066 
L 762.563748 156.239783 
L 762.773347 155.485882 
L 762.958733 154.732334 
L 763.117627 153.97911 
L 763.247378 153.226178 
L 763.344873 152.473504 
L 763.406415 151.721049 
L 763.42756 150.968772 
L 763.402885 150.216626 
L 763.325662 149.464558 
L 763.187373 148.712509 
L 762.976966 147.96041 
L 762.679672 147.208182 
L 762.274988 146.455729 
L 761.733021 145.702934 
L 761.00717 144.949647 
L 760.01742 144.19567 
L 758.60357 143.440716 
L 756.335755 142.68431 
L 748.581181 141.925341 
" clip-path="url(#pa033727558)" style="fill: none; stroke: #363636; stroke-width: 0.5; stroke-linecap: square"/>
   </g>
   <g id="line2d_55">
    <path d="M 498.044173 703.559314 
L 514.243075 659.916056 
L 530.493615 619.013951 
L 546.782462 580.593228 
L 563.094954 544.423669 
L 579.414707 510.30067 
L 595.723106 478.041869 
L 611.99865 447.484246 
L 628.216112 418.481604 
L 644.345381 390.902385 
L 660.349828 364.627728 
L 676.183909 339.54975 
L 691.789591 315.569964 
L 707.090937 292.597797 
L 721.98531 270.549078 
L 736.325014 249.344358 
L 749.879744 228.907101 
L 762.279911 209.161793 
L 772.902062 190.030583 
L 780.446774 171.424699 
L 780.655596 170.659582 
L 780.853066 169.895162 
L 781.038692 169.13143 
L 781.211948 168.368373 
L 781.372267 167.605979 
L 781.51904 166.844235 
L 781.651608 166.083128 
L 781.769263 165.322646 
L 781.871233 164.562773 
L 781.956682 163.803496 
L 782.024697 163.0448 
L 782.074283 162.286668 
L 782.104346 161.529084 
L 782.113684 160.772031 
L 782.100971 160.015491 
L 782.064733 159.259445 
L 782.003332 158.503874 
L 781.914935 157.748754 
L 781.797478 156.994066 
L 781.648629 156.239783 
L 781.465733 155.485882 
L 781.245744 154.732334 
L 780.985149 153.97911 
L 780.67985 153.226178 
L 780.325027 152.473504 
L 779.914946 151.721049 
L 779.442698 150.968772 
L 778.899834 150.216626 
L 778.275839 149.464558 
L 777.557363 148.712509 
L 776.727027 147.96041 
L 775.761506 147.208182 
L 774.628266 146.455729 
L 773.279601 145.702934 
L 771.640602 144.949647 
L 769.581454 144.19567 
L 766.838868 143.440716 
L 762.691388 142.68431 
L 748.581181 141.925341 
" clip-path="url(#pa033727558)" style="fill: none; stroke: #363636; stroke-width: 0.5; stroke-linecap: square"/>
   </g>
   <g id="line2d_56">
    <path d="M 564.995975 703.559314 
L 580.061466 659.916056 
L 595.134303 619.013951 
L 610.195257 580.593228 
L 625.223323 544.423669 
L 640.195201 510.30067 
L 655.084629 478.041869 
L 669.861531 447.484246 
L 684.490903 418.481604 
L 698.931291 390.902385 
L 713.132638 364.627728 
L 727.033114 339.54975 
L 740.554392 315.569964 
L 753.594465 292.597797 
L 766.01594 270.549078 
L 777.622197 249.344358 
L 788.109061 228.907101 
L 796.988702 209.161793 
L 803.431437 190.030583 
L 805.698281 171.424699 
L 805.650335 170.659582 
L 805.587088 169.895162 
L 805.507879 169.13143 
L 805.412001 168.368373 
L 805.298694 167.605979 
L 805.16714 166.844235 
L 805.016458 166.083128 
L 804.845691 165.322646 
L 804.653807 164.562773 
L 804.43968 163.803496 
L 804.202084 163.0448 
L 803.939681 162.286668 
L 803.650999 161.529084 
L 803.334423 160.772031 
L 802.988164 160.015491 
L 802.610241 159.259445 
L 802.198447 158.503874 
L 801.750309 157.748754 
L 801.263046 156.994066 
L 800.733511 156.239783 
L 800.158118 155.485882 
L 799.532756 154.732334 
L 798.852671 153.97911 
L 798.112321 153.226178 
L 797.305181 152.473504 
L 796.423478 151.721049 
L 795.457837 150.968772 
L 794.396782 150.216626 
L 793.226015 149.464558 
L 791.927354 148.712509 
L 790.477089 147.96041 
L 788.84334 147.208182 
L 786.981545 146.455729 
L 784.82618 145.702934 
L 782.274033 144.949647 
L 779.145488 144.19567 
L 775.074166 143.440716 
L 769.047021 142.68431 
L 748.581181 141.925341 
" clip-path="url(#pa033727558)" style="fill: none; stroke: #363636; stroke-width: 0.5; stroke-linecap: square"/>
   </g>
   <g id="line2d_57">
    <path d="M 631.947778 703.559314 
L 645.879857 659.916056 
L 659.774991 619.013951 
L 673.608052 580.593228 
L 687.351692 544.423669 
L 700.975694 510.30067 
L 714.446152 478.041869 
L 727.724412 447.484246 
L 740.765694 418.481604 
L 753.517202 390.902385 
L 765.915448 364.627728 
L 777.882318 339.54975 
L 789.319194 315.569964 
L 800.097994 292.597797 
L 810.046569 270.549078 
L 818.91938 249.344358 
L 826.338377 228.907101 
L 831.697493 209.161793 
L 833.960811 190.030583 
L 830.949788 171.424699 
L 830.645075 170.659582 
L 830.32111 169.895162 
L 829.977065 169.13143 
L 829.612053 168.368373 
L 829.225121 167.605979 
L 828.815241 166.844235 
L 828.381307 166.083128 
L 827.92212 165.322646 
L 827.436381 164.562773 
L 826.922678 163.803496 
L 826.379472 163.0448 
L 825.805079 162.286668 
L 825.197653 161.529084 
L 824.555161 160.772031 
L 823.875357 160.015491 
L 823.15575 159.259445 
L 822.393561 158.503874 
L 821.585683 157.748754 
L 820.728614 156.994066 
L 819.818393 156.239783 
L 818.850504 155.485882 
L 817.819767 154.732334 
L 816.720193 153.97911 
L 815.544793 153.226178 
L 814.285335 152.473504 
L 812.932009 151.721049 
L 811.472975 150.968772 
L 809.89373 150.216626 
L 808.176192 149.464558 
L 806.297345 148.712509 
L 804.22715 147.96041 
L 801.925174 147.208182 
L 799.334823 146.455729 
L 796.372759 145.702934 
L 792.907465 144.949647 
L 788.709522 144.19567 
L 783.309464 143.440716 
L 775.402655 142.68431 
L 748.581181 141.925341 
" clip-path="url(#pa033727558)" style="fill: none; stroke: #363636; stroke-width: 0.5; stroke-linecap: square"/>
   </g>
   <g id="line2d_58">
    <path d="M 698.89958 703.559314 
L 711.698248 659.916056 
L 724.415678 619.013951 
L 737.020848 580.593228 
L 749.480061 544.423669 
L 761.756188 510.30067 
L 773.807675 478.041869 
L 785.587293 447.484246 
L 797.040484 418.481604 
L 808.103113 390.902385 
L 818.698258 364.627728 
L 828.731523 339.54975 
L 838.083995 315.569964 
L 846.601522 292.597797 
L 854.077199 270.549078 
L 860.216563 249.344358 
L 864.567694 228.907101 
L 866.406285 209.161793 
L 864.490186 190.030583 
L 856.201295 171.424699 
L 855.639814 170.659582 
L 855.055131 169.895162 
L 854.446251 169.13143 
L 853.812105 168.368373 
L 853.151547 167.605979 
L 852.463342 166.844235 
L 851.746156 166.083128 
L 850.998548 165.322646 
L 850.218955 164.562773 
L 849.405676 163.803496 
L 848.556859 163.0448 
L 847.670477 162.286668 
L 846.744306 161.529084 
L 845.775899 160.772031 
L 844.76255 160.015491 
L 843.701258 159.259445 
L 842.588676 158.503874 
L 841.421057 157.748754 
L 840.194182 156.994066 
L 838.903275 156.239783 
L 837.54289 155.485882 
L 836.106779 154.732334 
L 834.587715 153.97911 
L 832.977265 153.226178 
L 831.265489 152.473504 
L 829.44054 151.721049 
L 827.488114 150.968772 
L 825.390679 150.216626 
L 823.126368 149.464558 
L 820.667336 148.712509 
L 817.977212 147.96041 
L 815.007008 147.208182 
L 811.688101 146.455729 
L 807.919339 145.702934 
L 803.540896 144.949647 
L 798.273556 144.19567 
L 791.544762 143.440716 
L 781.758288 142.68431 
L 748.581181 141.925341 
" clip-path="url(#pa033727558)" style="fill: none; stroke: #363636; stroke-width: 0.5; stroke-linecap: square"/>
   </g>
   <g id="line2d_59">
    <path d="M 454.910391 229.342764 
L 454.910391 245.425558 
L 454.910391 246.254131 
L 454.910391 247.096632 
L 454.910391 247.9532 
L 454.910391 248.823974 
L 454.910391 249.709091 
L 454.910391 250.608685 
L 454.910391 251.522892 
L 454.910391 252.451841 
L 454.910391 253.395665 
L 454.910391 254.354492 
L 454.910391 255.328447 
L 454.910391 256.317655 
L 454.910391 257.32224 
L 454.910391 258.342321 
L 454.910391 259.378016 
L 454.910391 260.429441 
L 454.910391 261.49671 
L 454.910391 262.579933 
L 454.910391 263.679219 
L 454.910391 264.794674 
L 454.910391 265.926401 
L 454.910391 267.0745 
L 454.910391 268.23907 
L 454.910391 269.420205 
L 454.910391 270.617998 
L 454.910391 271.832537 
L 454.910391 273.063909 
L 454.910391 274.312196 
L 454.910391 275.577479 
L 454.910391 276.859834 
L 454.910391 278.159335 
L 454.910391 279.476053 
L 454.910391 280.810054 
L 454.910391 282.161402 
L 454.910391 283.530158 
L 454.910391 284.916379 
L 454.910391 286.320119 
L 454.910391 287.741427 
L 454.910391 289.180351 
L 454.910391 290.636934 
L 454.910391 292.111217 
L 454.910391 293.603234 
L 454.910391 295.11302 
L 454.910391 296.640604 
L 454.910391 298.186011 
L 454.910391 299.749264 
L 454.910391 301.330383 
L 454.910391 302.929382 
L 454.910391 304.546273 
L 454.910391 306.181064 
L 454.910391 307.833762 
L 454.910391 309.504366 
L 454.910391 311.192876 
L 454.910391 312.899286 
L 454.910391 314.623586 
L 454.910391 316.365765 
L 454.910391 318.125808 
L 454.910391 319.903695 
L 454.910391 321.699405 
L 454.910391 323.512912 
L 454.910391 325.344187 
L 454.910391 327.193199 
L 454.910391 329.059912 
L 454.910391 330.944289 
L 454.910391 332.846289 
L 454.910391 334.765868 
L 454.910391 336.702978 
L 454.910391 338.65757 
L 454.910391 340.62959 
L 454.910391 342.618984 
L 454.910391 344.625692 
L 454.910391 346.649654 
L 454.910391 348.690805 
L 454.910391 350.74908 
L 454.910391 352.82441 
L 454.910391 354.916723 
L 454.910391 357.025944 
L 454.910391 359.151999 
L 454.910391 361.294809 
L 454.910391 363.454292 
L 454.910391 365.630367 
L 454.910391 367.822947 
L 454.910391 370.031946 
L 454.910391 372.257275 
L 454.910391 374.498842 
L 454.910391 376.756556 
L 454.910391 379.030321 
L 454.910391 381.320041 
L 454.910391 383.625617 
L 454.910391 385.94695 
L 454.910391 388.28394 
L 454.910391 390.636482 
L 454.910391 393.004474 
L 454.910391 395.387809 
L 454.910391 397.78638 
L 454.910391 400.200081 
L 454.910391 402.628801 
L 454.910391 405.07243 
" clip-path="url(#pa033727558)" style="fill: none; stroke: #ff0000; stroke-width: 1.5; stroke-linecap: square"/>
   </g>
   <g id="line2d_60">
    <path d="M 810.586095 420.531689 
L 811.764998 418.388183 
L 812.943882 416.246908 
L 814.122723 414.107881 
L 815.301495 411.971117 
L 816.480172 409.836632 
L 817.658727 407.704444 
L 818.837135 405.574567 
L 820.015369 403.447019 
L 821.193402 401.321816 
L 822.371208 399.198974 
L 823.54876 397.078511 
L 824.72603 394.960444 
L 825.902992 392.844788 
L 827.079617 390.731562 
L 828.255877 388.620782 
L 829.431747 386.512466 
L 830.607196 384.406632 
L 831.782197 382.303296 
L 832.956722 380.202476 
L 834.130742 378.10419 
L 835.304228 376.008456 
L 836.477152 373.915291 
L 837.649485 371.824713 
L 838.821198 369.736741 
L 839.992262 367.651392 
L 841.162646 365.568684 
L 842.332323 363.488636 
L 843.501261 361.411266 
L 844.669432 359.336592 
L 845.836806 357.264633 
L 847.003352 355.195407 
L 848.169041 353.128932 
L 849.333843 351.065227 
L 850.497727 349.00431 
L 851.660662 346.946201 
L 852.822619 344.890916 
L 853.983567 342.838476 
L 855.143476 340.788899 
L 856.302314 338.742203 
L 857.460051 336.698407 
L 858.616656 334.657529 
L 859.772099 332.619589 
L 860.926349 330.584604 
L 862.079374 328.552593 
L 863.231144 326.523574 
L 864.381627 324.497567 
L 865.530794 322.474589 
L 866.678613 320.454658 
L 867.825052 318.437794 
L 868.970082 316.424013 
L 870.113672 314.413334 
L 871.25579 312.405774 
L 872.396406 310.401352 
L 873.535489 308.400084 
L 874.673009 306.401988 
L 875.808935 304.407081 
L 876.943238 302.41538 
L 878.075886 300.426901 
L 879.206851 298.44166 
L 880.336101 296.459673 
L 881.463609 294.480957 
L 882.589343 292.505525 
L 883.713276 290.533393 
L 884.835379 288.564575 
L 885.955622 286.599085 
L 887.073978 284.636936 
L 888.190418 282.678143 
L 889.304915 280.722716 
L 890.417441 278.770669 
L 891.52797 276.822013 
L 892.636475 274.87676 
L 893.742929 272.934919 
L 894.847306 270.996501 
L 895.949581 269.061515 
L 897.049728 267.129971 
L 898.147724 265.201877 
L 899.243542 263.277241 
L 900.33716 261.35607 
L 901.428553 259.438371 
L 902.5177 257.52415 
L 903.604576 255.613413 
L 904.68916 253.706163 
L 905.771431 251.802406 
L 906.851367 249.902144 
L 907.928949 248.005379 
L 909.004156 246.112114 
L 910.076969 244.222347 
L 911.14737 242.33608 
L 912.215342 240.453309 
L 913.280867 238.574033 
L 914.343929 236.698247 
L 915.404514 234.825945 
L 916.462608 232.957122 
L 917.518196 231.091767 
L 918.571268 229.229873 
L 919.621811 227.371427 
L 920.669815 225.516416 
L 921.715273 223.664826 
L 922.758175 221.816639 
" clip-path="url(#pa033727558)" style="fill: none; stroke: #ff0000; stroke-width: 1.5; stroke-linecap: square"/>
   </g>
   <g id="line2d_61">
    <path d="M 922.758175 221.816639 
L 912.08548 221.992513 
L 901.878566 222.164891 
L 892.116967 222.333839 
L 882.781025 222.49942 
L 873.851714 222.661699 
L 865.437893 222.818334 
L 865.287336 222.820738 
L 855.523736 222.976598 
L 845.982347 223.129339 
L 836.657794 223.27902 
L 827.544846 223.425701 
L 818.638406 223.569437 
L 809.933516 223.710286 
L 801.425343 223.848302 
L 793.109185 223.983541 
L 784.980458 224.116055 
L 777.0347 224.245897 
L 769.267565 224.373118 
L 761.674816 224.49777 
L 754.252329 224.619902 
L 746.996082 224.739563 
L 739.902159 224.8568 
L 732.966742 224.971662 
L 726.18611 225.084194 
L 719.556638 225.194443 
L 713.074792 225.302452 
L 706.737125 225.408265 
L 700.54028 225.511927 
L 694.480983 225.613478 
L 688.55604 225.712961 
L 682.762339 225.810416 
L 677.096844 225.905883 
L 671.556595 225.999402 
L 666.138706 226.091011 
L 660.84036 226.180748 
L 655.658811 226.268651 
L 650.59138 226.354754 
L 645.635453 226.439096 
L 640.788482 226.521709 
L 636.047979 226.60263 
L 631.411516 226.681891 
L 626.876725 226.759527 
L 622.441296 226.835568 
L 618.102974 226.910048 
L 613.859557 226.982998 
L 609.708898 227.054447 
L 605.648901 227.124428 
L 601.677519 227.192968 
L 597.792754 227.260097 
L 593.992658 227.325843 
L 590.275325 227.390235 
L 586.638899 227.4533 
L 583.081564 227.515063 
L 579.601548 227.575553 
L 576.197123 227.634794 
L 572.866599 227.692812 
L 569.608326 227.749631 
L 566.420694 227.805276 
L 563.302128 227.859771 
L 560.251094 227.913139 
L 557.26609 227.965403 
L 554.345651 228.016585 
L 551.488344 228.066708 
L 548.692772 228.115792 
L 545.957567 228.16386 
L 543.281396 228.210932 
L 540.662954 228.257028 
L 538.100967 228.302169 
L 535.594192 228.346373 
L 533.141411 228.389659 
L 530.741437 228.432048 
L 528.393109 228.473556 
L 526.095291 228.514203 
L 523.846876 228.554005 
L 521.64678 228.59298 
L 519.493944 228.631146 
L 517.387334 228.668518 
L 515.325938 228.705113 
L 513.308767 228.740946 
L 511.334856 228.776035 
L 509.403261 228.810393 
L 507.513057 228.844036 
L 505.663344 228.876979 
L 503.85324 228.909235 
L 502.081881 228.94082 
L 500.348426 228.971747 
L 498.65205 229.00203 
L 496.991948 229.031682 
L 495.367333 229.060715 
L 493.777434 229.089143 
L 492.2215 229.116979 
L 490.698793 229.144234 
L 489.208595 229.17092 
L 487.750202 229.197049 
L 486.322926 229.222634 
L 484.926094 229.247684 
L 483.559048 229.272212 
L 482.221145 229.296227 
L 481.557326 229.308142 
L 473.055442 229.319741 
L 454.910391 229.342764 
" clip-path="url(#pa033727558)" style="fill: none; stroke: #ff0000; stroke-width: 1.5; stroke-linecap: square"/>
   </g>
   <g id="line2d_62">
    <path d="M 454.910391 405.07243 
L 457.155911 405.15585 
L 459.423294 405.240222 
L 461.712723 405.325557 
L 464.024382 405.411868 
L 466.358455 405.499165 
L 468.715127 405.587461 
L 471.094584 405.676768 
L 473.497013 405.767098 
L 475.922601 405.858462 
L 478.371536 405.950875 
L 480.844006 406.044348 
L 483.340202 406.138895 
L 485.860312 406.234527 
L 488.404527 406.331259 
L 490.973038 406.429105 
L 493.566037 406.528076 
L 496.183715 406.628188 
L 498.826266 406.729454 
L 501.493881 406.831888 
L 504.186755 406.935505 
L 506.905081 407.040319 
L 509.649052 407.146345 
L 512.418864 407.253597 
L 515.214711 407.362091 
L 518.036787 407.471843 
L 520.885287 407.582867 
L 523.760408 407.695179 
L 526.662343 407.808795 
L 529.591288 407.923732 
L 532.547439 408.040006 
L 535.530991 408.157634 
L 538.542138 408.276631 
L 541.581077 408.397017 
L 544.648001 408.518807 
L 547.743105 408.642019 
L 550.866585 408.766672 
L 554.018633 408.892783 
L 557.199444 409.02037 
L 560.40921 409.149453 
L 563.648124 409.28005 
L 566.916379 409.41218 
L 570.214165 409.545862 
L 573.541673 409.681117 
L 576.899093 409.817965 
L 580.286613 409.956424 
L 583.704423 410.096517 
L 587.152709 410.238264 
L 590.631656 410.381686 
L 594.14145 410.526804 
L 597.682274 410.673641 
L 601.25431 410.822218 
L 604.857739 410.972558 
L 608.492739 411.124684 
L 612.159489 411.278618 
L 615.858165 411.434385 
L 619.588939 411.592007 
L 623.351984 411.75151 
L 627.14747 411.912917 
L 630.975566 412.076253 
L 634.836435 412.241544 
L 638.730243 412.408816 
L 642.657148 412.578093 
L 646.617311 412.749404 
L 650.610885 412.922774 
L 654.638023 413.098231 
L 658.698875 413.275803 
L 662.793588 413.455517 
L 666.922303 413.637403 
L 671.085161 413.821488 
L 675.282298 414.007803 
L 679.513846 414.196377 
L 683.779933 414.387241 
L 688.080684 414.580426 
L 692.416219 414.775963 
L 696.786654 414.973883 
L 701.1921 415.17422 
L 705.632663 415.377005 
L 710.108444 415.582273 
L 714.619541 415.790057 
L 719.166044 416.000392 
L 723.748039 416.213313 
L 728.365605 416.428855 
L 733.018816 416.647054 
L 737.70774 416.867949 
L 742.432439 417.091574 
L 747.192966 417.31797 
L 751.98937 417.547174 
L 756.821691 417.779226 
L 761.689963 418.014166 
L 766.594211 418.252034 
L 771.534453 418.492872 
L 776.5107 418.736722 
L 781.522951 418.983626 
L 786.571201 419.233629 
L 791.655431 419.486774 
L 796.542837 419.730412 
L 796.74715 419.743106 
L 801.292388 420.002672 
L 805.905174 420.265517 
L 810.586095 420.531689 
" clip-path="url(#pa033727558)" style="fill: none; stroke: #ff0000; stroke-width: 1.5; stroke-linecap: square"/>
   </g>
   <g id="patch_3">
    <path d="M 36.012685 692.12 
L 36.012685 16.416 
" style="fill: none; stroke: #000000; stroke-width: 0.8; stroke-linejoin: miter; stroke-linecap: square"/>
   </g>
   <g id="patch_4">
    <path d="M 1131.705 692.12 
L 1131.705 16.416 
" style="fill: none; stroke: #000000; stroke-width: 0.8; stroke-linejoin: miter; stroke-linecap: square"/>
   </g>
   <g id="patch_5">
    <path d="M 36.012685 692.12 
L 1131.705 692.12 
" style="fill: none; stroke: #000000; stroke-width: 0.8; stroke-linejoin: miter; stroke-linecap: square"/>
   </g>
   <g id="patch_6">
    <path d="M 36.012685 16.416 
L 1131.705 16.416 
" style="fill: none; stroke: #000000; stroke-width: 0.8; stroke-linejoin: miter; stroke-linecap: square"/>
   </g>
   <g id="text_12">
    <g id="patch_7">
     <path d="M 310.172633 118.869382 
L 316.032346 97.871673 
L 308.182285 95.681001 
L 302.322572 116.678709 
z
" style="fill: #ffffff; stroke: #ffffff; stroke-linejoin: miter"/>
    </g>
    <!-- 0.002 $\frac{m^3}{kg}$ -->
    <g transform="translate(307.475679 118.116758) rotate(-74.407474) scale(0.05 -0.05)">
     <defs>
      <path id="DejaVuSans-2e" d="M 684 794 
L 1344 794 
L 1344 0 
L 684 0 
L 684 794 
z
" transform="scale(0.015625)"/>
      <path id="DejaVuSans-20" transform="scale(0.015625)"/>
      <path id="DejaVuSans-Oblique-6d" d="M 5747 2113 
L 5338 0 
L 4763 0 
L 5166 2094 
Q 5191 2228 5203 2325 
Q 5216 2422 5216 2491 
Q 5216 2772 5059 2928 
Q 4903 3084 4622 3084 
Q 4203 3084 3875 2770 
Q 3547 2456 3450 1953 
L 3066 0 
L 2491 0 
L 2900 2094 
Q 2925 2209 2937 2307 
Q 2950 2406 2950 2484 
Q 2950 2769 2794 2926 
Q 2638 3084 2363 3084 
Q 1938 3084 1609 2770 
Q 1281 2456 1184 1953 
L 800 0 
L 225 0 
L 909 3500 
L 1484 3500 
L 1375 2956 
Q 1609 3263 1923 3423 
Q 2238 3584 2597 3584 
Q 2978 3584 3223 3384 
Q 3469 3184 3519 2828 
Q 3781 3197 4126 3390 
Q 4472 3584 4856 3584 
Q 5306 3584 5551 3325 
Q 5797 3066 5797 2591 
Q 5797 2488 5784 2364 
Q 5772 2241 5747 2113 
z
" transform="scale(0.015625)"/>
      <path id="DejaVuSans-Oblique-6b" d="M 1172 4863 
L 1747 4863 
L 1197 2028 
L 3169 3500 
L 3916 3500 
L 1716 1825 
L 3322 0 
L 2625 0 
L 1131 1709 
L 800 0 
L 225 0 
L 1172 4863 
z
" transform="scale(0.015625)"/>
      <path id="DejaVuSans-Oblique-67" d="M 3816 3500 
L 3219 434 
Q 3047 -456 2561 -893 
Q 2075 -1331 1253 -1331 
Q 950 -1331 690 -1286 
Q 431 -1241 206 -1147 
L 313 -588 
Q 525 -725 762 -790 
Q 1000 -856 1269 -856 
Q 1816 -856 2167 -557 
Q 2519 -259 2631 300 
L 2681 563 
Q 2441 288 2122 144 
Q 1803 0 1434 0 
Q 903 0 598 351 
Q 294 703 294 1319 
Q 294 1803 478 2267 
Q 663 2731 997 3091 
Q 1219 3328 1514 3456 
Q 1809 3584 2131 3584 
Q 2484 3584 2746 3420 
Q 3009 3256 3138 2956 
L 3238 3500 
L 3816 3500 
z
M 2950 2216 
Q 2950 2641 2750 2872 
Q 2550 3103 2181 3103 
Q 1953 3103 1747 3012 
Q 1541 2922 1394 2759 
Q 1156 2491 1023 2127 
Q 891 1763 891 1375 
Q 891 944 1092 712 
Q 1294 481 1672 481 
Q 2219 481 2584 976 
Q 2950 1472 2950 2216 
z
" transform="scale(0.015625)"/>
     </defs>
     <use xlink:href="#DejaVuSans-30" transform="translate(0 0.039062)"/>
     <use xlink:href="#DejaVuSans-2e" transform="translate(63.623047 0.039062)"/>
     <use xlink:href="#DejaVuSans-30" transform="translate(95.410156 0.039062)"/>
     <use xlink:href="#DejaVuSans-30" transform="translate(159.033203 0.039062)"/>
     <use xlink:href="#DejaVuSans-32" transform="translate(222.65625 0.039062)"/>
     <use xlink:href="#DejaVuSans-20" transform="translate(286.279297 0.039062)"/>
     <use xlink:href="#DejaVuSans-Oblique-6d" transform="translate(318.066406 43.835938) scale(0.7)"/>
     <use xlink:href="#DejaVuSans-33" transform="translate(389.50981 70.632812) scale(0.49)"/>
     <use xlink:href="#DejaVuSans-Oblique-6b" transform="translate(328.066406 -40.603125) scale(0.7)"/>
     <use xlink:href="#DejaVuSans-Oblique-67" transform="translate(368.603516 -40.603125) scale(0.7)"/>
     <path d="M 318.066406 18.835938 
L 318.066406 25.085938 
L 422.599165 25.085938 
L 422.599165 18.835938 
L 318.066406 18.835938 
z
"/>
    </g>
   </g>
   <g id="text_13">
    <g id="patch_8">
     <path d="M 828.553037 115.723416 
L 848.137914 106.148836 
L 844.558427 98.826966 
L 824.97355 108.401547 
z
" style="fill: #ffffff; stroke: #ffffff; stroke-linejoin: miter"/>
    </g>
    <!-- 0.005 $\frac{m^3}{kg}$ -->
    <g transform="translate(827.323275 113.207927) rotate(-26.052909) scale(0.05 -0.05)">
     <use xlink:href="#DejaVuSans-30" transform="translate(0 0.039062)"/>
     <use xlink:href="#DejaVuSans-2e" transform="translate(63.623047 0.039062)"/>
     <use xlink:href="#DejaVuSans-30" transform="translate(95.410156 0.039062)"/>
     <use xlink:href="#DejaVuSans-30" transform="translate(159.033203 0.039062)"/>
     <use xlink:href="#DejaVuSans-35" transform="translate(222.65625 0.039062)"/>
     <use xlink:href="#DejaVuSans-20" transform="translate(286.279297 0.039062)"/>
     <use xlink:href="#DejaVuSans-Oblique-6d" transform="translate(318.066406 43.835938) scale(0.7)"/>
     <use xlink:href="#DejaVuSans-33" transform="translate(389.50981 70.632812) scale(0.49)"/>
     <use xlink:href="#DejaVuSans-Oblique-6b" transform="translate(328.066406 -40.603125) scale(0.7)"/>
     <use xlink:href="#DejaVuSans-Oblique-67" transform="translate(368.603516 -40.603125) scale(0.7)"/>
     <path d="M 318.066406 18.835938 
L 318.066406 25.085938 
L 422.599165 25.085938 
L 422.599165 18.835938 
L 318.066406 18.835938 
z
"/>
    </g>
   </g>
   <g id="text_14">
    <g id="patch_9">
     <path d="M 866.508602 173.157654 
L 884.066366 167.018848 
L 881.376513 159.325527 
L 863.81875 165.464333 
z
" style="fill: #ffffff; stroke: #ffffff; stroke-linejoin: miter"/>
    </g>
    <!-- 0.01 $\frac{m^3}{kg}$ -->
    <g transform="translate(865.584481 170.51455) rotate(-19.271404) scale(0.05 -0.05)">
     <use xlink:href="#DejaVuSans-30" transform="translate(0 0.039062)"/>
     <use xlink:href="#DejaVuSans-2e" transform="translate(63.623047 0.039062)"/>
     <use xlink:href="#DejaVuSans-30" transform="translate(95.410156 0.039062)"/>
     <use xlink:href="#DejaVuSans-31" transform="translate(159.033203 0.039062)"/>
     <use xlink:href="#DejaVuSans-20" transform="translate(222.65625 0.039062)"/>
     <use xlink:href="#DejaVuSans-Oblique-6d" transform="translate(254.443359 43.835938) scale(0.7)"/>
     <use xlink:href="#DejaVuSans-33" transform="translate(325.886763 70.632812) scale(0.49)"/>
     <use xlink:href="#DejaVuSans-Oblique-6b" transform="translate(264.443359 -40.603125) scale(0.7)"/>
     <use xlink:href="#DejaVuSans-Oblique-67" transform="translate(304.980469 -40.603125) scale(0.7)"/>
     <path d="M 254.443359 18.835938 
L 254.443359 25.085938 
L 358.976118 25.085938 
L 358.976118 18.835938 
L 254.443359 18.835938 
z
"/>
    </g>
   </g>
   <g id="text_15">
    <g id="patch_10">
     <path d="M 521.493149 356.088375 
L 538.502998 348.563414 
L 535.20577 341.110174 
L 518.195921 348.635135 
z
" style="fill: #ffffff; stroke: #ffffff; stroke-linejoin: miter"/>
    </g>
    <!-- 0.02 $\frac{m^3}{kg}$ -->
    <g transform="translate(520.360359 353.527753) rotate(-23.864047) scale(0.05 -0.05)">
     <use xlink:href="#DejaVuSans-30" transform="translate(0 0.039062)"/>
     <use xlink:href="#DejaVuSans-2e" transform="translate(63.623047 0.039062)"/>
     <use xlink:href="#DejaVuSans-30" transform="translate(95.410156 0.039062)"/>
     <use xlink:href="#DejaVuSans-32" transform="translate(159.033203 0.039062)"/>
     <use xlink:href="#DejaVuSans-20" transform="translate(222.65625 0.039062)"/>
     <use xlink:href="#DejaVuSans-Oblique-6d" transform="translate(254.443359 43.835938) scale(0.7)"/>
     <use xlink:href="#DejaVuSans-33" transform="translate(325.886763 70.632812) scale(0.49)"/>
     <use xlink:href="#DejaVuSans-Oblique-6b" transform="translate(264.443359 -40.603125) scale(0.7)"/>
     <use xlink:href="#DejaVuSans-Oblique-67" transform="translate(304.980469 -40.603125) scale(0.7)"/>
     <path d="M 254.443359 18.835938 
L 254.443359 25.085938 
L 358.976118 25.085938 
L 358.976118 18.835938 
L 254.443359 18.835938 
z
"/>
    </g>
   </g>
   <g id="text_16">
    <g id="patch_11">
     <path d="M 616.216688 424.994816 
L 633.850305 419.077422 
L 631.257468 411.350864 
L 613.623851 417.268258 
z
" style="fill: #ffffff; stroke: #ffffff; stroke-linejoin: miter"/>
    </g>
    <!-- 0.05 $\frac{m^3}{kg}$ -->
    <g transform="translate(615.325897 422.340293) rotate(-18.550446) scale(0.05 -0.05)">
     <use xlink:href="#DejaVuSans-30" transform="translate(0 0.039062)"/>
     <use xlink:href="#DejaVuSans-2e" transform="translate(63.623047 0.039062)"/>
     <use xlink:href="#DejaVuSans-30" transform="translate(95.410156 0.039062)"/>
     <use xlink:href="#DejaVuSans-35" transform="translate(159.033203 0.039062)"/>
     <use xlink:href="#DejaVuSans-20" transform="translate(222.65625 0.039062)"/>
     <use xlink:href="#DejaVuSans-Oblique-6d" transform="translate(254.443359 43.835938) scale(0.7)"/>
     <use xlink:href="#DejaVuSans-33" transform="translate(325.886763 70.632812) scale(0.49)"/>
     <use xlink:href="#DejaVuSans-Oblique-6b" transform="translate(264.443359 -40.603125) scale(0.7)"/>
     <use xlink:href="#DejaVuSans-Oblique-67" transform="translate(304.980469 -40.603125) scale(0.7)"/>
     <path d="M 254.443359 18.835938 
L 254.443359 25.085938 
L 358.976118 25.085938 
L 358.976118 18.835938 
L 254.443359 18.835938 
z
"/>
    </g>
   </g>
   <g id="text_17">
    <g id="patch_12">
     <path d="M 693.217933 493.743097 
L 708.049901 489.599098 
L 705.856811 481.749713 
L 691.024843 485.893712 
z
" style="fill: #ffffff; stroke: #ffffff; stroke-linejoin: miter"/>
    </g>
    <!-- 0.1 $\frac{m^3}{kg}$ -->
    <g transform="translate(692.464479 491.046376) rotate(-15.610175) scale(0.05 -0.05)">
     <use xlink:href="#DejaVuSans-30" transform="translate(0 0.039062)"/>
     <use xlink:href="#DejaVuSans-2e" transform="translate(63.623047 0.039062)"/>
     <use xlink:href="#DejaVuSans-31" transform="translate(95.410156 0.039062)"/>
     <use xlink:href="#DejaVuSans-20" transform="translate(159.033203 0.039062)"/>
     <use xlink:href="#DejaVuSans-Oblique-6d" transform="translate(190.820312 43.835938) scale(0.7)"/>
     <use xlink:href="#DejaVuSans-33" transform="translate(262.263716 70.632812) scale(0.49)"/>
     <use xlink:href="#DejaVuSans-Oblique-6b" transform="translate(200.820312 -40.603125) scale(0.7)"/>
     <use xlink:href="#DejaVuSans-Oblique-67" transform="translate(241.357422 -40.603125) scale(0.7)"/>
     <path d="M 190.820312 18.835938 
L 190.820312 25.085938 
L 295.353072 25.085938 
L 295.353072 18.835938 
L 190.820312 18.835938 
z
"/>
    </g>
   </g>
   <g id="text_18">
    <g id="patch_13">
     <path d="M 732.168849 581.632663 
L 746.909656 578.135363 
L 745.028271 570.20549 
L 730.287464 573.70279 
z
" style="fill: #ffffff; stroke: #ffffff; stroke-linejoin: miter"/>
    </g>
    <!-- 0.2 $\frac{m^3}{kg}$ -->
    <g transform="translate(731.522484 578.90829) rotate(-13.34682) scale(0.05 -0.05)">
     <use xlink:href="#DejaVuSans-30" transform="translate(0 0.039062)"/>
     <use xlink:href="#DejaVuSans-2e" transform="translate(63.623047 0.039062)"/>
     <use xlink:href="#DejaVuSans-32" transform="translate(89.910156 0.039062)"/>
     <use xlink:href="#DejaVuSans-20" transform="translate(153.533203 0.039062)"/>
     <use xlink:href="#DejaVuSans-Oblique-6d" transform="translate(185.320312 43.835938) scale(0.7)"/>
     <use xlink:href="#DejaVuSans-33" transform="translate(256.763716 70.632812) scale(0.49)"/>
     <use xlink:href="#DejaVuSans-Oblique-6b" transform="translate(195.320312 -40.603125) scale(0.7)"/>
     <use xlink:href="#DejaVuSans-Oblique-67" transform="translate(235.857422 -40.603125) scale(0.7)"/>
     <path d="M 185.320312 18.835938 
L 185.320312 25.085938 
L 289.853072 25.085938 
L 289.853072 18.835938 
L 185.320312 18.835938 
z
"/>
    </g>
   </g>
   <g id="text_19">
    <g id="patch_14">
     <path d="M 638.184735 590.342253 
L 658.701923 590.342253 
L 658.701923 585.503191 
L 638.184735 585.503191 
z
" style="fill: #ffffff; stroke: #ffffff; stroke-linejoin: miter"/>
    </g>
    <!-- -25.0 C -->
    <g transform="translate(638.184735 589.30241) rotate(-0) scale(0.05 -0.05)">
     <defs>
      <path id="DejaVuSans-2d" d="M 313 2009 
L 1997 2009 
L 1997 1497 
L 313 1497 
L 313 2009 
z
" transform="scale(0.015625)"/>
      <path id="DejaVuSans-b0" d="M 1600 4347 
Q 1350 4347 1178 4173 
Q 1006 4000 1006 3750 
Q 1006 3503 1178 3333 
Q 1350 3163 1600 3163 
Q 1850 3163 2022 3333 
Q 2194 3503 2194 3750 
Q 2194 3997 2020 4172 
Q 1847 4347 1600 4347 
z
M 1600 4750 
Q 1800 4750 1984 4673 
Q 2169 4597 2303 4453 
Q 2447 4313 2519 4134 
Q 2591 3956 2591 3750 
Q 2591 3338 2302 3052 
Q 2013 2766 1594 2766 
Q 1172 2766 890 3047 
Q 609 3328 609 3750 
Q 609 4169 896 4459 
Q 1184 4750 1600 4750 
z
" transform="scale(0.015625)"/>
      <path id="DejaVuSans-43" d="M 4122 4306 
L 4122 3641 
Q 3803 3938 3442 4084 
Q 3081 4231 2675 4231 
Q 1875 4231 1450 3742 
Q 1025 3253 1025 2328 
Q 1025 1406 1450 917 
Q 1875 428 2675 428 
Q 3081 428 3442 575 
Q 3803 722 4122 1019 
L 4122 359 
Q 3791 134 3420 21 
Q 3050 -91 2638 -91 
Q 1578 -91 968 557 
Q 359 1206 359 2328 
Q 359 3453 968 4101 
Q 1578 4750 2638 4750 
Q 3056 4750 3426 4639 
Q 3797 4528 4122 4306 
z
" transform="scale(0.015625)"/>
     </defs>
     <use xlink:href="#DejaVuSans-2d"/>
     <use xlink:href="#DejaVuSans-32" x="36.083984"/>
     <use xlink:href="#DejaVuSans-35" x="99.707031"/>
     <use xlink:href="#DejaVuSans-2e" x="163.330078"/>
     <use xlink:href="#DejaVuSans-30" x="195.117188"/>
     <use xlink:href="#DejaVuSans-20" x="258.740234"/>
     <use xlink:href="#DejaVuSans-b0" x="290.527344"/>
     <use xlink:href="#DejaVuSans-43" x="340.527344"/>
    </g>
   </g>
   <g id="text_20">
    <g id="patch_15">
     <path d="M 771.542576 466.084902 
L 787.074607 466.084902 
L 787.074607 461.24584 
L 771.542576 461.24584 
z
" style="fill: #ffffff; stroke: #ffffff; stroke-linejoin: miter"/>
    </g>
    <!-- 0.0 C -->
    <g transform="translate(771.542576 465.045059) rotate(-360) scale(0.05 -0.05)">
     <use xlink:href="#DejaVuSans-30"/>
     <use xlink:href="#DejaVuSans-2e" x="63.623047"/>
     <use xlink:href="#DejaVuSans-30" x="95.410156"/>
     <use xlink:href="#DejaVuSans-20" x="159.033203"/>
     <use xlink:href="#DejaVuSans-b0" x="190.820312"/>
     <use xlink:href="#DejaVuSans-43" x="240.820312"/>
    </g>
   </g>
   <g id="text_21">
    <g id="patch_16">
     <path d="M 838.518906 428.224838 
L 842.880638 446.422701 
L 847.586418 445.294802 
L 843.224687 427.096939 
z
" style="fill: #ffffff; stroke: #ffffff; stroke-linejoin: miter"/>
    </g>
    <!-- 25.0 C -->
    <g transform="translate(839.53011 427.982469) rotate(-283.478597) scale(0.05 -0.05)">
     <use xlink:href="#DejaVuSans-32"/>
     <use xlink:href="#DejaVuSans-35" x="63.623047"/>
     <use xlink:href="#DejaVuSans-2e" x="127.246094"/>
     <use xlink:href="#DejaVuSans-30" x="159.033203"/>
     <use xlink:href="#DejaVuSans-20" x="222.65625"/>
     <use xlink:href="#DejaVuSans-b0" x="254.443359"/>
     <use xlink:href="#DejaVuSans-43" x="304.443359"/>
    </g>
   </g>
   <g id="text_22">
    <g id="patch_17">
     <path d="M 911.243738 427.702503 
L 914.708558 446.092226 
L 919.463952 445.196259 
L 915.999131 426.806536 
z
" style="fill: #ffffff; stroke: #ffffff; stroke-linejoin: miter"/>
    </g>
    <!-- 50.0 C -->
    <g transform="translate(912.265602 427.509973) rotate(-280.670055) scale(0.05 -0.05)">
     <use xlink:href="#DejaVuSans-35"/>
     <use xlink:href="#DejaVuSans-30" x="63.623047"/>
     <use xlink:href="#DejaVuSans-2e" x="127.246094"/>
     <use xlink:href="#DejaVuSans-30" x="159.033203"/>
     <use xlink:href="#DejaVuSans-20" x="222.65625"/>
     <use xlink:href="#DejaVuSans-b0" x="254.443359"/>
     <use xlink:href="#DejaVuSans-43" x="304.443359"/>
    </g>
   </g>
   <g id="text_23">
    <g id="patch_18">
     <path d="M 987.363867 430.949896 
L 990.144636 449.455415 
L 994.929973 448.736337 
L 992.149204 430.230818 
z
" style="fill: #ffffff; stroke: #ffffff; stroke-linejoin: miter"/>
    </g>
    <!-- 75.0 C -->
    <g transform="translate(988.392166 430.795377) rotate(-278.545727) scale(0.05 -0.05)">
     <use xlink:href="#DejaVuSans-37"/>
     <use xlink:href="#DejaVuSans-35" x="63.623047"/>
     <use xlink:href="#DejaVuSans-2e" x="127.246094"/>
     <use xlink:href="#DejaVuSans-30" x="159.033203"/>
     <use xlink:href="#DejaVuSans-20" x="222.65625"/>
     <use xlink:href="#DejaVuSans-b0" x="254.443359"/>
     <use xlink:href="#DejaVuSans-43" x="304.443359"/>
    </g>
   </g>
   <g id="text_24">
    <g id="patch_19">
     <path d="M 1066.897059 435.467953 
L 1069.528246 457.203807 
L 1074.332238 456.62227 
L 1071.701052 434.886416 
z
" style="fill: #ffffff; stroke: #ffffff; stroke-linejoin: miter"/>
    </g>
    <!-- 100.0 C -->
    <g transform="translate(1067.929367 435.342989) rotate(-276.902232) scale(0.05 -0.05)">
     <use xlink:href="#DejaVuSans-31"/>
     <use xlink:href="#DejaVuSans-30" x="63.623047"/>
     <use xlink:href="#DejaVuSans-30" x="127.246094"/>
     <use xlink:href="#DejaVuSans-2e" x="190.869141"/>
     <use xlink:href="#DejaVuSans-30" x="222.65625"/>
     <use xlink:href="#DejaVuSans-20" x="286.279297"/>
     <use xlink:href="#DejaVuSans-b0" x="318.066406"/>
     <use xlink:href="#DejaVuSans-43" x="368.066406"/>
    </g>
   </g>
   <g id="text_25">
    <g id="patch_20">
     <path d="M 1079.978693 198.752301 
L 1092.851382 216.462873 
L 1096.765718 213.61779 
L 1083.893029 195.907218 
z
" style="fill: #ffffff; stroke: #ffffff; stroke-linejoin: miter"/>
    </g>
    <!-- 125.0 C -->
    <g transform="translate(1080.819826 198.140934) rotate(-306.01102) scale(0.05 -0.05)">
     <use xlink:href="#DejaVuSans-31"/>
     <use xlink:href="#DejaVuSans-32" x="63.623047"/>
     <use xlink:href="#DejaVuSans-35" x="127.246094"/>
     <use xlink:href="#DejaVuSans-2e" x="190.869141"/>
     <use xlink:href="#DejaVuSans-30" x="222.65625"/>
     <use xlink:href="#DejaVuSans-20" x="286.279297"/>
     <use xlink:href="#DejaVuSans-b0" x="318.066406"/>
     <use xlink:href="#DejaVuSans-43" x="368.066406"/>
    </g>
   </g>
   <g id="text_26">
    <g id="patch_21">
     <path d="M 295.212638 587.165841 
L 301.642126 539.043453 
L 293.46479 537.950904 
L 287.035302 586.073291 
z
" style="fill: #ffffff; stroke: #ffffff; stroke-linejoin: miter"/>
    </g>
    <!-- 1266.36167302 $\frac{J}{kgK}$ -->
    <g transform="translate(292.4373 586.795036) rotate(-82.389951) scale(0.05 -0.05)">
     <defs>
      <path id="DejaVuSans-Oblique-4a" d="M 1069 4666 
L 1703 4666 
L 856 325 
Q 691 -522 298 -901 
Q -94 -1281 -800 -1281 
L -1050 -1281 
L -947 -750 
L -750 -750 
Q -328 -750 -109 -509 
Q 109 -269 225 325 
L 1069 4666 
z
" transform="scale(0.015625)"/>
      <path id="DejaVuSans-Oblique-4b" d="M 1081 4666 
L 1716 4666 
L 1331 2700 
L 3781 4666 
L 4622 4666 
L 1850 2438 
L 3878 0 
L 3109 0 
L 1247 2272 
L 806 0 
L 172 0 
L 1081 4666 
z
" transform="scale(0.015625)"/>
     </defs>
     <use xlink:href="#DejaVuSans-31" transform="translate(0 0.157813)"/>
     <use xlink:href="#DejaVuSans-32" transform="translate(63.623047 0.157813)"/>
     <use xlink:href="#DejaVuSans-36" transform="translate(127.246094 0.157813)"/>
     <use xlink:href="#DejaVuSans-36" transform="translate(190.869141 0.157813)"/>
     <use xlink:href="#DejaVuSans-2e" transform="translate(254.492188 0.157813)"/>
     <use xlink:href="#DejaVuSans-33" transform="translate(286.279297 0.157813)"/>
     <use xlink:href="#DejaVuSans-36" transform="translate(349.902344 0.157813)"/>
     <use xlink:href="#DejaVuSans-31" transform="translate(413.525391 0.157813)"/>
     <use xlink:href="#DejaVuSans-36" transform="translate(477.148438 0.157813)"/>
     <use xlink:href="#DejaVuSans-37" transform="translate(540.771484 0.157813)"/>
     <use xlink:href="#DejaVuSans-33" transform="translate(604.394531 0.157813)"/>
     <use xlink:href="#DejaVuSans-30" transform="translate(668.017578 0.157813)"/>
     <use xlink:href="#DejaVuSans-32" transform="translate(731.640625 0.157813)"/>
     <use xlink:href="#DejaVuSans-20" transform="translate(795.263672 0.157813)"/>
     <use xlink:href="#DejaVuSans-Oblique-4a" transform="translate(882.050781 57.965625) scale(0.7)"/>
     <use xlink:href="#DejaVuSans-Oblique-6b" transform="translate(827.050781 -40.484375) scale(0.7)"/>
     <use xlink:href="#DejaVuSans-Oblique-67" transform="translate(867.587891 -40.484375) scale(0.7)"/>
     <use xlink:href="#DejaVuSans-Oblique-4b" transform="translate(912.021484 -40.484375) scale(0.7)"/>
     <path d="M 827.050781 18.954688 
L 827.050781 25.204688 
L 957.924805 25.204688 
L 957.924805 18.954688 
L 827.050781 18.954688 
z
"/>
    </g>
   </g>
   <g id="text_27">
    <g id="patch_22">
     <path d="M 558.979342 565.401384 
L 574.263489 519.425332 
L 566.43475 516.822769 
L 551.150602 562.79882 
z
" style="fill: #ffffff; stroke: #ffffff; stroke-linejoin: miter"/>
    </g>
    <!-- 1926.36167302 $\frac{J}{kgK}$ -->
    <g transform="translate(556.322315 564.51809) rotate(-71.611276) scale(0.05 -0.05)">
     <defs>
      <path id="DejaVuSans-39" d="M 703 97 
L 703 672 
Q 941 559 1184 500 
Q 1428 441 1663 441 
Q 2288 441 2617 861 
Q 2947 1281 2994 2138 
Q 2813 1869 2534 1725 
Q 2256 1581 1919 1581 
Q 1219 1581 811 2004 
Q 403 2428 403 3163 
Q 403 3881 828 4315 
Q 1253 4750 1959 4750 
Q 2769 4750 3195 4129 
Q 3622 3509 3622 2328 
Q 3622 1225 3098 567 
Q 2575 -91 1691 -91 
Q 1453 -91 1209 -44 
Q 966 3 703 97 
z
M 1959 2075 
Q 2384 2075 2632 2365 
Q 2881 2656 2881 3163 
Q 2881 3666 2632 3958 
Q 2384 4250 1959 4250 
Q 1534 4250 1286 3958 
Q 1038 3666 1038 3163 
Q 1038 2656 1286 2365 
Q 1534 2075 1959 2075 
z
" transform="scale(0.015625)"/>
     </defs>
     <use xlink:href="#DejaVuSans-31" transform="translate(0 0.157813)"/>
     <use xlink:href="#DejaVuSans-39" transform="translate(63.623047 0.157813)"/>
     <use xlink:href="#DejaVuSans-32" transform="translate(125.496094 0.157813)"/>
     <use xlink:href="#DejaVuSans-36" transform="translate(189.119141 0.157813)"/>
     <use xlink:href="#DejaVuSans-2e" transform="translate(252.742188 0.157813)"/>
     <use xlink:href="#DejaVuSans-33" transform="translate(284.529297 0.157813)"/>
     <use xlink:href="#DejaVuSans-36" transform="translate(348.152344 0.157813)"/>
     <use xlink:href="#DejaVuSans-31" transform="translate(411.775391 0.157813)"/>
     <use xlink:href="#DejaVuSans-36" transform="translate(475.398438 0.157813)"/>
     <use xlink:href="#DejaVuSans-37" transform="translate(539.021484 0.157813)"/>
     <use xlink:href="#DejaVuSans-33" transform="translate(602.644531 0.157813)"/>
     <use xlink:href="#DejaVuSans-30" transform="translate(666.267578 0.157813)"/>
     <use xlink:href="#DejaVuSans-32" transform="translate(729.890625 0.157813)"/>
     <use xlink:href="#DejaVuSans-20" transform="translate(793.513672 0.157813)"/>
     <use xlink:href="#DejaVuSans-Oblique-4a" transform="translate(880.300781 57.965625) scale(0.7)"/>
     <use xlink:href="#DejaVuSans-Oblique-6b" transform="translate(825.300781 -40.484375) scale(0.7)"/>
     <use xlink:href="#DejaVuSans-Oblique-67" transform="translate(865.837891 -40.484375) scale(0.7)"/>
     <use xlink:href="#DejaVuSans-Oblique-4b" transform="translate(910.271484 -40.484375) scale(0.7)"/>
     <path d="M 825.300781 18.954688 
L 825.300781 25.204688 
L 956.174805 25.204688 
L 956.174805 18.954688 
L 825.300781 18.954688 
z
"/>
    </g>
   </g>
   <g id="text_28">
    <g id="patch_23">
     <path d="M 825.596305 562.837796 
L 849.14123 520.379121 
L 841.926316 516.378181 
L 818.381391 558.836856 
z
" style="fill: #ffffff; stroke: #ffffff; stroke-linejoin: miter"/>
    </g>
    <!-- 2586.36167302 $\frac{J}{kgK}$ -->
    <g transform="translate(823.147607 561.479901) rotate(-60.989991) scale(0.05 -0.05)">
     <use xlink:href="#DejaVuSans-32" transform="translate(0 0.157813)"/>
     <use xlink:href="#DejaVuSans-35" transform="translate(63.623047 0.157813)"/>
     <use xlink:href="#DejaVuSans-38" transform="translate(127.246094 0.157813)"/>
     <use xlink:href="#DejaVuSans-36" transform="translate(190.869141 0.157813)"/>
     <use xlink:href="#DejaVuSans-2e" transform="translate(254.492188 0.157813)"/>
     <use xlink:href="#DejaVuSans-33" transform="translate(286.279297 0.157813)"/>
     <use xlink:href="#DejaVuSans-36" transform="translate(349.902344 0.157813)"/>
     <use xlink:href="#DejaVuSans-31" transform="translate(413.525391 0.157813)"/>
     <use xlink:href="#DejaVuSans-36" transform="translate(477.148438 0.157813)"/>
     <use xlink:href="#DejaVuSans-37" transform="translate(540.771484 0.157813)"/>
     <use xlink:href="#DejaVuSans-33" transform="translate(604.394531 0.157813)"/>
     <use xlink:href="#DejaVuSans-30" transform="translate(668.017578 0.157813)"/>
     <use xlink:href="#DejaVuSans-32" transform="translate(731.640625 0.157813)"/>
     <use xlink:href="#DejaVuSans-20" transform="translate(795.263672 0.157813)"/>
     <use xlink:href="#DejaVuSans-Oblique-4a" transform="translate(882.050781 57.965625) scale(0.7)"/>
     <use xlink:href="#DejaVuSans-Oblique-6b" transform="translate(827.050781 -40.484375) scale(0.7)"/>
     <use xlink:href="#DejaVuSans-Oblique-67" transform="translate(867.587891 -40.484375) scale(0.7)"/>
     <use xlink:href="#DejaVuSans-Oblique-4b" transform="translate(912.021484 -40.484375) scale(0.7)"/>
     <path d="M 827.050781 18.954688 
L 827.050781 25.204688 
L 957.924805 25.204688 
L 957.924805 18.954688 
L 827.050781 18.954688 
z
"/>
    </g>
   </g>
   <g id="text_29">
    <g id="patch_24">
     <path d="M 347.516932 321.002081 
L 356.377116 313.9172 
L 353.355027 310.137848 
L 344.494843 317.222729 
z
" style="fill: #ffffff; stroke: #ffffff; stroke-linejoin: miter"/>
    </g>
    <!-- 0.0 - -->
    <g transform="translate(346.86753 320.189953) rotate(-38.646927) scale(0.05 -0.05)">
     <use xlink:href="#DejaVuSans-30"/>
     <use xlink:href="#DejaVuSans-2e" x="63.623047"/>
     <use xlink:href="#DejaVuSans-30" x="95.410156"/>
     <use xlink:href="#DejaVuSans-20" x="159.033203"/>
     <use xlink:href="#DejaVuSans-2d" x="190.820312"/>
    </g>
   </g>
   <g id="text_30">
    <g id="patch_25">
     <path d="M 396.474349 321.101266 
L 405.080194 313.709526 
L 401.927213 310.038663 
L 393.321368 317.430403 
z
" style="fill: #ffffff; stroke: #ffffff; stroke-linejoin: miter"/>
    </g>
    <!-- 0.1 - -->
    <g transform="translate(395.79682 320.312451) rotate(-40.659972) scale(0.05 -0.05)">
     <use xlink:href="#DejaVuSans-30"/>
     <use xlink:href="#DejaVuSans-2e" x="63.623047"/>
     <use xlink:href="#DejaVuSans-31" x="95.410156"/>
     <use xlink:href="#DejaVuSans-20" x="159.033203"/>
     <use xlink:href="#DejaVuSans-2d" x="190.820312"/>
    </g>
   </g>
   <g id="text_31">
    <g id="patch_26">
     <path d="M 445.45274 321.201514 
L 453.769524 313.485978 
L 450.478426 309.938415 
L 442.161642 317.653951 
z
" style="fill: #ffffff; stroke: #ffffff; stroke-linejoin: miter"/>
    </g>
    <!-- 0.2 - -->
    <g transform="translate(444.745531 320.439195) rotate(-42.85229) scale(0.05 -0.05)">
     <use xlink:href="#DejaVuSans-30"/>
     <use xlink:href="#DejaVuSans-2e" x="63.623047"/>
     <use xlink:href="#DejaVuSans-32" x="95.410156"/>
     <use xlink:href="#DejaVuSans-20" x="159.033203"/>
     <use xlink:href="#DejaVuSans-2d" x="190.820312"/>
    </g>
   </g>
   <g id="text_32">
    <g id="patch_27">
     <path d="M 494.454501 321.301376 
L 502.4424 313.245828 
L 499.006268 309.838552 
L 491.018369 317.894101 
z
" style="fill: #ffffff; stroke: #ffffff; stroke-linejoin: miter"/>
    </g>
    <!-- 0.3 - -->
    <g transform="translate(493.716126 320.569203) rotate(-45.241596) scale(0.05 -0.05)">
     <use xlink:href="#DejaVuSans-30"/>
     <use xlink:href="#DejaVuSans-2e" x="63.623047"/>
     <use xlink:href="#DejaVuSans-33" x="95.410156"/>
     <use xlink:href="#DejaVuSans-20" x="159.033203"/>
     <use xlink:href="#DejaVuSans-2d" x="190.820312"/>
    </g>
   </g>
   <g id="text_33">
    <g id="patch_28">
     <path d="M 543.482105 321.398878 
L 551.095685 312.988659 
L 547.508267 309.741051 
L 539.894687 318.15127 
z
" style="fill: #ffffff; stroke: #ffffff; stroke-linejoin: miter"/>
    </g>
    <!-- 0.4 - -->
    <g transform="translate(542.711221 320.701014) rotate(-47.84617) scale(0.05 -0.05)">
     <use xlink:href="#DejaVuSans-30"/>
     <use xlink:href="#DejaVuSans-2e" x="63.623047"/>
     <use xlink:href="#DejaVuSans-34" x="95.410156"/>
     <use xlink:href="#DejaVuSans-20" x="159.033203"/>
     <use xlink:href="#DejaVuSans-2d" x="190.820312"/>
    </g>
   </g>
   <g id="text_34">
    <g id="patch_29">
     <path d="M 592.537975 321.4914 
L 599.725813 312.714534 
L 595.982 309.648529 
L 588.794162 318.425395 
z
" style="fill: #ffffff; stroke: #ffffff; stroke-linejoin: miter"/>
    </g>
    <!-- 0.5 - -->
    <g transform="translate(591.733485 320.832561) rotate(-50.684149) scale(0.05 -0.05)">
     <use xlink:href="#DejaVuSans-30"/>
     <use xlink:href="#DejaVuSans-2e" x="63.623047"/>
     <use xlink:href="#DejaVuSans-35" x="95.410156"/>
     <use xlink:href="#DejaVuSans-20" x="159.033203"/>
     <use xlink:href="#DejaVuSans-2d" x="190.820312"/>
    </g>
   </g>
   <g id="text_35">
    <g id="patch_30">
     <path d="M 641.624295 321.575574 
L 648.32884 312.42421 
L 644.425283 309.564355 
L 637.720738 318.715719 
z
" style="fill: #ffffff; stroke: #ffffff; stroke-linejoin: miter"/>
    </g>
    <!-- 0.6 - -->
    <g transform="translate(640.785478 320.961033) rotate(-53.772455) scale(0.05 -0.05)">
     <use xlink:href="#DejaVuSans-30"/>
     <use xlink:href="#DejaVuSans-2e" x="63.623047"/>
     <use xlink:href="#DejaVuSans-36" x="95.410156"/>
     <use xlink:href="#DejaVuSans-20" x="159.033203"/>
     <use xlink:href="#DejaVuSans-2d" x="190.820312"/>
    </g>
   </g>
   <g id="text_36">
    <g id="patch_31">
     <path d="M 690.742729 321.647201 
L 696.900585 312.119389 
L 692.836452 309.492727 
L 686.678597 319.02054 
z
" style="fill: #ffffff; stroke: #ffffff; stroke-linejoin: miter"/>
    </g>
    <!-- 0.7 - -->
    <g transform="translate(689.869407 321.08277) rotate(-57.125287) scale(0.05 -0.05)">
     <use xlink:href="#DejaVuSans-30"/>
     <use xlink:href="#DejaVuSans-2e" x="63.623047"/>
     <use xlink:href="#DejaVuSans-37" x="95.410156"/>
     <use xlink:href="#DejaVuSans-20" x="159.033203"/>
     <use xlink:href="#DejaVuSans-2d" x="190.820312"/>
    </g>
   </g>
   <g id="text_37">
    <g id="patch_32">
     <path d="M 739.894061 321.701252 
L 745.436874 311.802989 
L 741.214724 309.438677 
L 735.671911 319.336939 
z
" style="fill: #ffffff; stroke: #ffffff; stroke-linejoin: miter"/>
    </g>
    <!-- 0.8 - -->
    <g transform="translate(738.986782 321.193196) rotate(-60.752115) scale(0.05 -0.05)">
     <use xlink:href="#DejaVuSans-30"/>
     <use xlink:href="#DejaVuSans-2e" x="63.623047"/>
     <use xlink:href="#DejaVuSans-38" x="95.410156"/>
     <use xlink:href="#DejaVuSans-20" x="159.033203"/>
     <use xlink:href="#DejaVuSans-2d" x="190.820312"/>
    </g>
   </g>
   <g id="text_38">
    <g id="patch_33">
     <path d="M 789.07775 321.73198 
L 793.933933 311.479377 
L 789.560638 309.407949 
L 784.704454 319.660552 
z
" style="fill: #ffffff; stroke: #ffffff; stroke-linejoin: miter"/>
    </g>
    <!-- 0.9 - -->
    <g transform="translate(788.137993 321.28686) rotate(-64.655252) scale(0.05 -0.05)">
     <use xlink:href="#DejaVuSans-30"/>
     <use xlink:href="#DejaVuSans-2e" x="63.623047"/>
     <use xlink:href="#DejaVuSans-39" x="95.410156"/>
     <use xlink:href="#DejaVuSans-20" x="159.033203"/>
     <use xlink:href="#DejaVuSans-2d" x="190.820312"/>
    </g>
   </g>
   <g id="text_39">
    <g id="patch_34">
     <path d="M 838.291474 321.733217 
L 842.388919 311.154496 
L 837.876517 309.406712 
L 833.779072 319.985433 
z
" style="fill: #ffffff; stroke: #ffffff; stroke-linejoin: miter"/>
    </g>
    <!-- 1.0 - -->
    <g transform="translate(837.321825 321.357644) rotate(-68.827171) scale(0.05 -0.05)">
     <use xlink:href="#DejaVuSans-31"/>
     <use xlink:href="#DejaVuSans-2e" x="63.623047"/>
     <use xlink:href="#DejaVuSans-30" x="95.410156"/>
     <use xlink:href="#DejaVuSans-20" x="159.033203"/>
     <use xlink:href="#DejaVuSans-2d" x="190.820312"/>
    </g>
   </g>
  </g>
 </g>
 <defs>
  <clipPath id="pa033727558">
   <rect x="36.012685" y="16.416" width="1095.692315" height="675.704"/>
  </clipPath>
 </defs>
</svg>
