<?xml version="1.0" encoding="utf-8" standalone="no"?>
<!DOCTYPE svg PUBLIC "-//W3C//DTD SVG 1.1//EN"
  "http://www.w3.org/Graphics/SVG/1.1/DTD/svg11.dtd">
<svg xmlns:xlink="http://www.w3.org/1999/xlink" width="1152pt" height="720pt" viewBox="0 0 1152 720" xmlns="http://www.w3.org/2000/svg" version="1.1">
 <metadata>
  <rdf:RDF xmlns:dc="http://purl.org/dc/elements/1.1/" xmlns:cc="http://creativecommons.org/ns#" xmlns:rdf="http://www.w3.org/1999/02/22-rdf-syntax-ns#">
   <cc:Work>
    <dc:type rdf:resource="http://purl.org/dc/dcmitype/StillImage"/>
    <dc:date>2024-10-06T19:28:50.189141</dc:date>
    <dc:format>image/svg+xml</dc:format>
    <dc:creator>
     <cc:Agent>
      <dc:title>Matplotlib v3.8.4, https://matplotlib.org/</dc:title>
     </cc:Agent>
    </dc:creator>
   </cc:Work>
  </rdf:RDF>
 </metadata>
 <defs>
  <style type="text/css">*{stroke-linejoin: round; stroke-linecap: butt}</style>
 </defs>
 <g id="figure_1">
  <g id="patch_1">
   <path d="M 0 720 
L 1152 720 
L 1152 0 
L 0 0 
z
"/>
  </g>
  <g id="axes_1">
   <g id="patch_2">
    <path d="M 52.85 667.211 
L 1128.6 667.211 
L 1128.6 14.76 
L 52.85 14.76 
z
"/>
   </g>
   <g id="matplotlib.axis_1">
    <g id="xtick_1">
     <g id="line2d_1">
      <defs>
       <path id="m353368c720" d="M 0 0 
L 0 3.5 
" style="stroke: #ffffff; stroke-width: 0.8"/>
      </defs>
      <g>
       <use xlink:href="#m353368c720" x="52.85" y="667.211" style="fill: #ffffff; stroke: #ffffff; stroke-width: 0.8"/>
      </g>
     </g>
     <g id="text_1">
      <!-- 500 -->
      <g style="fill: #ffffff" transform="translate(43.30625 681.809437) scale(0.1 -0.1)">
       <defs>
        <path id="DejaVuSans-35" d="M 691 4666 
L 3169 4666 
L 3169 4134 
L 1269 4134 
L 1269 2991 
Q 1406 3038 1543 3061 
Q 1681 3084 1819 3084 
Q 2600 3084 3056 2656 
Q 3513 2228 3513 1497 
Q 3513 744 3044 326 
Q 2575 -91 1722 -91 
Q 1428 -91 1123 -41 
Q 819 9 494 109 
L 494 744 
Q 775 591 1075 516 
Q 1375 441 1709 441 
Q 2250 441 2565 725 
Q 2881 1009 2881 1497 
Q 2881 1984 2565 2268 
Q 2250 2553 1709 2553 
Q 1456 2553 1204 2497 
Q 953 2441 691 2322 
L 691 4666 
z
" transform="scale(0.015625)"/>
        <path id="DejaVuSans-30" d="M 2034 4250 
Q 1547 4250 1301 3770 
Q 1056 3291 1056 2328 
Q 1056 1369 1301 889 
Q 1547 409 2034 409 
Q 2525 409 2770 889 
Q 3016 1369 3016 2328 
Q 3016 3291 2770 3770 
Q 2525 4250 2034 4250 
z
M 2034 4750 
Q 2819 4750 3233 4129 
Q 3647 3509 3647 2328 
Q 3647 1150 3233 529 
Q 2819 -91 2034 -91 
Q 1250 -91 836 529 
Q 422 1150 422 2328 
Q 422 3509 836 4129 
Q 1250 4750 2034 4750 
z
" transform="scale(0.015625)"/>
       </defs>
       <use xlink:href="#DejaVuSans-35"/>
       <use xlink:href="#DejaVuSans-30" x="63.623047"/>
       <use xlink:href="#DejaVuSans-30" x="127.246094"/>
      </g>
     </g>
    </g>
    <g id="xtick_2">
     <g id="line2d_2">
      <g>
       <use xlink:href="#m353368c720" x="268" y="667.211" style="fill: #ffffff; stroke: #ffffff; stroke-width: 0.8"/>
      </g>
     </g>
     <g id="text_2">
      <!-- 1000 -->
      <g style="fill: #ffffff" transform="translate(255.275 681.809437) scale(0.1 -0.1)">
       <defs>
        <path id="DejaVuSans-31" d="M 794 531 
L 1825 531 
L 1825 4091 
L 703 3866 
L 703 4441 
L 1819 4666 
L 2450 4666 
L 2450 531 
L 3481 531 
L 3481 0 
L 794 0 
L 794 531 
z
" transform="scale(0.015625)"/>
       </defs>
       <use xlink:href="#DejaVuSans-31"/>
       <use xlink:href="#DejaVuSans-30" x="63.623047"/>
       <use xlink:href="#DejaVuSans-30" x="127.246094"/>
       <use xlink:href="#DejaVuSans-30" x="190.869141"/>
      </g>
     </g>
    </g>
    <g id="xtick_3">
     <g id="line2d_3">
      <g>
       <use xlink:href="#m353368c720" x="483.15" y="667.211" style="fill: #ffffff; stroke: #ffffff; stroke-width: 0.8"/>
      </g>
     </g>
     <g id="text_3">
      <!-- 1500 -->
      <g style="fill: #ffffff" transform="translate(470.425 681.809437) scale(0.1 -0.1)">
       <use xlink:href="#DejaVuSans-31"/>
       <use xlink:href="#DejaVuSans-35" x="63.623047"/>
       <use xlink:href="#DejaVuSans-30" x="127.246094"/>
       <use xlink:href="#DejaVuSans-30" x="190.869141"/>
      </g>
     </g>
    </g>
    <g id="xtick_4">
     <g id="line2d_4">
      <g>
       <use xlink:href="#m353368c720" x="698.3" y="667.211" style="fill: #ffffff; stroke: #ffffff; stroke-width: 0.8"/>
      </g>
     </g>
     <g id="text_4">
      <!-- 2000 -->
      <g style="fill: #ffffff" transform="translate(685.575 681.809437) scale(0.1 -0.1)">
       <defs>
        <path id="DejaVuSans-32" d="M 1228 531 
L 3431 531 
L 3431 0 
L 469 0 
L 469 531 
Q 828 903 1448 1529 
Q 2069 2156 2228 2338 
Q 2531 2678 2651 2914 
Q 2772 3150 2772 3378 
Q 2772 3750 2511 3984 
Q 2250 4219 1831 4219 
Q 1534 4219 1204 4116 
Q 875 4013 500 3803 
L 500 4441 
Q 881 4594 1212 4672 
Q 1544 4750 1819 4750 
Q 2544 4750 2975 4387 
Q 3406 4025 3406 3419 
Q 3406 3131 3298 2873 
Q 3191 2616 2906 2266 
Q 2828 2175 2409 1742 
Q 1991 1309 1228 531 
z
" transform="scale(0.015625)"/>
       </defs>
       <use xlink:href="#DejaVuSans-32"/>
       <use xlink:href="#DejaVuSans-30" x="63.623047"/>
       <use xlink:href="#DejaVuSans-30" x="127.246094"/>
       <use xlink:href="#DejaVuSans-30" x="190.869141"/>
      </g>
     </g>
    </g>
    <g id="xtick_5">
     <g id="line2d_5">
      <g>
       <use xlink:href="#m353368c720" x="913.45" y="667.211" style="fill: #ffffff; stroke: #ffffff; stroke-width: 0.8"/>
      </g>
     </g>
     <g id="text_5">
      <!-- 2500 -->
      <g style="fill: #ffffff" transform="translate(900.725 681.809437) scale(0.1 -0.1)">
       <use xlink:href="#DejaVuSans-32"/>
       <use xlink:href="#DejaVuSans-35" x="63.623047"/>
       <use xlink:href="#DejaVuSans-30" x="127.246094"/>
       <use xlink:href="#DejaVuSans-30" x="190.869141"/>
      </g>
     </g>
    </g>
    <g id="xtick_6">
     <g id="line2d_6">
      <g>
       <use xlink:href="#m353368c720" x="1128.6" y="667.211" style="fill: #ffffff; stroke: #ffffff; stroke-width: 0.8"/>
      </g>
     </g>
     <g id="text_6">
      <!-- 3000 -->
      <g style="fill: #ffffff" transform="translate(1115.875 681.809437) scale(0.1 -0.1)">
       <defs>
        <path id="DejaVuSans-33" d="M 2597 2516 
Q 3050 2419 3304 2112 
Q 3559 1806 3559 1356 
Q 3559 666 3084 287 
Q 2609 -91 1734 -91 
Q 1441 -91 1130 -33 
Q 819 25 488 141 
L 488 750 
Q 750 597 1062 519 
Q 1375 441 1716 441 
Q 2309 441 2620 675 
Q 2931 909 2931 1356 
Q 2931 1769 2642 2001 
Q 2353 2234 1838 2234 
L 1294 2234 
L 1294 2753 
L 1863 2753 
Q 2328 2753 2575 2939 
Q 2822 3125 2822 3475 
Q 2822 3834 2567 4026 
Q 2313 4219 1838 4219 
Q 1578 4219 1281 4162 
Q 984 4106 628 3988 
L 628 4550 
Q 988 4650 1302 4700 
Q 1616 4750 1894 4750 
Q 2613 4750 3031 4423 
Q 3450 4097 3450 3541 
Q 3450 3153 3228 2886 
Q 3006 2619 2597 2516 
z
" transform="scale(0.015625)"/>
       </defs>
       <use xlink:href="#DejaVuSans-33"/>
       <use xlink:href="#DejaVuSans-30" x="63.623047"/>
       <use xlink:href="#DejaVuSans-30" x="127.246094"/>
       <use xlink:href="#DejaVuSans-30" x="190.869141"/>
      </g>
     </g>
    </g>
    <g id="text_7">
     <!-- s in $\frac{J}{kgK}$ -->
     <g style="fill: #ffffff" transform="translate(573.175 698.789125) scale(0.1 -0.1)">
      <defs>
       <path id="DejaVuSans-73" d="M 2834 3397 
L 2834 2853 
Q 2591 2978 2328 3040 
Q 2066 3103 1784 3103 
Q 1356 3103 1142 2972 
Q 928 2841 928 2578 
Q 928 2378 1081 2264 
Q 1234 2150 1697 2047 
L 1894 2003 
Q 2506 1872 2764 1633 
Q 3022 1394 3022 966 
Q 3022 478 2636 193 
Q 2250 -91 1575 -91 
Q 1294 -91 989 -36 
Q 684 19 347 128 
L 347 722 
Q 666 556 975 473 
Q 1284 391 1588 391 
Q 1994 391 2212 530 
Q 2431 669 2431 922 
Q 2431 1156 2273 1281 
Q 2116 1406 1581 1522 
L 1381 1569 
Q 847 1681 609 1914 
Q 372 2147 372 2553 
Q 372 3047 722 3315 
Q 1072 3584 1716 3584 
Q 2034 3584 2315 3537 
Q 2597 3491 2834 3397 
z
" transform="scale(0.015625)"/>
       <path id="DejaVuSans-20" transform="scale(0.015625)"/>
       <path id="DejaVuSans-69" d="M 603 3500 
L 1178 3500 
L 1178 0 
L 603 0 
L 603 3500 
z
M 603 4863 
L 1178 4863 
L 1178 4134 
L 603 4134 
L 603 4863 
z
" transform="scale(0.015625)"/>
       <path id="DejaVuSans-6e" d="M 3513 2113 
L 3513 0 
L 2938 0 
L 2938 2094 
Q 2938 2591 2744 2837 
Q 2550 3084 2163 3084 
Q 1697 3084 1428 2787 
Q 1159 2491 1159 1978 
L 1159 0 
L 581 0 
L 581 3500 
L 1159 3500 
L 1159 2956 
Q 1366 3272 1645 3428 
Q 1925 3584 2291 3584 
Q 2894 3584 3203 3211 
Q 3513 2838 3513 2113 
z
" transform="scale(0.015625)"/>
       <path id="DejaVuSans-Oblique-4a" d="M 1069 4666 
L 1703 4666 
L 856 325 
Q 691 -522 298 -901 
Q -94 -1281 -800 -1281 
L -1050 -1281 
L -947 -750 
L -750 -750 
Q -328 -750 -109 -509 
Q 109 -269 225 325 
L 1069 4666 
z
" transform="scale(0.015625)"/>
       <path id="DejaVuSans-Oblique-6b" d="M 1172 4863 
L 1747 4863 
L 1197 2028 
L 3169 3500 
L 3916 3500 
L 1716 1825 
L 3322 0 
L 2625 0 
L 1131 1709 
L 800 0 
L 225 0 
L 1172 4863 
z
" transform="scale(0.015625)"/>
       <path id="DejaVuSans-Oblique-67" d="M 3816 3500 
L 3219 434 
Q 3047 -456 2561 -893 
Q 2075 -1331 1253 -1331 
Q 950 -1331 690 -1286 
Q 431 -1241 206 -1147 
L 313 -588 
Q 525 -725 762 -790 
Q 1000 -856 1269 -856 
Q 1816 -856 2167 -557 
Q 2519 -259 2631 300 
L 2681 563 
Q 2441 288 2122 144 
Q 1803 0 1434 0 
Q 903 0 598 351 
Q 294 703 294 1319 
Q 294 1803 478 2267 
Q 663 2731 997 3091 
Q 1219 3328 1514 3456 
Q 1809 3584 2131 3584 
Q 2484 3584 2746 3420 
Q 3009 3256 3138 2956 
L 3238 3500 
L 3816 3500 
z
M 2950 2216 
Q 2950 2641 2750 2872 
Q 2550 3103 2181 3103 
Q 1953 3103 1747 3012 
Q 1541 2922 1394 2759 
Q 1156 2491 1023 2127 
Q 891 1763 891 1375 
Q 891 944 1092 712 
Q 1294 481 1672 481 
Q 2219 481 2584 976 
Q 2950 1472 2950 2216 
z
" transform="scale(0.015625)"/>
       <path id="DejaVuSans-Oblique-4b" d="M 1081 4666 
L 1716 4666 
L 1331 2700 
L 3781 4666 
L 4622 4666 
L 1850 2438 
L 3878 0 
L 3109 0 
L 1247 2272 
L 806 0 
L 172 0 
L 1081 4666 
z
" transform="scale(0.015625)"/>
      </defs>
      <use xlink:href="#DejaVuSans-73" transform="translate(0 0.157813)"/>
      <use xlink:href="#DejaVuSans-20" transform="translate(52.099609 0.157813)"/>
      <use xlink:href="#DejaVuSans-69" transform="translate(83.886719 0.157813)"/>
      <use xlink:href="#DejaVuSans-6e" transform="translate(111.669922 0.157813)"/>
      <use xlink:href="#DejaVuSans-20" transform="translate(175.048828 0.157813)"/>
      <use xlink:href="#DejaVuSans-Oblique-4a" transform="translate(261.835938 57.965625) scale(0.7)"/>
      <use xlink:href="#DejaVuSans-Oblique-6b" transform="translate(206.835938 -40.484375) scale(0.7)"/>
      <use xlink:href="#DejaVuSans-Oblique-67" transform="translate(247.373047 -40.484375) scale(0.7)"/>
      <use xlink:href="#DejaVuSans-Oblique-4b" transform="translate(291.806641 -40.484375) scale(0.7)"/>
      <path d="M 206.835938 18.954688 
L 206.835938 25.204688 
L 337.709961 25.204688 
L 337.709961 18.954688 
L 206.835938 18.954688 
z
"/>
     </g>
    </g>
   </g>
   <g id="matplotlib.axis_2">
    <g id="ytick_1">
     <g id="line2d_7">
      <defs>
       <path id="m942db632ec" d="M 0 0 
L -3.5 0 
" style="stroke: #ffffff; stroke-width: 0.8"/>
      </defs>
      <g>
       <use xlink:href="#m942db632ec" x="52.85" y="667.211" style="fill: #ffffff; stroke: #ffffff; stroke-width: 0.8"/>
      </g>
     </g>
     <g id="text_8">
      <!-- −50 -->
      <g style="fill: #ffffff" transform="translate(24.745312 671.010219) scale(0.1 -0.1)">
       <defs>
        <path id="DejaVuSans-2212" d="M 678 2272 
L 4684 2272 
L 4684 1741 
L 678 1741 
L 678 2272 
z
" transform="scale(0.015625)"/>
       </defs>
       <use xlink:href="#DejaVuSans-2212"/>
       <use xlink:href="#DejaVuSans-35" x="83.789062"/>
       <use xlink:href="#DejaVuSans-30" x="147.412109"/>
      </g>
     </g>
    </g>
    <g id="ytick_2">
     <g id="line2d_8">
      <g>
       <use xlink:href="#m942db632ec" x="52.85" y="585.654625" style="fill: #ffffff; stroke: #ffffff; stroke-width: 0.8"/>
      </g>
     </g>
     <g id="text_9">
      <!-- −25 -->
      <g style="fill: #ffffff" transform="translate(24.745312 589.453844) scale(0.1 -0.1)">
       <use xlink:href="#DejaVuSans-2212"/>
       <use xlink:href="#DejaVuSans-32" x="83.789062"/>
       <use xlink:href="#DejaVuSans-35" x="147.412109"/>
      </g>
     </g>
    </g>
    <g id="ytick_3">
     <g id="line2d_9">
      <g>
       <use xlink:href="#m942db632ec" x="52.85" y="504.09825" style="fill: #ffffff; stroke: #ffffff; stroke-width: 0.8"/>
      </g>
     </g>
     <g id="text_10">
      <!-- 0 -->
      <g style="fill: #ffffff" transform="translate(39.4875 507.897469) scale(0.1 -0.1)">
       <use xlink:href="#DejaVuSans-30"/>
      </g>
     </g>
    </g>
    <g id="ytick_4">
     <g id="line2d_10">
      <g>
       <use xlink:href="#m942db632ec" x="52.85" y="422.541875" style="fill: #ffffff; stroke: #ffffff; stroke-width: 0.8"/>
      </g>
     </g>
     <g id="text_11">
      <!-- 25 -->
      <g style="fill: #ffffff" transform="translate(33.125 426.341094) scale(0.1 -0.1)">
       <use xlink:href="#DejaVuSans-32"/>
       <use xlink:href="#DejaVuSans-35" x="63.623047"/>
      </g>
     </g>
    </g>
    <g id="ytick_5">
     <g id="line2d_11">
      <g>
       <use xlink:href="#m942db632ec" x="52.85" y="340.9855" style="fill: #ffffff; stroke: #ffffff; stroke-width: 0.8"/>
      </g>
     </g>
     <g id="text_12">
      <!-- 50 -->
      <g style="fill: #ffffff" transform="translate(33.125 344.784719) scale(0.1 -0.1)">
       <use xlink:href="#DejaVuSans-35"/>
       <use xlink:href="#DejaVuSans-30" x="63.623047"/>
      </g>
     </g>
    </g>
    <g id="ytick_6">
     <g id="line2d_12">
      <g>
       <use xlink:href="#m942db632ec" x="52.85" y="259.429125" style="fill: #ffffff; stroke: #ffffff; stroke-width: 0.8"/>
      </g>
     </g>
     <g id="text_13">
      <!-- 75 -->
      <g style="fill: #ffffff" transform="translate(33.125 263.228344) scale(0.1 -0.1)">
       <defs>
        <path id="DejaVuSans-37" d="M 525 4666 
L 3525 4666 
L 3525 4397 
L 1831 0 
L 1172 0 
L 2766 4134 
L 525 4134 
L 525 4666 
z
" transform="scale(0.015625)"/>
       </defs>
       <use xlink:href="#DejaVuSans-37"/>
       <use xlink:href="#DejaVuSans-35" x="63.623047"/>
      </g>
     </g>
    </g>
    <g id="ytick_7">
     <g id="line2d_13">
      <g>
       <use xlink:href="#m942db632ec" x="52.85" y="177.87275" style="fill: #ffffff; stroke: #ffffff; stroke-width: 0.8"/>
      </g>
     </g>
     <g id="text_14">
      <!-- 100 -->
      <g style="fill: #ffffff" transform="translate(26.7625 181.671969) scale(0.1 -0.1)">
       <use xlink:href="#DejaVuSans-31"/>
       <use xlink:href="#DejaVuSans-30" x="63.623047"/>
       <use xlink:href="#DejaVuSans-30" x="127.246094"/>
      </g>
     </g>
    </g>
    <g id="ytick_8">
     <g id="line2d_14">
      <g>
       <use xlink:href="#m942db632ec" x="52.85" y="96.316375" style="fill: #ffffff; stroke: #ffffff; stroke-width: 0.8"/>
      </g>
     </g>
     <g id="text_15">
      <!-- 125 -->
      <g style="fill: #ffffff" transform="translate(26.7625 100.115594) scale(0.1 -0.1)">
       <use xlink:href="#DejaVuSans-31"/>
       <use xlink:href="#DejaVuSans-32" x="63.623047"/>
       <use xlink:href="#DejaVuSans-35" x="127.246094"/>
      </g>
     </g>
    </g>
    <g id="ytick_9">
     <g id="line2d_15">
      <g>
       <use xlink:href="#m942db632ec" x="52.85" y="14.76" style="fill: #ffffff; stroke: #ffffff; stroke-width: 0.8"/>
      </g>
     </g>
     <g id="text_16">
      <!-- 150 -->
      <g style="fill: #ffffff" transform="translate(26.7625 18.559219) scale(0.1 -0.1)">
       <use xlink:href="#DejaVuSans-31"/>
       <use xlink:href="#DejaVuSans-35" x="63.623047"/>
       <use xlink:href="#DejaVuSans-30" x="127.246094"/>
      </g>
     </g>
    </g>
    <g id="text_17">
     <!-- T in °C -->
     <g style="fill: #ffffff" transform="translate(18.665625 357.76675) rotate(-90) scale(0.1 -0.1)">
      <defs>
       <path id="DejaVuSans-54" d="M -19 4666 
L 3928 4666 
L 3928 4134 
L 2272 4134 
L 2272 0 
L 1638 0 
L 1638 4134 
L -19 4134 
L -19 4666 
z
" transform="scale(0.015625)"/>
       <path id="DejaVuSans-b0" d="M 1600 4347 
Q 1350 4347 1178 4173 
Q 1006 4000 1006 3750 
Q 1006 3503 1178 3333 
Q 1350 3163 1600 3163 
Q 1850 3163 2022 3333 
Q 2194 3503 2194 3750 
Q 2194 3997 2020 4172 
Q 1847 4347 1600 4347 
z
M 1600 4750 
Q 1800 4750 1984 4673 
Q 2169 4597 2303 4453 
Q 2447 4313 2519 4134 
Q 2591 3956 2591 3750 
Q 2591 3338 2302 3052 
Q 2013 2766 1594 2766 
Q 1172 2766 890 3047 
Q 609 3328 609 3750 
Q 609 4169 896 4459 
Q 1184 4750 1600 4750 
z
" transform="scale(0.015625)"/>
       <path id="DejaVuSans-43" d="M 4122 4306 
L 4122 3641 
Q 3803 3938 3442 4084 
Q 3081 4231 2675 4231 
Q 1875 4231 1450 3742 
Q 1025 3253 1025 2328 
Q 1025 1406 1450 917 
Q 1875 428 2675 428 
Q 3081 428 3442 575 
Q 3803 722 4122 1019 
L 4122 359 
Q 3791 134 3420 21 
Q 3050 -91 2638 -91 
Q 1578 -91 968 557 
Q 359 1206 359 2328 
Q 359 3453 968 4101 
Q 1578 4750 2638 4750 
Q 3056 4750 3426 4639 
Q 3797 4528 4122 4306 
z
" transform="scale(0.015625)"/>
      </defs>
      <use xlink:href="#DejaVuSans-54"/>
      <use xlink:href="#DejaVuSans-20" x="61.083984"/>
      <use xlink:href="#DejaVuSans-69" x="92.871094"/>
      <use xlink:href="#DejaVuSans-6e" x="120.654297"/>
      <use xlink:href="#DejaVuSans-20" x="184.033203"/>
      <use xlink:href="#DejaVuSans-b0" x="215.820312"/>
      <use xlink:href="#DejaVuSans-43" x="265.820312"/>
     </g>
    </g>
   </g>
   <g id="line2d_16">
    <path d="M 1059.143668 674.6113 
L 1066.039458 666.043602 
L 1072.984326 657.374033 
L 1079.979332 648.601382 
L 1087.02556 639.724423 
L 1094.124114 630.741915 
L 1101.27612 621.652605 
L 1108.482722 612.455221 
L 1115.745085 603.148479 
L 1123.064388 593.731078 
L 1130.44183 584.201704 
" clip-path="url(#p0d64ea4d7c)" style="fill: none; stroke-dasharray: 3.2,0.8,0.5,0.8; stroke-dashoffset: 0; stroke: #363636; stroke-width: 0.5"/>
   </g>
   <g id="line2d_17">
    <path d="M 973.397122 668.56657 
L 979.61629 660.881897 
L 985.872924 653.115951 
L 992.167824 645.267872 
L 998.501808 637.336792 
L 1004.875708 629.321833 
L 1011.290371 621.222109 
L 1017.74666 613.036722 
L 1024.245449 604.764767 
L 1030.787622 596.405327 
L 1037.374078 587.957479 
L 1044.005722 579.420286 
L 1050.683468 570.792805 
L 1057.408238 562.074079 
L 1064.180963 553.263145 
L 1071.002576 544.359026 
L 1077.874016 535.360738 
L 1084.796228 526.267284 
L 1091.770157 517.077658 
L 1098.796754 507.790842 
L 1105.876968 498.40581 
L 1113.011752 488.921522 
L 1120.202058 479.336928 
L 1127.448837 469.650968 
L 1134.75304 459.86257 
" clip-path="url(#p0d64ea4d7c)" style="fill: none; stroke-dasharray: 3.2,0.8,0.5,0.8; stroke-dashoffset: 0; stroke: #363636; stroke-width: 0.5"/>
   </g>
   <g id="line2d_18">
    <path d="M 64.707963 667.902373 
L 66.977616 666.165773 
L 69.249573 664.425025 
L 71.523854 662.680122 
L 73.80048 660.931051 
L 76.07947 659.177804 
L 78.360846 657.420371 
L 80.644628 655.658742 
L 82.930837 653.892906 
L 85.219494 652.122853 
L 87.51062 650.348574 
L 89.804238 648.570059 
L 92.10037 646.787296 
L 94.399036 645.000277 
L 96.700259 643.208991 
L 97.666401 642.456264 
L 177.092708 642.456264 
L 256.519015 642.456264 
L 335.945322 642.456264 
L 415.371629 642.456264 
L 494.797936 642.456264 
L 574.224243 642.456264 
L 653.65055 642.456264 
L 733.076857 642.456264 
L 812.503164 642.456264 
L 891.929471 642.456264 
L 892.548384 641.703537 
L 898.074468 634.964917 
L 903.624021 628.166031 
L 909.197725 621.306341 
L 914.796267 614.385302 
L 920.420341 607.402365 
L 926.070645 600.356978 
L 931.747879 593.248582 
L 937.452749 586.076613 
L 943.18596 578.840503 
L 948.94822 571.539678 
L 954.740235 564.173559 
L 960.562715 556.741562 
L 966.416364 549.243099 
L 972.301888 541.677574 
L 978.219988 534.044389 
L 984.171366 526.342937 
L 990.156717 518.572609 
L 996.176736 510.732788 
L 1002.232112 502.822852 
L 1008.32353 494.842176 
L 1014.451672 486.790126 
L 1020.617216 478.666063 
L 1026.820832 470.469345 
L 1033.063189 462.19932 
L 1039.34495 453.855334 
L 1045.666771 445.436725 
L 1052.029305 436.942825 
L 1058.4332 428.372961 
L 1064.879096 419.726455 
L 1071.367631 411.00262 
L 1077.899436 402.200764 
L 1084.475135 393.320191 
L 1091.09535 384.360196 
L 1097.760693 375.320068 
L 1104.471774 366.199092 
L 1111.229195 356.996543 
L 1118.033553 347.711694 
L 1124.885438 338.343806 
L 1131.785433 328.892139 
" clip-path="url(#p0d64ea4d7c)" style="fill: none; stroke-dasharray: 3.2,0.8,0.5,0.8; stroke-dashoffset: 0; stroke: #363636; stroke-width: 0.5"/>
   </g>
   <g id="line2d_19">
    <path d="M 62.389558 669.460819 
L 65.578833 667.021883 
L 68.772628 664.574751 
L 71.970998 662.119394 
L 75.173999 659.655786 
L 78.381687 657.183898 
L 81.59412 654.703703 
L 84.811356 652.215172 
L 88.033453 649.718279 
L 91.260471 647.212994 
L 94.492472 644.69929 
L 97.729515 642.177138 
L 100.971664 639.646509 
L 104.218981 637.107376 
L 107.471531 634.55971 
L 110.729378 632.003482 
L 113.992588 629.438663 
L 117.261228 626.865224 
L 120.535366 624.283137 
L 123.815072 621.692372 
L 127.100414 619.092901 
L 130.391464 616.484693 
L 133.688294 613.86772 
L 136.990978 611.241952 
L 140.299589 608.60736 
L 143.614205 605.963914 
L 146.934901 603.311583 
L 150.261757 600.65034 
L 153.594852 597.980152 
L 156.934266 595.300991 
L 160.280084 592.612826 
L 163.632388 589.915627 
L 166.991264 587.209363 
L 170.356799 584.494004 
L 173.729083 581.76952 
L 177.108205 579.03588 
L 180.494258 576.293053 
L 183.887336 573.541008 
L 187.287536 570.779714 
L 190.694954 568.00914 
L 194.109692 565.229255 
L 197.531851 562.440028 
L 200.961535 559.641427 
L 204.398852 556.833421 
L 207.843909 554.015978 
L 211.29682 551.189066 
L 212.328035 550.344227 
L 277.730144 550.344227 
L 343.132253 550.344227 
L 408.534362 550.344227 
L 473.936471 550.344227 
L 539.338581 550.344227 
L 604.74069 550.344227 
L 670.142799 550.344227 
L 735.544908 550.344227 
L 800.947017 550.344227 
L 866.349127 550.344227 
L 867.047106 549.499388 
L 872.085594 543.383483 
L 877.135909 537.223348 
L 882.198812 531.018664 
L 887.275046 524.769108 
L 892.365333 518.474356 
L 897.470378 512.134081 
L 902.590867 505.747954 
L 907.727471 499.315643 
L 912.880843 492.836814 
L 918.05162 486.31113 
L 923.240426 479.738254 
L 928.447868 473.117843 
L 933.67454 466.449554 
L 938.921023 459.73304 
L 944.187885 452.967954 
L 949.475679 446.153942 
L 954.78495 439.290653 
L 960.116229 432.377729 
L 965.470037 425.414811 
L 970.846882 418.401538 
L 976.247264 411.337546 
L 981.671673 404.222468 
L 987.120589 397.055934 
L 992.594483 389.837572 
L 998.093817 382.567008 
L 1003.619045 375.243864 
L 1009.170612 367.86776 
L 1014.748957 360.438312 
L 1020.35451 352.955135 
L 1025.987693 345.417841 
L 1031.648923 337.826037 
L 1037.338607 330.179331 
L 1043.057149 322.477324 
L 1048.804943 314.719617 
L 1054.58238 306.905807 
L 1060.389843 299.035488 
L 1066.227711 291.108252 
L 1072.096354 283.123687 
L 1077.99614 275.081378 
L 1083.927428 266.980908 
L 1089.890572 258.821856 
L 1095.885923 250.603799 
L 1101.913822 242.32631 
L 1107.974608 233.988958 
L 1114.068613 225.591312 
L 1120.196165 217.132934 
L 1126.357586 208.613387 
L 1132.553194 200.032226 
" clip-path="url(#p0d64ea4d7c)" style="fill: none; stroke-dasharray: 3.2,0.8,0.5,0.8; stroke-dashoffset: 0; stroke: #363636; stroke-width: 0.5"/>
   </g>
   <g id="line2d_20">
    <path d="M 61.200395 669.628302 
L 87.493379 649.35357 
L 114.11379 628.512285 
L 141.095895 607.088617 
L 168.4783 585.06629 
L 196.305072 562.428577 
L 229.400015 535.217163 
L 268.175965 503.027942 
L 333.857746 448.130729 
L 372.154887 416.205496 
L 848.613851 416.205496 
L 858.316281 405.301018 
L 871.477183 390.223955 
L 884.578947 374.917251 
L 902.005952 354.145039 
L 919.435055 332.949912 
L 936.910165 311.323262 
L 954.466985 289.256301 
L 972.135266 266.740066 
L 994.415289 237.949027 
L 1016.950069 208.423415 
L 1039.775059 178.144488 
L 1062.92097 147.093026 
L 1086.414723 115.249319 
L 1115.099727 75.96261 
L 1129.654392 55.869338 
L 1129.654392 55.869338 
" clip-path="url(#p0d64ea4d7c)" style="fill: none; stroke-dasharray: 3.2,0.8,0.5,0.8; stroke-dashoffset: 0; stroke: #363636; stroke-width: 0.5"/>
   </g>
   <g id="line2d_21">
    <path d="M 58.521029 669.595769 
L 80.950761 652.247799 
L 103.607409 634.48506 
L 126.510277 616.297633 
L 155.517447 592.950643 
L 184.98841 568.903829 
L 214.975659 544.136215 
L 245.540179 518.626196 
L 283.082496 487.002817 
L 334.872285 443.056553 
L 396.138103 391.070064 
L 424.693687 367.062862 
L 446.798838 348.681528 
L 469.626847 329.971562 
L 485.333894 317.312781 
L 501.520631 304.503565 
L 518.301629 291.542126 
L 535.854543 278.426656 
L 545.007231 271.810589 
L 554.483446 265.155325 
L 564.369086 258.460633 
L 576.634454 250.581677 
L 821.558687 250.581677 
L 828.207417 246.293189 
L 837.22169 239.979512 
L 845.621128 233.631138 
L 853.576056 227.247877 
L 861.193832 220.829537 
L 868.547063 214.375925 
L 875.687407 207.886848 
L 886.079721 198.086308 
L 896.170255 188.204869 
L 906.024365 178.241863 
L 915.689798 168.196618 
L 928.344775 154.673856 
L 940.792184 141.002058 
L 953.080073 127.179581 
L 965.245404 113.204765 
L 980.323646 95.519458 
L 995.300713 77.590177 
L 1010.212121 59.413556 
L 1028.059093 37.270314 
L 1045.892557 14.76 
L 1045.892557 14.76 
" clip-path="url(#p0d64ea4d7c)" style="fill: none; stroke-dasharray: 3.2,0.8,0.5,0.8; stroke-dashoffset: 0; stroke: #363636; stroke-width: 0.5"/>
   </g>
   <g id="line2d_22">
    <path d="M 45.698484 672.553255 
L 105.862493 624.980733 
L 160.995419 579.825247 
L 211.709413 537.11531 
L 258.493159 496.848345 
L 301.744621 458.996087 
L 341.79473 423.509192 
L 378.925254 390.320767 
L 413.381818 359.3495 
L 445.382943 330.502663 
L 475.126197 303.678932 
L 502.792386 278.770861 
L 528.548486 255.666929 
L 552.549771 234.253195 
L 574.941358 214.414641 
L 595.859345 196.036296 
L 615.431648 179.004192 
L 633.778609 163.206234 
L 651.013388 148.533032 
L 667.24221 134.878679 
L 682.564513 122.141465 
L 697.073057 110.224475 
L 710.854036 99.036046 
L 723.987234 88.490068 
L 736.546233 78.506103 
L 748.598695 69.009344 
L 760.206703 59.930426 
L 771.427153 51.205127 
L 782.312184 42.773983 
L 792.909611 34.581852 
L 803.26337 26.57747 
L 813.413939 18.713003 
L 823.398726 10.943626 
" clip-path="url(#p0d64ea4d7c)" style="fill: none; stroke-dasharray: 3.2,0.8,0.5,0.8; stroke-dashoffset: 0; stroke: #363636; stroke-width: 0.5"/>
   </g>
   <g id="line2d_23">
    <path d="M 61.827171 671.515065 
L 87.674016 651.952164 
L 114.800083 631.154916 
L 143.338295 609.006086 
L 173.43946 585.375245 
L 205.274859 560.117456 
L 239.039254 533.072014 
L 274.954335 504.061426 
L 323.260647 464.736371 
L 387.001905 412.501455 
L 497.020741 322.233949 
L 538.339127 288.627273 
L 567.424287 265.211064 
L 597.918135 241.007743 
L 623.840193 220.877158 
L 634.119544 213.068225 
L 638.197121 207.717273 
L 650.672486 190.994106 
L 664.986618 171.426276 
L 681.566072 148.389583 
L 700.882651 121.164287 
L 722.049707 90.950034 
L 723.480864 88.894636 
L 723.480864 88.894636 
" clip-path="url(#p0d64ea4d7c)" style="fill: none; stroke-dasharray: 0.5,0.825; stroke-dashoffset: 0; stroke: #363636; stroke-width: 0.5"/>
   </g>
   <g id="line2d_24">
    <path d="M 66.943551 674.65443 
L 125.632728 634.019874 
L 158.042095 611.695631 
L 192.895058 587.858046 
L 230.558358 562.356829 
L 271.464033 535.025014 
L 316.122431 505.677824 
L 365.138977 474.112083 
L 419.237066 440.106807 
L 479.292414 403.426256 
L 513.249372 383.200333 
L 548.021909 362.885216 
L 583.364756 342.660752 
L 618.950737 322.74662 
L 654.360281 303.403077 
L 689.079247 284.924439 
L 705.996825 276.106869 
L 738.553074 259.51012 
L 768.865248 244.541164 
L 796.314819 231.447633 
L 808.797393 225.659719 
L 808.797393 225.659719 
L 818.885665 212.747491 
L 830.3659 197.683226 
L 843.195771 180.466922 
L 857.35663 161.09858 
L 874.369137 137.426163 
L 892.638818 111.601708 
L 912.157782 83.625214 
L 932.9168 53.496683 
L 956.362493 19.064076 
L 959.274483 14.76 
L 959.274483 14.76 
" clip-path="url(#p0d64ea4d7c)" style="fill: none; stroke-dasharray: 0.5,0.825; stroke-dashoffset: 0; stroke: #363636; stroke-width: 0.5"/>
   </g>
   <g id="line2d_25">
    <path d="M 92.132616 675.436301 
L 125.089444 656.915644 
L 161.101085 637.282999 
L 200.689112 616.437652 
L 244.471997 594.268013 
L 293.183273 570.650543 
L 347.693711 545.448702 
L 347.693711 545.448702 
L 365.952782 537.279561 
L 384.82231 528.974095 
L 404.321942 520.532874 
L 424.470713 511.956974 
L 445.286808 503.24804 
L 466.787297 494.408352 
L 488.987832 485.440908 
L 511.902309 476.3495 
L 535.542492 467.138803 
L 559.917586 457.814474 
L 585.033779 448.383243 
L 610.893734 438.853023 
L 637.496029 429.233016 
L 664.834565 419.533823 
L 692.897924 409.767556 
L 721.668694 399.947947 
L 751.122765 390.090453 
L 781.228603 380.212348 
L 811.946529 370.332811 
L 843.228022 360.472989 
L 843.228022 360.472989 
L 845.730669 356.945305 
L 848.228703 353.417622 
L 850.722231 349.889938 
L 853.211356 346.362255 
L 855.696176 342.834571 
L 858.176789 339.306887 
L 860.653287 335.779204 
L 863.125761 332.25152 
L 865.594299 328.723837 
L 868.058986 325.196153 
L 870.519907 321.66847 
L 872.977147 318.140786 
L 875.430785 314.613103 
L 877.880906 311.085419 
L 880.327587 307.557735 
L 882.77091 304.030052 
L 885.210951 300.502368 
L 887.647788 296.974685 
L 890.081493 293.447001 
L 892.512139 289.919318 
L 894.939794 286.391634 
L 897.364523 282.863951 
L 899.786389 279.336267 
L 902.205451 275.808583 
L 904.621763 272.2809 
L 907.035379 268.753216 
L 909.446348 265.225533 
L 911.854717 261.697849 
L 914.260531 258.170166 
L 916.663832 254.642482 
L 919.064663 251.114798 
L 921.463062 247.587115 
L 923.859068 244.059431 
L 926.25272 240.531748 
L 928.644054 237.004064 
L 931.033106 233.476381 
L 933.419911 229.948697 
L 935.804504 226.421014 
L 938.186918 222.89333 
L 940.567187 219.365646 
L 942.945343 215.837963 
L 945.321417 212.310279 
L 947.695439 208.782596 
L 950.067439 205.254912 
L 952.437446 201.727229 
L 954.805488 198.199545 
L 957.171591 194.671862 
L 959.535783 191.144178 
L 961.898088 187.616494 
L 964.25853 184.088811 
L 966.617134 180.561127 
L 968.973924 177.033444 
L 971.32892 173.50576 
L 973.682146 169.978077 
L 976.033621 166.450393 
L 978.383368 162.922709 
L 980.731405 159.395026 
L 983.077752 155.867342 
L 985.422429 152.339659 
L 987.765452 148.811975 
L 990.106841 145.284292 
L 992.446612 141.756608 
L 994.784783 138.228925 
L 997.12137 134.701241 
L 999.456389 131.173557 
L 1001.789855 127.645874 
L 1004.121785 124.11819 
L 1006.452192 120.590507 
L 1008.781091 117.062823 
L 1011.108497 113.53514 
L 1013.434424 110.007456 
L 1015.758883 106.479773 
L 1018.08189 102.952089 
L 1020.403456 99.424405 
L 1022.723594 95.896722 
L 1025.042316 92.369038 
L 1027.359634 88.841355 
L 1029.67556 85.313671 
L 1031.990105 81.785988 
L 1034.30328 78.258304 
L 1036.615095 74.730621 
L 1038.925562 71.202937 
L 1041.23469 67.675253 
L 1043.54249 64.14757 
L 1045.848971 60.619886 
L 1048.154143 57.092203 
L 1050.458015 53.564519 
L 1052.760596 50.036836 
L 1055.061895 46.509152 
L 1057.361921 42.981468 
L 1059.660681 39.453785 
L 1061.958186 35.926101 
L 1064.254441 32.398418 
L 1066.549456 28.870734 
L 1068.843238 25.343051 
L 1071.135793 21.815367 
L 1073.427131 18.287684 
L 1075.717257 14.76 
" clip-path="url(#p0d64ea4d7c)" style="fill: none; stroke-dasharray: 0.5,0.825; stroke-dashoffset: 0; stroke: #363636; stroke-width: 0.5"/>
   </g>
   <g id="line2d_26">
    <path d="M 192.222499 672.649307 
L 244.433546 655.156057 
L 244.433546 655.156057 
L 263.823414 648.965191 
L 284.073926 642.662222 
L 305.232174 636.244923 
L 327.347352 629.711096 
L 350.470767 623.058579 
L 374.655845 616.285266 
L 399.958109 609.389115 
L 426.435153 602.368173 
L 454.14658 595.220591 
L 483.153929 587.944644 
L 513.520558 580.53876 
L 545.311508 573.001548 
L 578.593321 565.331822 
L 613.433816 557.528641 
L 649.901819 549.591345 
L 688.066839 541.519595 
L 727.998678 533.313423 
L 769.766981 524.973278 
L 813.440703 516.500081 
L 859.087499 507.89529 
L 859.087499 507.89529 
L 862.552142 502.863297 
L 866.010685 497.831304 
L 869.463303 492.799311 
L 872.910161 487.767319 
L 876.351423 482.735326 
L 879.787247 477.703333 
L 883.217785 472.67134 
L 886.643185 467.639348 
L 890.06359 462.607355 
L 893.479138 457.575362 
L 896.889963 452.543369 
L 900.296196 447.511377 
L 903.69796 442.479384 
L 907.095378 437.447391 
L 910.488565 432.415398 
L 913.877634 427.383406 
L 917.262694 422.351413 
L 920.64385 417.31942 
L 924.021204 412.287427 
L 927.394852 407.255435 
L 930.764889 402.223442 
L 934.131405 397.191449 
L 937.494487 392.159456 
L 940.854221 387.127464 
L 944.210686 382.095471 
L 947.563961 377.063478 
L 950.91412 372.031485 
L 954.261236 366.999493 
L 957.605379 361.9675 
L 960.946615 356.935507 
L 964.285009 351.903514 
L 967.620621 346.871522 
L 970.953512 341.839529 
L 974.283739 336.807536 
L 977.611355 331.775543 
L 980.936414 326.743551 
L 984.258966 321.711558 
L 987.57906 316.679565 
L 990.896743 311.647572 
L 994.21206 306.61558 
L 997.525055 301.583587 
L 1000.835769 296.551594 
L 1004.144244 291.519601 
L 1007.450518 286.487609 
L 1010.754628 281.455616 
L 1014.05661 276.423623 
L 1017.356498 271.39163 
L 1020.654325 266.359638 
L 1023.950121 261.327645 
L 1027.243917 256.295652 
L 1030.535741 251.263659 
L 1033.82562 246.231667 
L 1037.113581 241.199674 
L 1040.399649 236.167681 
L 1043.683847 231.135688 
L 1046.9662 226.103696 
L 1050.24673 221.071703 
L 1053.525456 216.03971 
L 1056.8024 211.007717 
L 1060.077582 205.975725 
L 1063.351019 200.943732 
L 1066.622729 195.911739 
L 1069.892728 190.879746 
L 1073.161034 185.847754 
L 1076.427661 180.815761 
L 1079.692623 175.783768 
L 1082.955935 170.751775 
L 1086.217608 165.719783 
L 1089.477656 160.68779 
L 1092.73609 155.655797 
L 1095.99292 150.623804 
L 1099.248158 145.591812 
L 1102.501813 140.559819 
L 1105.753893 135.527826 
L 1109.004409 130.495833 
L 1112.253366 125.463841 
L 1115.500774 120.431848 
L 1118.746638 115.399855 
L 1121.990966 110.367862 
L 1125.233763 105.33587 
L 1128.475034 100.303877 
L 1131.714785 95.271884 
" clip-path="url(#p0d64ea4d7c)" style="fill: none; stroke-dasharray: 0.5,0.825; stroke-dashoffset: 0; stroke: #363636; stroke-width: 0.5"/>
   </g>
   <g id="line2d_27">
    <path d="M 468.891667 671.876896 
L 505.468012 665.990257 
L 544.084661 659.997992 
L 584.86308 653.897861 
L 627.930823 647.687629 
L 673.421666 641.365067 
L 721.475733 634.92797 
L 772.239581 628.374159 
L 825.866262 621.701501 
L 882.51534 614.907918 
L 882.51534 614.907918 
L 886.747865 608.78396 
L 890.970178 602.660002 
L 895.182599 596.536043 
L 899.385445 590.412085 
L 903.579026 584.288127 
L 907.763647 578.164168 
L 911.939605 572.04021 
L 916.107192 565.916251 
L 920.266692 559.792293 
L 924.41838 553.668335 
L 928.562526 547.544376 
L 932.69939 541.420418 
L 936.829224 535.29646 
L 940.952273 529.172501 
L 945.068773 523.048543 
L 949.178953 516.924585 
L 953.283034 510.800626 
L 957.381228 504.676668 
L 961.47374 498.55271 
L 965.560768 492.428751 
L 969.6425 486.304793 
L 973.719119 480.180835 
L 977.790801 474.056876 
L 981.857713 467.932918 
L 985.920017 461.80896 
L 989.977868 455.685001 
L 994.031414 449.561043 
L 998.080797 443.437084 
L 1002.126154 437.313126 
L 1006.167613 431.189168 
L 1010.2053 425.065209 
L 1014.239334 418.941251 
L 1018.269829 412.817293 
L 1022.296893 406.693334 
L 1026.32063 400.569376 
L 1030.34114 394.445418 
L 1034.358516 388.321459 
L 1038.372849 382.197501 
L 1042.384225 376.073543 
L 1046.392725 369.949584 
L 1050.398427 363.825626 
L 1054.401406 357.701668 
L 1058.401732 351.577709 
L 1062.399471 345.453751 
L 1066.394687 339.329793 
L 1070.387441 333.205834 
L 1074.377789 327.081876 
L 1078.365785 320.957917 
L 1082.351481 314.833959 
L 1086.334925 308.710001 
L 1090.316163 302.586042 
L 1094.295238 296.462084 
L 1098.27219 290.338126 
L 1102.247059 284.214167 
L 1106.219879 278.090209 
L 1110.190686 271.966251 
L 1114.159509 265.842292 
L 1118.126379 259.718334 
L 1122.091323 253.594376 
L 1126.054366 247.470417 
L 1130.015533 241.346459 
" clip-path="url(#p0d64ea4d7c)" style="fill: none; stroke-dasharray: 0.5,0.825; stroke-dashoffset: 0; stroke: #363636; stroke-width: 0.5"/>
   </g>
   <g id="line2d_28">
    <path d="M 945.674789 669.929187 
L 950.565733 662.884357 
L 955.442351 655.839528 
L 960.305126 648.794698 
L 965.154533 641.749868 
L 969.991039 634.705038 
L 974.8151 627.660208 
L 979.627162 620.615378 
L 984.427661 613.570548 
L 989.217021 606.525718 
L 993.995657 599.480888 
L 998.76397 592.436058 
L 1003.522351 585.391228 
L 1008.271179 578.346398 
L 1013.010821 571.301568 
L 1017.741633 564.256738 
L 1022.463957 557.211908 
L 1027.178126 550.167078 
L 1031.884459 543.122248 
L 1036.583264 536.077418 
L 1041.274838 529.032588 
L 1045.959466 521.987758 
L 1050.637422 514.942928 
L 1055.308969 507.898098 
L 1059.974361 500.853268 
L 1064.633838 493.808438 
L 1069.287633 486.763608 
L 1073.935968 479.718778 
L 1078.579056 472.673948 
L 1083.217098 465.629118 
L 1087.850289 458.584288 
L 1092.478813 451.539458 
L 1097.102848 444.494628 
L 1101.72256 437.449798 
L 1106.338111 430.404968 
L 1110.949651 423.360138 
L 1115.557326 416.315308 
L 1120.161274 409.270478 
L 1124.761624 402.225649 
L 1129.3585 395.180819 
" clip-path="url(#p0d64ea4d7c)" style="fill: none; stroke-dasharray: 0.5,0.825; stroke-dashoffset: 0; stroke: #363636; stroke-width: 0.5"/>
   </g>
   <g id="line2d_29">
    <path d="M 1036.43047 669.222161 
L 1041.743601 661.522606 
L 1047.04073 653.823051 
L 1052.322481 646.123496 
L 1057.589459 638.423941 
L 1062.842251 630.724386 
L 1068.081427 623.024832 
L 1073.307536 615.325277 
L 1078.521113 607.625722 
L 1083.722671 599.926167 
L 1088.912709 592.226612 
L 1094.091706 584.527057 
L 1099.260125 576.827503 
L 1104.418411 569.127948 
L 1109.566992 561.428393 
L 1114.706281 553.728838 
L 1119.836674 546.029283 
L 1124.95855 538.329728 
L 1130.072274 530.630174 
" clip-path="url(#p0d64ea4d7c)" style="fill: none; stroke-dasharray: 0.5,0.825; stroke-dashoffset: 0; stroke: #363636; stroke-width: 0.5"/>
   </g>
   <g id="line2d_30">
    <path d="M 47.914376 617.21936 
L 94.129074 588.937141 
L 134.444268 565.216133 
L 169.531361 545.753325 
L 199.955965 530.232724 
L 226.200752 518.335177 
L 248.680086 509.74557 
L 267.748356 504.158325 
L 268.00337 504.350127 
L 268.295298 517.563562 
L 268.811395 530.574063 
L 269.504461 542.647979 
L 270.439067 555.008212 
L 271.415012 565.448912 
L 272.888233 578.502859 
L 274.276526 588.925187 
L 275.935521 599.795645 
L 277.886894 611.025771 
L 280.148587 622.527364 
L 282.734498 634.215752 
L 285.654417 646.012223 
L 288.914183 657.845641 
L 291.277384 665.723797 
L 292.515987 669.653319 
L 292.515987 669.653319 
" clip-path="url(#p0d64ea4d7c)" style="fill: none; stroke-dasharray: 1.85,0.8; stroke-dashoffset: 0; stroke: #363636; stroke-width: 0.5"/>
   </g>
   <g id="line2d_31">
    <path d="M 138.928046 478.605191 
L 192.595943 439.120749 
L 240.064156 404.726703 
L 282.056054 375.066758 
L 319.18527 349.773403 
L 351.981166 328.480102 
L 380.906436 310.828991 
L 406.369596 296.475627 
L 428.734034 285.09188 
L 448.324658 276.367643 
L 465.432868 270.011759 
L 480.320347 265.752386 
L 493.222039 263.33686 
L 504.348569 262.531097 
L 513.888289 263.118522 
L 522.009027 264.898521 
L 528.859614 267.684412 
L 534.571175 271.300964 
L 539.258211 275.581558 
L 540.84478 278.057922 
L 541.655471 292.707847 
L 542.635064 306.816968 
L 543.823704 320.976482 
L 545.178825 334.674439 
L 546.864772 349.344548 
L 548.649242 362.903681 
L 550.755227 377.057928 
L 552.838658 389.599835 
L 555.196978 402.460402 
L 557.845354 415.58169 
L 560.194847 426.284908 
L 563.203393 438.946424 
L 566.496245 451.700751 
L 570.078962 464.503868 
L 573.955209 477.31451 
L 578.126817 490.094551 
L 582.593874 502.809263 
L 587.354863 515.427449 
L 592.406801 527.921475 
L 597.745408 540.267215 
L 603.365272 552.443932 
L 609.260021 564.434099 
L 615.422488 576.223192 
L 621.844868 587.799455 
L 628.518863 599.153654 
L 635.435821 610.278822 
L 642.586851 621.17002 
L 649.962934 631.824095 
L 657.555011 642.239457 
L 665.354068 652.415868 
L 673.351201 662.354252 
L 677.421307 667.234747 
L 677.421307 667.234747 
" clip-path="url(#p0d64ea4d7c)" style="fill: none; stroke-dasharray: 1.85,0.8; stroke-dashoffset: 0; stroke: #363636; stroke-width: 0.5"/>
   </g>
   <g id="line2d_32">
    <path d="M 272.476834 308.387122 
L 326.617299 264.276943 
L 374.862662 225.478734 
L 417.882641 191.567195 
L 456.253465 162.125577 
L 490.476839 136.75359 
L 520.993732 115.071521 
L 548.194686 96.722139 
L 572.427668 81.371364 
L 594.004118 68.708279 
L 613.203674 58.444795 
L 630.277902 50.31512 
L 645.45331 44.075083 
L 658.933844 39.501346 
L 670.903029 36.39049 
L 681.525858 34.557998 
L 690.9505 33.837146 
L 699.309879 34.077834 
L 706.723138 35.145399 
L 713.296985 36.919439 
L 719.126942 39.29267 
L 724.298473 42.169859 
L 728.887994 45.466807 
L 732.963791 49.109417 
L 736.58682 53.032816 
L 739.811423 57.180534 
L 742.685971 61.503727 
L 745.253439 65.960446 
L 747.551928 70.514933 
L 749.615141 75.136966 
L 751.472832 79.801231 
L 753.151211 84.486753 
L 754.673322 89.176355 
L 757.327176 98.515276 
L 759.568041 107.739529 
L 761.498287 116.805379 
L 763.196082 125.694285 
L 765.433012 138.696141 
L 768.045398 155.474628 
L 772.123484 183.646556 
L 774.25435 198.105871 
L 777.142118 213.580489 
L 779.918874 227.282958 
L 783.021459 241.472161 
L 786.454727 256.027639 
L 790.226498 270.861685 
L 793.49317 282.880972 
L 796.985717 295.000512 
L 800.707643 307.191156 
L 804.661777 319.425745 
L 810.648076 336.73741 
L 813.817465 345.385749 
L 817.104453 354.01855 
L 820.508885 362.628463 
L 824.030436 371.208593 
L 827.668615 379.752494 
L 831.422771 388.254151 
L 835.292098 396.707967 
L 839.275641 405.108746 
L 843.372307 413.451682 
L 847.580868 421.73235 
L 851.873212 427.692368 
L 856.240403 431.64405 
L 860.696454 435.363155 
L 865.237249 438.861081 
L 869.858723 442.148933 
L 874.556885 445.237497 
L 879.327834 448.137213 
L 884.167771 450.858158 
L 889.073015 453.410036 
L 894.040008 455.802174 
L 899.06532 458.043517 
L 904.145656 460.14263 
L 909.277859 462.107699 
L 914.458906 463.946538 
L 919.685916 465.666593 
L 924.956139 467.274951 
L 935.615911 470.183168 
L 946.418882 472.721007 
L 957.34771 474.933138 
L 968.386923 476.859435 
L 979.522769 478.535353 
L 990.743078 479.992309 
L 1002.037105 481.258051 
L 1013.395399 482.357023 
L 1030.535462 483.739041 
L 1047.777882 484.855185 
L 1065.103206 485.755884 
L 1088.305649 486.691612 
L 1111.598046 487.393399 
L 1129.112696 487.801757 
L 1129.112696 487.801757 
" clip-path="url(#p0d64ea4d7c)" style="fill: none; stroke-dasharray: 1.85,0.8; stroke-dashoffset: 0; stroke: #363636; stroke-width: 0.5"/>
   </g>
   <g id="line2d_33">
    <path d="M 397.760436 141.907103 
L 452.043771 94.415521 
L 500.649569 52.377641 
L 544.215026 15.321337 
L 563.825823 -1 
M 790.463665 -1 
L 989.796085 14.587555 
L 991.072396 16.987769 
L 992.3586 19.34981 
L 993.654866 21.673809 
L 994.961346 23.959916 
L 996.27817 26.2083 
L 997.605454 28.419148 
L 998.943296 30.592667 
L 1000.291778 32.72908 
L 1001.65097 34.828628 
L 1003.020923 36.891567 
L 1004.40168 38.91817 
L 1005.793267 40.908722 
L 1007.195701 42.863526 
L 1008.608986 44.782893 
L 1010.033116 46.667152 
L 1011.468074 48.516639 
L 1012.913836 50.331704 
L 1017.057321 55.277795 
L 1021.285629 59.960421 
L 1025.597191 64.388548 
L 1029.990071 68.571504 
L 1034.462039 72.518868 
L 1039.010634 76.240371 
L 1043.63322 79.74581 
L 1048.327034 83.04497 
L 1053.089226 86.147556 
L 1057.916897 89.06314 
L 1062.807131 91.801107 
L 1067.757016 94.370623 
L 1072.76367 96.780596 
L 1077.824256 99.039658 
L 1082.935998 101.15614 
L 1088.096194 103.138061 
L 1093.30222 104.993117 
L 1098.551545 106.728679 
L 1103.841728 108.351788 
L 1109.170426 109.869157 
L 1114.535396 111.287172 
L 1119.934493 112.611903 
L 1125.365674 113.849105 
L 1130.826995 115.004227 
" clip-path="url(#p0d64ea4d7c)" style="fill: none; stroke-dasharray: 1.85,0.8; stroke-dashoffset: 0; stroke: #363636; stroke-width: 0.5"/>
   </g>
   <g id="line2d_34">
    <path d="M 51.584793 677.937644 
L 71.363738 662.829988 
L 90.906587 647.722332 
L 110.230941 632.614676 
L 129.353576 617.50702 
L 148.290538 602.399364 
L 167.057243 587.291708 
L 185.66858 572.184052 
L 204.13902 557.076397 
L 222.482721 541.968741 
L 240.713643 526.861085 
L 258.845659 511.753429 
L 276.89269 496.645773 
L 294.868842 481.538117 
L 312.788577 466.430461 
L 330.666914 451.322805 
L 348.519677 436.215149 
L 366.363813 421.107493 
L 384.217788 405.999837 
L 402.102123 390.892181 
L 420.040105 375.784526 
L 438.058761 360.67687 
L 456.190243 345.569214 
L 474.473845 330.461558 
L 492.959062 315.353902 
L 511.710461 300.246246 
L 530.815732 285.13859 
L 550.399807 270.030934 
L 570.65178 254.923278 
L 591.88312 239.815622 
L 614.677765 224.707966 
L 616.152108 223.779754 
L 617.637258 222.851543 
L 619.133713 221.923331 
L 620.642006 220.995119 
L 622.16271 220.066907 
L 623.696444 219.138695 
L 625.243877 218.210483 
L 626.805735 217.282271 
L 628.382805 216.354059 
L 629.975945 215.425847 
L 631.586091 214.497635 
L 633.214272 213.569423 
L 634.861616 212.641211 
L 636.529371 211.712999 
L 638.218916 210.784787 
L 639.931787 209.856576 
L 641.669703 208.928364 
L 643.434589 208.000152 
L 645.228625 207.07194 
L 647.054283 206.143728 
L 648.914391 205.215516 
L 650.812208 204.287304 
L 652.751514 203.359092 
L 654.736742 202.43088 
L 656.773139 201.502668 
L 658.866986 200.574456 
L 661.025909 199.646244 
L 663.259306 198.718032 
L 665.578969 197.789821 
L 668.000022 196.861609 
L 670.542363 195.933397 
L 673.233026 195.005185 
L 676.110253 194.076973 
L 679.231053 193.148761 
L 682.686731 192.220549 
L 686.639491 191.292337 
L 691.429343 190.364125 
L 698.035889 189.435913 
L 720.514456 188.507701 
" clip-path="url(#p0d64ea4d7c)" style="fill: none; stroke: #363636; stroke-width: 0.5; stroke-linecap: square"/>
   </g>
   <g id="line2d_35">
    <path d="M 137.117054 677.937644 
L 154.237344 662.829988 
L 171.209576 647.722332 
L 188.044178 632.614676 
L 204.75124 617.50702 
L 221.340554 602.399364 
L 237.821657 587.291708 
L 254.203888 572.184052 
L 270.49645 557.076397 
L 286.708465 541.968741 
L 302.849045 526.861085 
L 318.927362 511.753429 
L 334.952731 496.645773 
L 350.934705 481.538117 
L 366.883188 466.430461 
L 382.808578 451.322805 
L 398.721942 436.215149 
L 414.635242 421.107493 
L 430.56163 405.999837 
L 446.515833 390.892181 
L 462.514682 375.784526 
L 478.577841 360.67687 
L 494.728838 345.569214 
L 510.996528 330.461558 
L 527.417232 315.353902 
L 544.038202 300.246246 
L 560.923736 285.13859 
L 578.166236 270.030934 
L 595.906997 254.923278 
L 614.380111 239.815622 
L 634.025215 224.707966 
L 635.287651 223.779754 
L 636.558208 222.851543 
L 637.837261 221.923331 
L 639.125212 220.995119 
L 640.422495 220.066907 
L 641.729577 219.138695 
L 643.046962 218.210483 
L 644.375199 217.282271 
L 645.714882 216.354059 
L 647.066658 215.425847 
L 648.431238 214.497635 
L 649.809396 213.569423 
L 651.201988 212.641211 
L 652.609955 211.712999 
L 654.034343 210.784787 
L 655.476315 209.856576 
L 656.93717 208.928364 
L 658.418369 208.000152 
L 659.921563 207.07194 
L 661.448627 206.143728 
L 663.001707 205.215516 
L 664.583275 204.287304 
L 666.196205 203.359092 
L 667.843865 202.43088 
L 669.530246 201.502668 
L 671.260128 200.574456 
L 673.039321 199.646244 
L 674.87499 198.718032 
L 676.776136 197.789821 
L 678.754313 196.861609 
L 680.824743 195.933397 
L 683.008136 195.005185 
L 685.333832 194.076973 
L 687.845652 193.148761 
L 690.613933 192.220549 
L 693.763963 191.292337 
L 697.559282 190.364125 
L 702.763058 189.435913 
L 720.514456 188.507701 
" clip-path="url(#p0d64ea4d7c)" style="fill: none; stroke: #363636; stroke-width: 0.5; stroke-linecap: square"/>
   </g>
   <g id="line2d_36">
    <path d="M 222.649315 677.937644 
L 237.11095 662.829988 
L 251.512564 647.722332 
L 265.857415 632.614676 
L 280.148905 617.50702 
L 294.39057 602.399364 
L 308.58607 587.291708 
L 322.739197 572.184052 
L 336.85388 557.076397 
L 350.934208 541.968741 
L 364.984446 526.861085 
L 379.009064 511.753429 
L 393.012771 496.645773 
L 407.000567 481.538117 
L 420.977799 466.430461 
L 434.950242 451.322805 
L 448.924206 436.215149 
L 462.906672 421.107493 
L 476.905473 405.999837 
L 490.929543 390.892181 
L 504.989259 375.784526 
L 519.096921 360.67687 
L 533.267434 345.569214 
L 547.519212 330.461558 
L 561.875401 315.353902 
L 576.365943 300.246246 
L 591.03174 285.13859 
L 605.932666 270.030934 
L 621.162213 254.923278 
L 636.877102 239.815622 
L 653.372666 224.707966 
L 654.423194 223.779754 
L 655.479157 222.851543 
L 656.540808 221.923331 
L 657.608419 220.995119 
L 658.682281 220.066907 
L 659.76271 219.138695 
L 660.850047 218.210483 
L 661.944662 217.282271 
L 663.046958 216.354059 
L 664.157372 215.425847 
L 665.276385 214.497635 
L 666.404521 213.569423 
L 667.54236 212.641211 
L 668.69054 211.712999 
L 669.849771 210.784787 
L 671.020842 209.856576 
L 672.204637 208.928364 
L 673.402149 208.000152 
L 674.614501 207.07194 
L 675.842971 206.143728 
L 677.089022 205.215516 
L 678.354343 204.287304 
L 679.640897 203.359092 
L 680.950989 202.43088 
L 682.287352 201.502668 
L 683.65327 200.574456 
L 685.052733 199.646244 
L 686.490674 198.718032 
L 687.973302 197.789821 
L 689.508604 196.861609 
L 691.107123 195.933397 
L 692.783246 195.005185 
L 694.557411 194.076973 
L 696.460252 193.148761 
L 698.541136 192.220549 
L 700.888435 191.292337 
L 703.689221 190.364125 
L 707.490228 189.435913 
L 720.514456 188.507701 
" clip-path="url(#p0d64ea4d7c)" style="fill: none; stroke: #363636; stroke-width: 0.5; stroke-linecap: square"/>
   </g>
   <g id="line2d_37">
    <path d="M 308.181576 677.937644 
L 319.984555 662.829988 
L 331.815553 647.722332 
L 343.670651 632.614676 
L 355.546569 617.50702 
L 367.440586 602.399364 
L 379.350484 587.291708 
L 391.274505 572.184052 
L 403.21131 557.076397 
L 415.159952 541.968741 
L 427.119848 526.861085 
L 439.090766 511.753429 
L 451.072812 496.645773 
L 463.06643 481.538117 
L 475.072409 466.430461 
L 487.091906 451.322805 
L 499.12647 436.215149 
L 511.178101 421.107493 
L 523.249315 405.999837 
L 535.343253 390.892181 
L 547.463836 375.784526 
L 559.616001 360.67687 
L 571.806029 345.569214 
L 584.041896 330.461558 
L 596.33357 315.353902 
L 608.693684 300.246246 
L 621.139744 285.13859 
L 633.699096 270.030934 
L 646.41743 254.923278 
L 659.374093 239.815622 
L 672.720117 224.707966 
L 673.558737 223.779754 
L 674.400106 222.851543 
L 675.244356 221.923331 
L 676.091625 220.995119 
L 676.942066 220.066907 
L 677.795843 219.138695 
L 678.653132 218.210483 
L 679.514126 217.282271 
L 680.379035 216.354059 
L 681.248086 215.425847 
L 682.121531 214.497635 
L 682.999645 213.569423 
L 683.882731 212.641211 
L 684.771125 211.712999 
L 685.665199 210.784787 
L 686.56537 209.856576 
L 687.472105 208.928364 
L 688.385929 208.000152 
L 689.307439 207.07194 
L 690.237315 206.143728 
L 691.176338 205.215516 
L 692.125411 204.287304 
L 693.085588 203.359092 
L 694.058112 202.43088 
L 695.044459 201.502668 
L 696.046412 200.574456 
L 697.066145 199.646244 
L 698.106359 198.718032 
L 699.170469 197.789821 
L 700.262894 196.861609 
L 701.389503 195.933397 
L 702.558355 195.005185 
L 703.78099 194.076973 
L 705.074852 193.148761 
L 706.468339 192.220549 
L 708.012906 191.292337 
L 709.81916 190.364125 
L 712.217398 189.435913 
L 720.514456 188.507701 
" clip-path="url(#p0d64ea4d7c)" style="fill: none; stroke: #363636; stroke-width: 0.5; stroke-linecap: square"/>
   </g>
   <g id="line2d_38">
    <path d="M 393.713837 677.937644 
L 402.858161 662.829988 
L 412.118541 647.722332 
L 421.483888 632.614676 
L 430.944234 617.50702 
L 440.490602 602.399364 
L 450.114898 587.291708 
L 459.809813 572.184052 
L 469.56874 557.076397 
L 479.385695 541.968741 
L 489.25525 526.861085 
L 499.172468 511.753429 
L 509.132852 496.645773 
L 519.132292 481.538117 
L 529.16702 466.430461 
L 539.23357 451.322805 
L 549.328734 436.215149 
L 559.44953 421.107493 
L 569.593158 405.999837 
L 579.756963 390.892181 
L 589.938413 375.784526 
L 600.135081 360.67687 
L 610.344624 345.569214 
L 620.564579 330.461558 
L 630.79174 315.353902 
L 641.021425 300.246246 
L 651.247748 285.13859 
L 661.465526 270.030934 
L 671.672646 254.923278 
L 681.871084 239.815622 
L 692.067568 224.707966 
L 692.69428 223.779754 
L 693.321056 222.851543 
L 693.947903 221.923331 
L 694.574831 220.995119 
L 695.201852 220.066907 
L 695.828976 219.138695 
L 696.456217 218.210483 
L 697.08359 217.282271 
L 697.711111 216.354059 
L 698.3388 215.425847 
L 698.966678 214.497635 
L 699.59477 213.569423 
L 700.223103 212.641211 
L 700.851709 211.712999 
L 701.480627 210.784787 
L 702.109897 209.856576 
L 702.739572 208.928364 
L 703.369709 208.000152 
L 704.000377 207.07194 
L 704.631659 206.143728 
L 705.263653 205.215516 
L 705.896479 204.287304 
L 706.53028 203.359092 
L 707.165235 202.43088 
L 707.801566 201.502668 
L 708.439554 200.574456 
L 709.079556 199.646244 
L 709.722043 198.718032 
L 710.367636 197.789821 
L 711.017185 196.861609 
L 711.671883 195.933397 
L 712.333465 195.005185 
L 713.004569 194.076973 
L 713.689452 193.148761 
L 714.395542 192.220549 
L 715.137378 191.292337 
L 715.949099 190.364125 
L 716.944568 189.435913 
L 720.514456 188.507701 
" clip-path="url(#p0d64ea4d7c)" style="fill: none; stroke: #363636; stroke-width: 0.5; stroke-linecap: square"/>
   </g>
   <g id="line2d_39">
    <path d="M 479.246098 677.937644 
L 485.731767 662.829988 
L 492.42153 647.722332 
L 499.297125 632.614676 
L 506.341899 617.50702 
L 513.540618 602.399364 
L 520.879311 587.291708 
L 528.345121 572.184052 
L 535.92617 557.076397 
L 543.611439 541.968741 
L 551.390652 526.861085 
L 559.25417 511.753429 
L 567.192893 496.645773 
L 575.198155 481.538117 
L 583.261631 466.430461 
L 591.375234 451.322805 
L 599.530999 436.215149 
L 607.72096 421.107493 
L 615.937 405.999837 
L 624.170673 390.892181 
L 632.41299 375.784526 
L 640.654161 360.67687 
L 648.883219 345.569214 
L 657.087263 330.461558 
L 665.249909 315.353902 
L 673.349166 300.246246 
L 681.355752 285.13859 
L 689.231956 270.030934 
L 696.927863 254.923278 
L 704.368075 239.815622 
L 711.415018 224.707966 
L 711.829823 223.779754 
L 712.242005 222.851543 
L 712.65145 221.923331 
L 713.058038 220.995119 
L 713.461637 220.066907 
L 713.862109 219.138695 
L 714.259302 218.210483 
L 714.653053 217.282271 
L 715.043188 216.354059 
L 715.429514 215.425847 
L 715.811825 214.497635 
L 716.189894 213.569423 
L 716.563474 212.641211 
L 716.932294 211.712999 
L 717.296054 210.784787 
L 717.654425 209.856576 
L 718.007039 208.928364 
L 718.353488 208.000152 
L 718.693315 207.07194 
L 719.026003 206.143728 
L 719.350969 205.215516 
L 719.667546 204.287304 
L 719.974971 203.359092 
L 720.272358 202.43088 
L 720.558673 201.502668 
L 720.832695 200.574456 
L 721.092968 199.646244 
L 721.337727 198.718032 
L 721.564803 197.789821 
L 721.771476 196.861609 
L 721.954264 195.933397 
L 722.108575 195.005185 
L 722.228148 194.076973 
L 722.304052 193.148761 
L 722.322745 192.220549 
L 722.26185 191.292337 
L 722.079038 190.364125 
L 721.671738 189.435913 
L 720.514456 188.507701 
" clip-path="url(#p0d64ea4d7c)" style="fill: none; stroke: #363636; stroke-width: 0.5; stroke-linecap: square"/>
   </g>
   <g id="line2d_40">
    <path d="M 564.778359 677.937644 
L 568.605372 662.829988 
L 572.724518 647.722332 
L 577.110362 632.614676 
L 581.739563 617.50702 
L 586.590634 602.399364 
L 591.643725 587.291708 
L 596.880429 572.184052 
L 602.2836 557.076397 
L 607.837182 541.968741 
L 613.526053 526.861085 
L 619.335873 511.753429 
L 625.252934 496.645773 
L 631.264017 481.538117 
L 637.356242 466.430461 
L 643.516898 451.322805 
L 649.733263 436.215149 
L 655.992389 421.107493 
L 662.280842 405.999837 
L 668.584383 390.892181 
L 674.887567 375.784526 
L 681.173241 360.67687 
L 687.421815 345.569214 
L 693.609946 330.461558 
L 699.708078 315.353902 
L 705.676908 300.246246 
L 711.463756 285.13859 
L 716.998385 270.030934 
L 722.183079 254.923278 
L 726.865065 239.815622 
L 730.762469 224.707966 
L 730.965366 223.779754 
L 731.162954 222.851543 
L 731.354998 221.923331 
L 731.541244 220.995119 
L 731.721423 220.066907 
L 731.895242 219.138695 
L 732.062386 218.210483 
L 732.222517 217.282271 
L 732.375264 216.354059 
L 732.520228 215.425847 
L 732.656972 214.497635 
L 732.785019 213.569423 
L 732.903846 212.641211 
L 733.012879 211.712999 
L 733.111482 210.784787 
L 733.198952 209.856576 
L 733.274506 208.928364 
L 733.337268 208.000152 
L 733.386253 207.07194 
L 733.420347 206.143728 
L 733.438284 205.215516 
L 733.438614 204.287304 
L 733.419663 203.359092 
L 733.379481 202.43088 
L 733.31578 201.502668 
L 733.225837 200.574456 
L 733.10638 199.646244 
L 732.953411 198.718032 
L 732.761969 197.789821 
L 732.525767 196.861609 
L 732.236644 195.933397 
L 731.883685 195.005185 
L 731.451728 194.076973 
L 730.918651 193.148761 
L 730.249947 192.220549 
L 729.386322 191.292337 
L 728.208977 190.364125 
L 726.398908 189.435913 
L 720.514456 188.507701 
" clip-path="url(#p0d64ea4d7c)" style="fill: none; stroke: #363636; stroke-width: 0.5; stroke-linecap: square"/>
   </g>
   <g id="line2d_41">
    <path d="M 650.31062 677.937644 
L 651.478978 662.829988 
L 653.027507 647.722332 
L 654.923599 632.614676 
L 657.137228 617.50702 
L 659.64065 602.399364 
L 662.408138 587.291708 
L 665.415737 572.184052 
L 668.64103 557.076397 
L 672.062925 541.968741 
L 675.661455 526.861085 
L 679.417575 511.753429 
L 683.312974 496.645773 
L 687.32988 481.538117 
L 691.450853 466.430461 
L 695.658562 451.322805 
L 699.935527 436.215149 
L 704.263819 421.107493 
L 708.624685 405.999837 
L 712.998093 390.892181 
L 717.362144 375.784526 
L 721.692321 360.67687 
L 725.96041 345.569214 
L 730.13263 330.461558 
L 734.166247 315.353902 
L 738.004649 300.246246 
L 741.57176 285.13859 
L 744.764815 270.030934 
L 747.438296 254.923278 
L 749.362056 239.815622 
L 750.10992 224.707966 
L 750.100909 223.779754 
L 750.083904 222.851543 
L 750.058545 221.923331 
L 750.024451 220.995119 
L 749.981208 220.066907 
L 749.928375 219.138695 
L 749.865471 218.210483 
L 749.79198 217.282271 
L 749.707341 216.354059 
L 749.610942 215.425847 
L 749.502118 214.497635 
L 749.380143 213.569423 
L 749.244217 212.641211 
L 749.093463 211.712999 
L 748.92691 210.784787 
L 748.74348 209.856576 
L 748.541974 208.928364 
L 748.321048 208.000152 
L 748.079191 207.07194 
L 747.814691 206.143728 
L 747.5256 205.215516 
L 747.209682 204.287304 
L 746.864354 203.359092 
L 746.486604 202.43088 
L 746.072887 201.502668 
L 745.618979 200.574456 
L 745.119792 199.646244 
L 744.569096 198.718032 
L 743.959136 197.789821 
L 743.280058 196.861609 
L 742.519024 195.933397 
L 741.658794 195.005185 
L 740.675307 194.076973 
L 739.533251 193.148761 
L 738.17715 192.220549 
L 736.510793 191.292337 
L 734.338916 190.364125 
L 731.126077 189.435913 
L 720.514456 188.507701 
" clip-path="url(#p0d64ea4d7c)" style="fill: none; stroke: #363636; stroke-width: 0.5; stroke-linecap: square"/>
   </g>
   <g id="line2d_42">
    <path d="M 735.842881 677.937644 
L 734.352583 662.829988 
L 733.330495 647.722332 
L 732.736836 632.614676 
L 732.534892 617.50702 
L 732.690665 602.399364 
L 733.172552 587.291708 
L 733.951045 572.184052 
L 734.99846 557.076397 
L 736.288669 541.968741 
L 737.796857 526.861085 
L 739.499277 511.753429 
L 741.373015 496.645773 
L 743.395742 481.538117 
L 745.545464 466.430461 
L 747.800226 451.322805 
L 750.137791 436.215149 
L 752.535248 421.107493 
L 754.968527 405.999837 
L 757.411803 390.892181 
L 759.836721 375.784526 
L 762.211401 360.67687 
L 764.499005 345.569214 
L 766.655314 330.461558 
L 768.624417 315.353902 
L 770.33239 300.246246 
L 771.679764 285.13859 
L 772.531245 270.030934 
L 772.693512 254.923278 
L 771.859047 239.815622 
L 769.45737 224.707966 
L 769.236452 223.779754 
L 769.004853 222.851543 
L 768.762092 221.923331 
L 768.507657 220.995119 
L 768.240994 220.066907 
L 767.961508 219.138695 
L 767.668556 218.210483 
L 767.361444 217.282271 
L 767.039417 216.354059 
L 766.701656 215.425847 
L 766.347265 214.497635 
L 765.975267 213.569423 
L 765.584589 212.641211 
L 765.174048 211.712999 
L 764.742338 210.784787 
L 764.288007 209.856576 
L 763.809441 208.928364 
L 763.304828 208.000152 
L 762.772129 207.07194 
L 762.209035 206.143728 
L 761.612915 205.215516 
L 760.98075 204.287304 
L 760.309046 203.359092 
L 759.593728 202.43088 
L 758.829993 201.502668 
L 758.012121 200.574456 
L 757.133204 199.646244 
L 756.18478 198.718032 
L 755.156303 197.789821 
L 754.034349 196.861609 
L 752.801404 195.933397 
L 751.433904 195.005185 
L 749.898886 194.076973 
L 748.147851 193.148761 
L 746.104353 192.220549 
L 743.635265 191.292337 
L 740.468855 190.364125 
L 735.853247 189.435913 
L 720.514456 188.507701 
" clip-path="url(#p0d64ea4d7c)" style="fill: none; stroke: #363636; stroke-width: 0.5; stroke-linecap: square"/>
   </g>
   <g id="line2d_43">
    <path d="M 821.375142 677.937644 
L 817.226189 662.829988 
L 813.633484 647.722332 
L 810.550073 632.614676 
L 807.932557 617.50702 
L 805.740681 602.399364 
L 803.936966 587.291708 
L 802.486353 572.184052 
L 801.35589 557.076397 
L 800.514412 541.968741 
L 799.932259 526.861085 
L 799.580979 511.753429 
L 799.433055 496.645773 
L 799.461605 481.538117 
L 799.640074 466.430461 
L 799.94189 451.322805 
L 800.340055 436.215149 
L 800.806677 421.107493 
L 801.31237 405.999837 
L 801.825513 390.892181 
L 802.311298 375.784526 
L 802.73048 360.67687 
L 803.0376 345.569214 
L 803.177997 330.461558 
L 803.082586 315.353902 
L 802.660131 300.246246 
L 801.787768 285.13859 
L 800.297675 270.030934 
L 797.948729 254.923278 
L 794.356038 239.815622 
L 788.804821 224.707966 
L 788.371996 223.779754 
L 787.925802 222.851543 
L 787.46564 221.923331 
L 786.990863 220.995119 
L 786.500779 220.066907 
L 785.994641 219.138695 
L 785.471641 218.210483 
L 784.930908 217.282271 
L 784.371494 216.354059 
L 783.792369 215.425847 
L 783.192412 214.497635 
L 782.570392 213.569423 
L 781.924961 212.641211 
L 781.254633 211.712999 
L 780.557765 210.784787 
L 779.832535 209.856576 
L 779.076908 208.928364 
L 778.288608 208.000152 
L 777.465067 207.07194 
L 776.603379 206.143728 
L 775.700231 205.215516 
L 774.751817 204.287304 
L 773.753737 203.359092 
L 772.700851 202.43088 
L 771.5871 201.502668 
L 770.405263 200.574456 
L 769.146615 199.646244 
L 767.800464 198.718032 
L 766.353469 197.789821 
L 764.78864 196.861609 
L 763.083784 195.933397 
L 761.209014 195.005185 
L 759.122465 194.076973 
L 756.762451 193.148761 
L 754.031556 192.220549 
L 750.759737 191.292337 
L 746.598794 190.364125 
L 740.580417 189.435913 
L 720.514456 188.507701 
" clip-path="url(#p0d64ea4d7c)" style="fill: none; stroke: #363636; stroke-width: 0.5; stroke-linecap: square"/>
   </g>
   <g id="line2d_44">
    <path d="M 906.907404 677.937644 
L 900.099795 662.829988 
L 893.936473 647.722332 
L 888.36331 632.614676 
L 883.330221 617.50702 
L 878.790697 602.399364 
L 874.701379 587.291708 
L 871.021661 572.184052 
L 867.71332 557.076397 
L 864.740156 541.968741 
L 862.06766 526.861085 
L 859.662682 511.753429 
L 857.493096 496.645773 
L 855.527467 481.538117 
L 853.734685 466.430461 
L 852.083554 451.322805 
L 850.54232 436.215149 
L 849.078107 421.107493 
L 847.656212 405.999837 
L 846.239223 390.892181 
L 844.785876 375.784526 
L 843.24956 360.67687 
L 841.576196 345.569214 
L 839.700681 330.461558 
L 837.540755 315.353902 
L 834.987872 300.246246 
L 831.895772 285.13859 
L 828.064105 270.030934 
L 823.203945 254.923278 
L 816.853029 239.815622 
L 808.152272 224.707966 
L 807.507539 223.779754 
L 806.846752 222.851543 
L 806.169187 221.923331 
L 805.47407 220.995119 
L 804.760565 220.066907 
L 804.027774 219.138695 
L 803.274726 218.210483 
L 802.500371 217.282271 
L 801.70357 216.354059 
L 800.883083 215.425847 
L 800.037558 214.497635 
L 799.165516 213.569423 
L 798.265332 212.641211 
L 797.335217 211.712999 
L 796.373193 210.784787 
L 795.377062 209.856576 
L 794.344376 208.928364 
L 793.272387 208.000152 
L 792.158005 207.07194 
L 790.997723 206.143728 
L 789.787546 205.215516 
L 788.522885 204.287304 
L 787.198428 203.359092 
L 785.807974 202.43088 
L 784.344207 201.502668 
L 782.798405 200.574456 
L 781.160027 199.646244 
L 779.416149 198.718032 
L 777.550636 197.789821 
L 775.54293 196.861609 
L 773.366165 195.933397 
L 770.984123 195.005185 
L 768.346044 194.076973 
L 765.377051 193.148761 
L 761.958759 192.220549 
L 757.884209 191.292337 
L 752.728733 190.364125 
L 745.307587 189.435913 
L 720.514456 188.507701 
" clip-path="url(#p0d64ea4d7c)" style="fill: none; stroke: #363636; stroke-width: 0.5; stroke-linecap: square"/>
   </g>
   <g id="patch_3">
    <path d="M 52.85 667.211 
L 52.85 14.76 
" style="fill: none; stroke: #ffffff; stroke-width: 0.8; stroke-linejoin: miter; stroke-linecap: square"/>
   </g>
   <g id="patch_4">
    <path d="M 1128.6 667.211 
L 1128.6 14.76 
" style="fill: none; stroke: #ffffff; stroke-width: 0.8; stroke-linejoin: miter; stroke-linecap: square"/>
   </g>
   <g id="patch_5">
    <path d="M 52.85 667.211 
L 1128.6 667.211 
" style="fill: none; stroke: #ffffff; stroke-width: 0.8; stroke-linejoin: miter; stroke-linecap: square"/>
   </g>
   <g id="patch_6">
    <path d="M 52.85 14.76 
L 1128.6 14.76 
" style="fill: none; stroke: #ffffff; stroke-width: 0.8; stroke-linejoin: miter; stroke-linecap: square"/>
   </g>
   <g id="text_18">
    <g id="patch_7">
     <path d="M 1112.264058 611.707265 
L 1123.074776 597.523002 
L 1119.226111 594.589693 
L 1108.415393 608.773955 
z
" style="stroke: #000000; stroke-linejoin: miter"/>
    </g>
    <!-- 0.1 bar -->
    <g style="fill: #ffffff" transform="translate(1111.437037 611.07694) rotate(-52.686698) scale(0.05 -0.05)">
     <defs>
      <path id="DejaVuSans-2e" d="M 684 794 
L 1344 794 
L 1344 0 
L 684 0 
L 684 794 
z
" transform="scale(0.015625)"/>
      <path id="DejaVuSans-62" d="M 3116 1747 
Q 3116 2381 2855 2742 
Q 2594 3103 2138 3103 
Q 1681 3103 1420 2742 
Q 1159 2381 1159 1747 
Q 1159 1113 1420 752 
Q 1681 391 2138 391 
Q 2594 391 2855 752 
Q 3116 1113 3116 1747 
z
M 1159 2969 
Q 1341 3281 1617 3432 
Q 1894 3584 2278 3584 
Q 2916 3584 3314 3078 
Q 3713 2572 3713 1747 
Q 3713 922 3314 415 
Q 2916 -91 2278 -91 
Q 1894 -91 1617 61 
Q 1341 213 1159 525 
L 1159 0 
L 581 0 
L 581 4863 
L 1159 4863 
L 1159 2969 
z
" transform="scale(0.015625)"/>
      <path id="DejaVuSans-61" d="M 2194 1759 
Q 1497 1759 1228 1600 
Q 959 1441 959 1056 
Q 959 750 1161 570 
Q 1363 391 1709 391 
Q 2188 391 2477 730 
Q 2766 1069 2766 1631 
L 2766 1759 
L 2194 1759 
z
M 3341 1997 
L 3341 0 
L 2766 0 
L 2766 531 
Q 2569 213 2275 61 
Q 1981 -91 1556 -91 
Q 1019 -91 701 211 
Q 384 513 384 1019 
Q 384 1609 779 1909 
Q 1175 2209 1959 2209 
L 2766 2209 
L 2766 2266 
Q 2766 2663 2505 2880 
Q 2244 3097 1772 3097 
Q 1472 3097 1187 3025 
Q 903 2953 641 2809 
L 641 3341 
Q 956 3463 1253 3523 
Q 1550 3584 1831 3584 
Q 2591 3584 2966 3190 
Q 3341 2797 3341 1997 
z
" transform="scale(0.015625)"/>
      <path id="DejaVuSans-72" d="M 2631 2963 
Q 2534 3019 2420 3045 
Q 2306 3072 2169 3072 
Q 1681 3072 1420 2755 
Q 1159 2438 1159 1844 
L 1159 0 
L 581 0 
L 581 3500 
L 1159 3500 
L 1159 2956 
Q 1341 3275 1631 3429 
Q 1922 3584 2338 3584 
Q 2397 3584 2469 3576 
Q 2541 3569 2628 3553 
L 2631 2963 
z
" transform="scale(0.015625)"/>
     </defs>
     <use xlink:href="#DejaVuSans-30"/>
     <use xlink:href="#DejaVuSans-2e" x="63.623047"/>
     <use xlink:href="#DejaVuSans-31" x="95.410156"/>
     <use xlink:href="#DejaVuSans-20" x="159.033203"/>
     <use xlink:href="#DejaVuSans-62" x="190.820312"/>
     <use xlink:href="#DejaVuSans-61" x="254.296875"/>
     <use xlink:href="#DejaVuSans-72" x="315.576172"/>
    </g>
   </g>
   <g id="text_19">
    <g id="patch_8">
     <path d="M 1102.535124 507.019894 
L 1113.114516 492.662269 
L 1109.218813 489.791726 
L 1098.63942 504.149351 
z
" style="stroke: #000000; stroke-linejoin: miter"/>
    </g>
    <!-- 0.3 bar -->
    <g style="fill: #ffffff" transform="translate(1101.697994 506.403056) rotate(-53.615415) scale(0.05 -0.05)">
     <use xlink:href="#DejaVuSans-30"/>
     <use xlink:href="#DejaVuSans-2e" x="63.623047"/>
     <use xlink:href="#DejaVuSans-33" x="95.410156"/>
     <use xlink:href="#DejaVuSans-20" x="159.033203"/>
     <use xlink:href="#DejaVuSans-62" x="190.820312"/>
     <use xlink:href="#DejaVuSans-61" x="254.296875"/>
     <use xlink:href="#DejaVuSans-72" x="315.576172"/>
    </g>
   </g>
   <g id="text_20">
    <g id="patch_9">
     <path d="M 1061.586171 428.359357 
L 1072.083947 413.94195 
L 1068.172022 411.093552 
L 1057.674246 425.510959 
z
" style="stroke: #000000; stroke-linejoin: miter"/>
    </g>
    <!-- 1.0 bar -->
    <g style="fill: #ffffff" transform="translate(1060.745555 427.747278) rotate(-53.940436) scale(0.05 -0.05)">
     <use xlink:href="#DejaVuSans-31"/>
     <use xlink:href="#DejaVuSans-2e" x="63.623047"/>
     <use xlink:href="#DejaVuSans-30" x="95.410156"/>
     <use xlink:href="#DejaVuSans-20" x="159.033203"/>
     <use xlink:href="#DejaVuSans-62" x="190.820312"/>
     <use xlink:href="#DejaVuSans-61" x="254.296875"/>
     <use xlink:href="#DejaVuSans-72" x="315.576172"/>
    </g>
   </g>
   <g id="text_21">
    <g id="patch_10">
     <path d="M 1034.053521 338.81522 
L 1044.538203 324.388287 
L 1040.623693 321.543442 
L 1030.139011 335.970375 
z
" style="stroke: #000000; stroke-linejoin: miter"/>
    </g>
    <!-- 3.0 bar -->
    <g style="fill: #ffffff" transform="translate(1033.21235 338.203904) rotate(-53.992458) scale(0.05 -0.05)">
     <use xlink:href="#DejaVuSans-33"/>
     <use xlink:href="#DejaVuSans-2e" x="63.623047"/>
     <use xlink:href="#DejaVuSans-30" x="95.410156"/>
     <use xlink:href="#DejaVuSans-20" x="159.033203"/>
     <use xlink:href="#DejaVuSans-62" x="190.820312"/>
     <use xlink:href="#DejaVuSans-61" x="254.296875"/>
     <use xlink:href="#DejaVuSans-72" x="315.576172"/>
    </g>
   </g>
   <g id="text_22">
    <g id="patch_11">
     <path d="M 1026.32661 200.24396 
L 1038.786564 183.320424 
L 1034.889747 180.451393 
L 1022.429793 197.374928 
z
" style="stroke: #000000; stroke-linejoin: miter"/>
    </g>
    <!-- 10.0 bar -->
    <g style="fill: #ffffff" transform="translate(1025.489241 199.627447) rotate(-53.637639) scale(0.05 -0.05)">
     <use xlink:href="#DejaVuSans-31"/>
     <use xlink:href="#DejaVuSans-30" x="63.623047"/>
     <use xlink:href="#DejaVuSans-2e" x="127.246094"/>
     <use xlink:href="#DejaVuSans-30" x="159.033203"/>
     <use xlink:href="#DejaVuSans-20" x="222.65625"/>
     <use xlink:href="#DejaVuSans-62" x="254.443359"/>
     <use xlink:href="#DejaVuSans-61" x="317.919922"/>
     <use xlink:href="#DejaVuSans-72" x="379.199219"/>
    </g>
   </g>
   <g id="text_23">
    <g id="patch_12">
     <path d="M 969.442499 112.245933 
L 982.889769 96.09578 
L 979.171031 92.999409 
L 965.723761 109.149562 
z
" style="stroke: #000000; stroke-linejoin: miter"/>
    </g>
    <!-- 30.0 bar -->
    <g style="fill: #ffffff" transform="translate(968.643397 111.580568) rotate(-50.217869) scale(0.05 -0.05)">
     <use xlink:href="#DejaVuSans-33"/>
     <use xlink:href="#DejaVuSans-30" x="63.623047"/>
     <use xlink:href="#DejaVuSans-2e" x="127.246094"/>
     <use xlink:href="#DejaVuSans-30" x="159.033203"/>
     <use xlink:href="#DejaVuSans-20" x="222.65625"/>
     <use xlink:href="#DejaVuSans-62" x="254.443359"/>
     <use xlink:href="#DejaVuSans-61" x="317.919922"/>
     <use xlink:href="#DejaVuSans-72" x="379.199219"/>
    </g>
   </g>
   <g id="text_24">
    <g id="patch_13">
     <path d="M 763.469213 60.633675 
L 782.399169 45.562327 
L 779.385094 41.77658 
L 760.455138 56.847928 
z
" style="stroke: #000000; stroke-linejoin: miter"/>
    </g>
    <!-- 100.0 bar -->
    <g style="fill: #ffffff" transform="translate(762.821532 59.820173) rotate(-38.525538) scale(0.05 -0.05)">
     <use xlink:href="#DejaVuSans-31"/>
     <use xlink:href="#DejaVuSans-30" x="63.623047"/>
     <use xlink:href="#DejaVuSans-30" x="127.246094"/>
     <use xlink:href="#DejaVuSans-2e" x="190.869141"/>
     <use xlink:href="#DejaVuSans-30" x="222.65625"/>
     <use xlink:href="#DejaVuSans-20" x="286.279297"/>
     <use xlink:href="#DejaVuSans-62" x="318.066406"/>
     <use xlink:href="#DejaVuSans-61" x="381.542969"/>
     <use xlink:href="#DejaVuSans-72" x="442.822266"/>
    </g>
   </g>
   <g id="text_25">
    <g id="patch_14">
     <path d="M 665.708173 177.597089 
L 678.283671 159.789876 
L 671.626388 155.088485 
L 659.050889 172.895698 
z
" style="stroke: #000000; stroke-linejoin: miter"/>
    </g>
    <!-- 0.003 $\frac{m^3}{kg}$ -->
    <g style="fill: #ffffff" transform="translate(663.421008 175.981887) rotate(-54.770166) scale(0.05 -0.05)">
     <defs>
      <path id="DejaVuSans-Oblique-6d" d="M 5747 2113 
L 5338 0 
L 4763 0 
L 5166 2094 
Q 5191 2228 5203 2325 
Q 5216 2422 5216 2491 
Q 5216 2772 5059 2928 
Q 4903 3084 4622 3084 
Q 4203 3084 3875 2770 
Q 3547 2456 3450 1953 
L 3066 0 
L 2491 0 
L 2900 2094 
Q 2925 2209 2937 2307 
Q 2950 2406 2950 2484 
Q 2950 2769 2794 2926 
Q 2638 3084 2363 3084 
Q 1938 3084 1609 2770 
Q 1281 2456 1184 1953 
L 800 0 
L 225 0 
L 909 3500 
L 1484 3500 
L 1375 2956 
Q 1609 3263 1923 3423 
Q 2238 3584 2597 3584 
Q 2978 3584 3223 3384 
Q 3469 3184 3519 2828 
Q 3781 3197 4126 3390 
Q 4472 3584 4856 3584 
Q 5306 3584 5551 3325 
Q 5797 3066 5797 2591 
Q 5797 2488 5784 2364 
Q 5772 2241 5747 2113 
z
" transform="scale(0.015625)"/>
     </defs>
     <use xlink:href="#DejaVuSans-30" transform="translate(0 0.039062)"/>
     <use xlink:href="#DejaVuSans-2e" transform="translate(63.623047 0.039062)"/>
     <use xlink:href="#DejaVuSans-30" transform="translate(95.410156 0.039062)"/>
     <use xlink:href="#DejaVuSans-30" transform="translate(159.033203 0.039062)"/>
     <use xlink:href="#DejaVuSans-33" transform="translate(222.65625 0.039062)"/>
     <use xlink:href="#DejaVuSans-20" transform="translate(286.279297 0.039062)"/>
     <use xlink:href="#DejaVuSans-Oblique-6d" transform="translate(318.066406 43.835938) scale(0.7)"/>
     <use xlink:href="#DejaVuSans-33" transform="translate(389.50981 70.632812) scale(0.49)"/>
     <use xlink:href="#DejaVuSans-Oblique-6b" transform="translate(328.066406 -40.603125) scale(0.7)"/>
     <use xlink:href="#DejaVuSans-Oblique-67" transform="translate(368.603516 -40.603125) scale(0.7)"/>
     <path d="M 318.066406 18.835938 
L 318.066406 25.085938 
L 422.599165 25.085938 
L 422.599165 18.835938 
L 318.066406 18.835938 
z
"/>
    </g>
   </g>
   <g id="text_26">
    <g id="patch_15">
     <path d="M 898.29806 110.819813 
L 908.786096 95.458787 
L 902.055324 90.863223 
L 891.567288 106.224248 
z
" style="stroke: #000000; stroke-linejoin: miter"/>
    </g>
    <!-- 0.01 $\frac{m^3}{kg}$ -->
    <g style="fill: #ffffff" transform="translate(895.985647 109.240968) rotate(-55.675938) scale(0.05 -0.05)">
     <use xlink:href="#DejaVuSans-30" transform="translate(0 0.039062)"/>
     <use xlink:href="#DejaVuSans-2e" transform="translate(63.623047 0.039062)"/>
     <use xlink:href="#DejaVuSans-30" transform="translate(95.410156 0.039062)"/>
     <use xlink:href="#DejaVuSans-31" transform="translate(159.033203 0.039062)"/>
     <use xlink:href="#DejaVuSans-20" transform="translate(222.65625 0.039062)"/>
     <use xlink:href="#DejaVuSans-Oblique-6d" transform="translate(254.443359 43.835938) scale(0.7)"/>
     <use xlink:href="#DejaVuSans-33" transform="translate(325.886763 70.632812) scale(0.49)"/>
     <use xlink:href="#DejaVuSans-Oblique-6b" transform="translate(264.443359 -40.603125) scale(0.7)"/>
     <use xlink:href="#DejaVuSans-Oblique-67" transform="translate(304.980469 -40.603125) scale(0.7)"/>
     <path d="M 254.443359 18.835938 
L 254.443359 25.085938 
L 358.976118 25.085938 
L 358.976118 18.835938 
L 254.443359 18.835938 
z
"/>
    </g>
   </g>
   <g id="text_27">
    <g id="patch_16">
     <path d="M 983.776518 162.35897 
L 993.904235 146.75803 
L 987.068339 142.320347 
L 976.940622 157.921288 
z
" style="stroke: #000000; stroke-linejoin: miter"/>
    </g>
    <!-- 0.03 $\frac{m^3}{kg}$ -->
    <g style="fill: #ffffff" transform="translate(981.427989 160.834368) rotate(-57.009436) scale(0.05 -0.05)">
     <use xlink:href="#DejaVuSans-30" transform="translate(0 0.039062)"/>
     <use xlink:href="#DejaVuSans-2e" transform="translate(63.623047 0.039062)"/>
     <use xlink:href="#DejaVuSans-30" transform="translate(95.410156 0.039062)"/>
     <use xlink:href="#DejaVuSans-33" transform="translate(159.033203 0.039062)"/>
     <use xlink:href="#DejaVuSans-20" transform="translate(222.65625 0.039062)"/>
     <use xlink:href="#DejaVuSans-Oblique-6d" transform="translate(254.443359 43.835938) scale(0.7)"/>
     <use xlink:href="#DejaVuSans-33" transform="translate(325.886763 70.632812) scale(0.49)"/>
     <use xlink:href="#DejaVuSans-Oblique-6b" transform="translate(264.443359 -40.603125) scale(0.7)"/>
     <use xlink:href="#DejaVuSans-Oblique-67" transform="translate(304.980469 -40.603125) scale(0.7)"/>
     <path d="M 254.443359 18.835938 
L 254.443359 25.085938 
L 358.976118 25.085938 
L 358.976118 18.835938 
L 254.443359 18.835938 
z
"/>
    </g>
   </g>
   <g id="text_28">
    <g id="patch_17">
     <path d="M 1026.529596 264.978127 
L 1034.824842 252.003194 
L 1027.958238 247.613177 
L 1019.662992 260.58811 
z
" style="stroke: #000000; stroke-linejoin: miter"/>
    </g>
    <!-- 0.1 $\frac{m^3}{kg}$ -->
    <g style="fill: #ffffff" transform="translate(1024.170517 263.4699) rotate(-57.408054) scale(0.05 -0.05)">
     <use xlink:href="#DejaVuSans-30" transform="translate(0 0.039062)"/>
     <use xlink:href="#DejaVuSans-2e" transform="translate(63.623047 0.039062)"/>
     <use xlink:href="#DejaVuSans-31" transform="translate(95.410156 0.039062)"/>
     <use xlink:href="#DejaVuSans-20" transform="translate(159.033203 0.039062)"/>
     <use xlink:href="#DejaVuSans-Oblique-6d" transform="translate(190.820312 43.835938) scale(0.7)"/>
     <use xlink:href="#DejaVuSans-33" transform="translate(262.263716 70.632812) scale(0.49)"/>
     <use xlink:href="#DejaVuSans-Oblique-6b" transform="translate(200.820312 -40.603125) scale(0.7)"/>
     <use xlink:href="#DejaVuSans-Oblique-67" transform="translate(241.357422 -40.603125) scale(0.7)"/>
     <path d="M 190.820312 18.835938 
L 190.820312 25.085938 
L 295.353072 25.085938 
L 295.353072 18.835938 
L 190.820312 18.835938 
z
"/>
    </g>
   </g>
   <g id="text_29">
    <g id="patch_18">
     <path d="M 1041.667141 384.75579 
L 1049.966515 371.783497 
L 1043.101308 367.391295 
L 1034.801934 380.363588 
z
" style="stroke: #000000; stroke-linejoin: miter"/>
    </g>
    <!-- 0.3 $\frac{m^3}{kg}$ -->
    <g style="fill: #ffffff" transform="translate(1039.308542 383.246813) rotate(-57.389823) scale(0.05 -0.05)">
     <use xlink:href="#DejaVuSans-30" transform="translate(0 0.039062)"/>
     <use xlink:href="#DejaVuSans-2e" transform="translate(63.623047 0.039062)"/>
     <use xlink:href="#DejaVuSans-33" transform="translate(95.410156 0.039062)"/>
     <use xlink:href="#DejaVuSans-20" transform="translate(159.033203 0.039062)"/>
     <use xlink:href="#DejaVuSans-Oblique-6d" transform="translate(190.820312 43.835938) scale(0.7)"/>
     <use xlink:href="#DejaVuSans-33" transform="translate(262.263716 70.632812) scale(0.49)"/>
     <use xlink:href="#DejaVuSans-Oblique-6b" transform="translate(200.820312 -40.603125) scale(0.7)"/>
     <use xlink:href="#DejaVuSans-Oblique-67" transform="translate(241.357422 -40.603125) scale(0.7)"/>
     <path d="M 190.820312 18.835938 
L 190.820312 25.085938 
L 295.353072 25.085938 
L 295.353072 18.835938 
L 190.820312 18.835938 
z
"/>
    </g>
   </g>
   <g id="text_30">
    <g id="patch_19">
     <path d="M 1073.190114 488.398601 
L 1081.532436 475.453885 
L 1074.681823 471.038955 
L 1066.339501 483.983671 
z
" style="stroke: #000000; stroke-linejoin: miter"/>
    </g>
    <!-- 1.0 $\frac{m^3}{kg}$ -->
    <g style="fill: #ffffff" transform="translate(1070.836529 486.881815) rotate(-57.199932) scale(0.05 -0.05)">
     <use xlink:href="#DejaVuSans-31" transform="translate(0 0.039062)"/>
     <use xlink:href="#DejaVuSans-2e" transform="translate(63.623047 0.039062)"/>
     <use xlink:href="#DejaVuSans-30" transform="translate(95.410156 0.039062)"/>
     <use xlink:href="#DejaVuSans-20" transform="translate(159.033203 0.039062)"/>
     <use xlink:href="#DejaVuSans-Oblique-6d" transform="translate(190.820312 43.835938) scale(0.7)"/>
     <use xlink:href="#DejaVuSans-33" transform="translate(262.263716 70.632812) scale(0.49)"/>
     <use xlink:href="#DejaVuSans-Oblique-6b" transform="translate(200.820312 -40.603125) scale(0.7)"/>
     <use xlink:href="#DejaVuSans-Oblique-67" transform="translate(241.357422 -40.603125) scale(0.7)"/>
     <path d="M 190.820312 18.835938 
L 190.820312 25.085938 
L 295.353072 25.085938 
L 295.353072 18.835938 
L 190.820312 18.835938 
z
"/>
    </g>
   </g>
   <g id="text_31">
    <g id="patch_20">
     <path d="M 1098.446118 585.5012 
L 1106.889856 572.622407 
L 1100.074131 568.153806 
L 1091.630394 581.032598 
z
" style="stroke: #000000; stroke-linejoin: miter"/>
    </g>
    <!-- 3.0 $\frac{m^3}{kg}$ -->
    <g style="fill: #ffffff" transform="translate(1096.10452 583.965975) rotate(-56.749903) scale(0.05 -0.05)">
     <use xlink:href="#DejaVuSans-33" transform="translate(0 0.039062)"/>
     <use xlink:href="#DejaVuSans-2e" transform="translate(63.623047 0.039062)"/>
     <use xlink:href="#DejaVuSans-30" transform="translate(95.410156 0.039062)"/>
     <use xlink:href="#DejaVuSans-20" transform="translate(159.033203 0.039062)"/>
     <use xlink:href="#DejaVuSans-Oblique-6d" transform="translate(190.820312 43.835938) scale(0.7)"/>
     <use xlink:href="#DejaVuSans-33" transform="translate(262.263716 70.632812) scale(0.49)"/>
     <use xlink:href="#DejaVuSans-Oblique-6b" transform="translate(200.820312 -40.603125) scale(0.7)"/>
     <use xlink:href="#DejaVuSans-Oblique-67" transform="translate(241.357422 -40.603125) scale(0.7)"/>
     <path d="M 190.820312 18.835938 
L 190.820312 25.085938 
L 295.353072 25.085938 
L 295.353072 18.835938 
L 190.820312 18.835938 
z
"/>
    </g>
   </g>
   <g id="text_32">
    <g id="patch_21">
     <path d="M 269.19852 582.795843 
L 272.13152 603.388014 
L 280.398088 602.210584 
L 277.465088 581.618413 
z
" style="stroke: #000000; stroke-linejoin: miter"/>
    </g>
    <!-- 200.0 $\frac{kJ}{kg}$ -->
    <g style="fill: #ffffff" transform="translate(271.970543 582.401016) rotate(-278.106272) scale(0.05 -0.05)">
     <use xlink:href="#DejaVuSans-32" transform="translate(0 0.003125)"/>
     <use xlink:href="#DejaVuSans-30" transform="translate(63.623047 0.003125)"/>
     <use xlink:href="#DejaVuSans-30" transform="translate(127.246094 0.003125)"/>
     <use xlink:href="#DejaVuSans-2e" transform="translate(190.869141 0.003125)"/>
     <use xlink:href="#DejaVuSans-30" transform="translate(222.65625 0.003125)"/>
     <use xlink:href="#DejaVuSans-20" transform="translate(286.279297 0.003125)"/>
     <use xlink:href="#DejaVuSans-Oblique-6b" transform="translate(330.066406 57.810938) scale(0.7)"/>
     <use xlink:href="#DejaVuSans-Oblique-4a" transform="translate(370.603516 57.810938) scale(0.7)"/>
     <use xlink:href="#DejaVuSans-Oblique-6b" transform="translate(318.066406 -40.639062) scale(0.7)"/>
     <use xlink:href="#DejaVuSans-Oblique-67" transform="translate(358.603516 -40.639062) scale(0.7)"/>
     <path d="M 318.066406 18.8 
L 318.066406 25.05 
L 403.037109 25.05 
L 403.037109 18.8 
L 318.066406 18.8 
z
"/>
    </g>
   </g>
   <g id="text_33">
    <g id="patch_22">
     <path d="M 592.487233 538.564018 
L 600.921099 557.577432 
L 608.553888 554.191721 
L 600.120021 535.178308 
z
" style="stroke: #000000; stroke-linejoin: miter"/>
    </g>
    <!-- 400.0 $\frac{kJ}{kg}$ -->
    <g style="fill: #ffffff" transform="translate(595.046731 537.42869) rotate(-293.920856) scale(0.05 -0.05)">
     <defs>
      <path id="DejaVuSans-34" d="M 2419 4116 
L 825 1625 
L 2419 1625 
L 2419 4116 
z
M 2253 4666 
L 3047 4666 
L 3047 1625 
L 3713 1625 
L 3713 1100 
L 3047 1100 
L 3047 0 
L 2419 0 
L 2419 1100 
L 313 1100 
L 313 1709 
L 2253 4666 
z
" transform="scale(0.015625)"/>
     </defs>
     <use xlink:href="#DejaVuSans-34" transform="translate(0 0.003125)"/>
     <use xlink:href="#DejaVuSans-30" transform="translate(63.623047 0.003125)"/>
     <use xlink:href="#DejaVuSans-30" transform="translate(127.246094 0.003125)"/>
     <use xlink:href="#DejaVuSans-2e" transform="translate(190.869141 0.003125)"/>
     <use xlink:href="#DejaVuSans-30" transform="translate(222.65625 0.003125)"/>
     <use xlink:href="#DejaVuSans-20" transform="translate(286.279297 0.003125)"/>
     <use xlink:href="#DejaVuSans-Oblique-6b" transform="translate(330.066406 57.810938) scale(0.7)"/>
     <use xlink:href="#DejaVuSans-Oblique-4a" transform="translate(370.603516 57.810938) scale(0.7)"/>
     <use xlink:href="#DejaVuSans-Oblique-6b" transform="translate(318.066406 -40.639062) scale(0.7)"/>
     <use xlink:href="#DejaVuSans-Oblique-67" transform="translate(358.603516 -40.639062) scale(0.7)"/>
     <path d="M 318.066406 18.8 
L 318.066406 25.05 
L 403.037109 25.05 
L 403.037109 18.8 
L 318.066406 18.8 
z
"/>
    </g>
   </g>
   <g id="text_34">
    <g id="patch_23">
     <path d="M 974.25036 482.005049 
L 994.855502 484.845497 
L 995.995778 476.573721 
L 975.390636 473.733274 
z
" style="stroke: #000000; stroke-linejoin: miter"/>
    </g>
    <!-- 600.0 $\frac{kJ}{kg}$ -->
    <g style="fill: #ffffff" transform="translate(974.632728 479.23128) rotate(-352.151164) scale(0.05 -0.05)">
     <defs>
      <path id="DejaVuSans-36" d="M 2113 2584 
Q 1688 2584 1439 2293 
Q 1191 2003 1191 1497 
Q 1191 994 1439 701 
Q 1688 409 2113 409 
Q 2538 409 2786 701 
Q 3034 994 3034 1497 
Q 3034 2003 2786 2293 
Q 2538 2584 2113 2584 
z
M 3366 4563 
L 3366 3988 
Q 3128 4100 2886 4159 
Q 2644 4219 2406 4219 
Q 1781 4219 1451 3797 
Q 1122 3375 1075 2522 
Q 1259 2794 1537 2939 
Q 1816 3084 2150 3084 
Q 2853 3084 3261 2657 
Q 3669 2231 3669 1497 
Q 3669 778 3244 343 
Q 2819 -91 2113 -91 
Q 1303 -91 875 529 
Q 447 1150 447 2328 
Q 447 3434 972 4092 
Q 1497 4750 2381 4750 
Q 2619 4750 2861 4703 
Q 3103 4656 3366 4563 
z
" transform="scale(0.015625)"/>
     </defs>
     <use xlink:href="#DejaVuSans-36" transform="translate(0 0.003125)"/>
     <use xlink:href="#DejaVuSans-30" transform="translate(63.623047 0.003125)"/>
     <use xlink:href="#DejaVuSans-30" transform="translate(127.246094 0.003125)"/>
     <use xlink:href="#DejaVuSans-2e" transform="translate(190.869141 0.003125)"/>
     <use xlink:href="#DejaVuSans-30" transform="translate(222.65625 0.003125)"/>
     <use xlink:href="#DejaVuSans-20" transform="translate(286.279297 0.003125)"/>
     <use xlink:href="#DejaVuSans-Oblique-6b" transform="translate(330.066406 57.810938) scale(0.7)"/>
     <use xlink:href="#DejaVuSans-Oblique-4a" transform="translate(370.603516 57.810938) scale(0.7)"/>
     <use xlink:href="#DejaVuSans-Oblique-6b" transform="translate(318.066406 -40.639062) scale(0.7)"/>
     <use xlink:href="#DejaVuSans-Oblique-67" transform="translate(358.603516 -40.639062) scale(0.7)"/>
     <path d="M 318.066406 18.8 
L 318.066406 25.05 
L 403.037109 25.05 
L 403.037109 18.8 
L 318.066406 18.8 
z
"/>
    </g>
   </g>
   <g id="text_35">
    <g id="patch_24">
     <path d="M 1076.889753 103.217492 
L 1096.246891 110.829403 
L 1099.302634 103.058629 
L 1079.945496 95.446718 
z
" style="stroke: #000000; stroke-linejoin: miter"/>
    </g>
    <!-- 800.0 $\frac{kJ}{kg}$ -->
    <g style="fill: #ffffff" transform="translate(1077.914433 100.611724) rotate(-338.533494) scale(0.05 -0.05)">
     <defs>
      <path id="DejaVuSans-38" d="M 2034 2216 
Q 1584 2216 1326 1975 
Q 1069 1734 1069 1313 
Q 1069 891 1326 650 
Q 1584 409 2034 409 
Q 2484 409 2743 651 
Q 3003 894 3003 1313 
Q 3003 1734 2745 1975 
Q 2488 2216 2034 2216 
z
M 1403 2484 
Q 997 2584 770 2862 
Q 544 3141 544 3541 
Q 544 4100 942 4425 
Q 1341 4750 2034 4750 
Q 2731 4750 3128 4425 
Q 3525 4100 3525 3541 
Q 3525 3141 3298 2862 
Q 3072 2584 2669 2484 
Q 3125 2378 3379 2068 
Q 3634 1759 3634 1313 
Q 3634 634 3220 271 
Q 2806 -91 2034 -91 
Q 1263 -91 848 271 
Q 434 634 434 1313 
Q 434 1759 690 2068 
Q 947 2378 1403 2484 
z
M 1172 3481 
Q 1172 3119 1398 2916 
Q 1625 2713 2034 2713 
Q 2441 2713 2670 2916 
Q 2900 3119 2900 3481 
Q 2900 3844 2670 4047 
Q 2441 4250 2034 4250 
Q 1625 4250 1398 4047 
Q 1172 3844 1172 3481 
z
" transform="scale(0.015625)"/>
     </defs>
     <use xlink:href="#DejaVuSans-38" transform="translate(0 0.003125)"/>
     <use xlink:href="#DejaVuSans-30" transform="translate(63.623047 0.003125)"/>
     <use xlink:href="#DejaVuSans-30" transform="translate(127.246094 0.003125)"/>
     <use xlink:href="#DejaVuSans-2e" transform="translate(190.869141 0.003125)"/>
     <use xlink:href="#DejaVuSans-30" transform="translate(222.65625 0.003125)"/>
     <use xlink:href="#DejaVuSans-20" transform="translate(286.279297 0.003125)"/>
     <use xlink:href="#DejaVuSans-Oblique-6b" transform="translate(330.066406 57.810938) scale(0.7)"/>
     <use xlink:href="#DejaVuSans-Oblique-4a" transform="translate(370.603516 57.810938) scale(0.7)"/>
     <use xlink:href="#DejaVuSans-Oblique-6b" transform="translate(318.066406 -40.639062) scale(0.7)"/>
     <use xlink:href="#DejaVuSans-Oblique-67" transform="translate(358.603516 -40.639062) scale(0.7)"/>
     <path d="M 318.066406 18.8 
L 318.066406 25.05 
L 403.037109 25.05 
L 403.037109 18.8 
L 318.066406 18.8 
z
"/>
    </g>
   </g>
   <g id="text_36">
    <g id="patch_25">
     <path d="M 310.07566 471.968404 
L 318.663429 464.555671 
L 315.501494 460.892518 
L 306.913725 468.305251 
z
" style="stroke: #000000; stroke-linejoin: miter"/>
    </g>
    <!-- 0.0 - -->
    <g style="fill: #ffffff" transform="translate(309.396207 471.181246) rotate(-40.799884) scale(0.05 -0.05)">
     <defs>
      <path id="DejaVuSans-2d" d="M 313 2009 
L 1997 2009 
L 1997 1497 
L 313 1497 
L 313 2009 
z
" transform="scale(0.015625)"/>
     </defs>
     <use xlink:href="#DejaVuSans-30"/>
     <use xlink:href="#DejaVuSans-2e" x="63.623047"/>
     <use xlink:href="#DejaVuSans-30" x="95.410156"/>
     <use xlink:href="#DejaVuSans-20" x="159.033203"/>
     <use xlink:href="#DejaVuSans-2d" x="190.820312"/>
    </g>
   </g>
   <g id="text_37">
    <g id="patch_26">
     <path d="M 364.495898 472.116371 
L 372.639467 464.218228 
L 369.270478 460.744551 
L 361.126908 468.642694 
z
" style="stroke: #000000; stroke-linejoin: miter"/>
    </g>
    <!-- 0.1 - -->
    <g style="fill: #ffffff" transform="translate(363.771951 471.369929) rotate(-44.123486) scale(0.05 -0.05)">
     <use xlink:href="#DejaVuSans-30"/>
     <use xlink:href="#DejaVuSans-2e" x="63.623047"/>
     <use xlink:href="#DejaVuSans-31" x="95.410156"/>
     <use xlink:href="#DejaVuSans-20" x="159.033203"/>
     <use xlink:href="#DejaVuSans-2d" x="190.820312"/>
    </g>
   </g>
   <g id="text_38">
    <g id="patch_27">
     <path d="M 418.969994 472.261194 
L 426.575959 463.844088 
L 422.985604 460.599728 
L 415.379638 469.016834 
z
" style="stroke: #000000; stroke-linejoin: miter"/>
    </g>
    <!-- 0.2 - -->
    <g style="fill: #ffffff" transform="translate(418.198479 471.564029) rotate(-47.898025) scale(0.05 -0.05)">
     <use xlink:href="#DejaVuSans-30"/>
     <use xlink:href="#DejaVuSans-2e" x="63.623047"/>
     <use xlink:href="#DejaVuSans-32" x="95.410156"/>
     <use xlink:href="#DejaVuSans-20" x="159.033203"/>
     <use xlink:href="#DejaVuSans-2d" x="190.820312"/>
    </g>
   </g>
   <g id="text_39">
    <g id="patch_28">
     <path d="M 473.505742 472.394879 
L 480.461741 463.433157 
L 476.639077 460.466043 
L 469.683078 469.427765 
z
" style="stroke: #000000; stroke-linejoin: miter"/>
    </g>
    <!-- 0.3 - -->
    <g style="fill: #ffffff" transform="translate(472.684307 471.75729) rotate(-52.181744) scale(0.05 -0.05)">
     <use xlink:href="#DejaVuSans-30"/>
     <use xlink:href="#DejaVuSans-2e" x="63.623047"/>
     <use xlink:href="#DejaVuSans-33" x="95.410156"/>
     <use xlink:href="#DejaVuSans-20" x="159.033203"/>
     <use xlink:href="#DejaVuSans-2d" x="190.820312"/>
    </g>
   </g>
   <g id="text_40">
    <g id="patch_29">
     <path d="M 528.109692 472.505886 
L 534.28395 462.988695 
L 530.224348 460.355036 
L 524.05009 469.872227 
z
" style="stroke: #000000; stroke-linejoin: miter"/>
    </g>
    <!-- 0.4 - -->
    <g style="fill: #ffffff" transform="translate(527.237343 471.939951) rotate(-57.02659) scale(0.05 -0.05)">
     <use xlink:href="#DejaVuSans-30"/>
     <use xlink:href="#DejaVuSans-2e" x="63.623047"/>
     <use xlink:href="#DejaVuSans-34" x="95.410156"/>
     <use xlink:href="#DejaVuSans-20" x="159.033203"/>
     <use xlink:href="#DejaVuSans-2d" x="190.820312"/>
    </g>
   </g>
   <g id="text_41">
    <g id="patch_30">
     <path d="M 582.785047 472.578761 
L 588.029217 462.519086 
L 583.738215 460.282161 
L 578.494046 470.341836 
z
" style="stroke: #000000; stroke-linejoin: miter"/>
    </g>
    <!-- 0.5 - -->
    <g style="fill: #ffffff" transform="translate(581.862974 472.098079) rotate(-62.466698) scale(0.05 -0.05)">
     <use xlink:href="#DejaVuSans-30"/>
     <use xlink:href="#DejaVuSans-2e" x="63.623047"/>
     <use xlink:href="#DejaVuSans-35" x="95.410156"/>
     <use xlink:href="#DejaVuSans-20" x="159.033203"/>
     <use xlink:href="#DejaVuSans-2d" x="190.820312"/>
    </g>
   </g>
   <g id="text_42">
    <g id="patch_31">
     <path d="M 637.528772 472.594791 
L 641.686132 462.039473 
L 637.183712 460.266131 
L 633.026352 470.82145 
z
" style="stroke: #000000; stroke-linejoin: miter"/>
    </g>
    <!-- 0.6 - -->
    <g style="fill: #ffffff" transform="translate(636.561268 472.213726) rotate(-68.502303) scale(0.05 -0.05)">
     <use xlink:href="#DejaVuSans-30"/>
     <use xlink:href="#DejaVuSans-2e" x="63.623047"/>
     <use xlink:href="#DejaVuSans-36" x="95.410156"/>
     <use xlink:href="#DejaVuSans-20" x="159.033203"/>
     <use xlink:href="#DejaVuSans-2d" x="190.820312"/>
    </g>
   </g>
   <g id="text_43">
    <g id="patch_32">
     <path d="M 692.328551 472.534425 
L 695.24911 461.572275 
L 690.573154 460.326497 
L 687.652596 471.288647 
z
" style="stroke: #000000; stroke-linejoin: miter"/>
    </g>
    <!-- 0.7 - -->
    <g style="fill: #ffffff" transform="translate(691.323757 472.266725) rotate(-75.081668) scale(0.05 -0.05)">
     <use xlink:href="#DejaVuSans-30"/>
     <use xlink:href="#DejaVuSans-2e" x="63.623047"/>
     <use xlink:href="#DejaVuSans-37" x="95.410156"/>
     <use xlink:href="#DejaVuSans-20" x="159.033203"/>
     <use xlink:href="#DejaVuSans-2d" x="190.820312"/>
    </g>
   </g>
   <g id="text_44">
    <g id="patch_33">
     <path d="M 747.161134 472.381792 
L 748.722788 461.145261 
L 743.929793 460.47913 
L 742.368139 471.715661 
z
" style="stroke: #000000; stroke-linejoin: miter"/>
    </g>
    <!-- 0.8 - -->
    <g style="fill: #ffffff" transform="translate(746.131189 472.23865) rotate(-82.087711) scale(0.05 -0.05)">
     <use xlink:href="#DejaVuSans-30"/>
     <use xlink:href="#DejaVuSans-2e" x="63.623047"/>
     <use xlink:href="#DejaVuSans-38" x="95.410156"/>
     <use xlink:href="#DejaVuSans-20" x="159.033203"/>
     <use xlink:href="#DejaVuSans-2d" x="190.820312"/>
    </g>
   </g>
   <g id="text_45">
    <g id="patch_34">
     <path d="M 801.994002 472.130264 
L 802.124887 460.786488 
L 797.286147 460.730658 
L 797.155261 472.074434 
z
" style="stroke: #000000; stroke-linejoin: miter"/>
    </g>
    <!-- 0.9 - -->
    <g style="fill: #ffffff" transform="translate(800.954227 472.118267) rotate(-89.338945) scale(0.05 -0.05)">
     <defs>
      <path id="DejaVuSans-39" d="M 703 97 
L 703 672 
Q 941 559 1184 500 
Q 1428 441 1663 441 
Q 2288 441 2617 861 
Q 2947 1281 2994 2138 
Q 2813 1869 2534 1725 
Q 2256 1581 1919 1581 
Q 1219 1581 811 2004 
Q 403 2428 403 3163 
Q 403 3881 828 4315 
Q 1253 4750 1959 4750 
Q 2769 4750 3195 4129 
Q 3622 3509 3622 2328 
Q 3622 1225 3098 567 
Q 2575 -91 1691 -91 
Q 1453 -91 1209 -44 
Q 966 3 703 97 
z
M 1959 2075 
Q 2384 2075 2632 2365 
Q 2881 2656 2881 3163 
Q 2881 3666 2632 3958 
Q 2384 4250 1959 4250 
Q 1534 4250 1286 3958 
Q 1038 3666 1038 3163 
Q 1038 2656 1286 2365 
Q 1534 2075 1959 2075 
z
" transform="scale(0.015625)"/>
     </defs>
     <use xlink:href="#DejaVuSans-30"/>
     <use xlink:href="#DejaVuSans-2e" x="63.623047"/>
     <use xlink:href="#DejaVuSans-39" x="95.410156"/>
     <use xlink:href="#DejaVuSans-20" x="159.033203"/>
     <use xlink:href="#DejaVuSans-2d" x="190.820312"/>
    </g>
   </g>
   <g id="text_46">
    <g id="patch_35">
     <path d="M 850.678178 461.074484 
L 851.984309 472.343575 
L 856.791192 471.786438 
L 855.485061 460.517347 
z
" style="stroke: #000000; stroke-linejoin: miter"/>
    </g>
    <!-- 1.0 - -->
    <g style="fill: #ffffff" transform="translate(851.711107 460.954763) rotate(-276.611303) scale(0.05 -0.05)">
     <use xlink:href="#DejaVuSans-31"/>
     <use xlink:href="#DejaVuSans-2e" x="63.623047"/>
     <use xlink:href="#DejaVuSans-30" x="95.410156"/>
     <use xlink:href="#DejaVuSans-20" x="159.033203"/>
     <use xlink:href="#DejaVuSans-2d" x="190.820312"/>
    </g>
   </g>
  </g>
 </g>
 <defs>
  <clipPath id="p0d64ea4d7c">
   <rect x="52.85" y="14.76" width="1075.75" height="652.451"/>
  </clipPath>
 </defs>
</svg>
