<?xml version="1.0" encoding="UTF-8" standalone="no"?>
<svg
   width="290"
   height="290"
   id="svg2"
   version="1.1"
   inkscape:version="1.3 (0e150ed6c4, 2023-07-21)"
   sodipodi:docname="logo_fluprodia_small.svg"
   inkscape:export-xdpi="300"
   inkscape:export-ydpi="300"
   xml:space="preserve"
   xmlns:inkscape="http://www.inkscape.org/namespaces/inkscape"
   xmlns:sodipodi="http://sodipodi.sourceforge.net/DTD/sodipodi-0.dtd"
   xmlns:xlink="http://www.w3.org/1999/xlink"
   xmlns="http://www.w3.org/2000/svg"
   xmlns:svg="http://www.w3.org/2000/svg"
   xmlns:rdf="http://www.w3.org/1999/02/22-rdf-syntax-ns#"
   xmlns:cc="http://creativecommons.org/ns#"
   xmlns:dc="http://purl.org/dc/elements/1.1/"><defs
     id="defs4"><marker
       style="overflow:visible"
       id="Triangle_Fnone_S-000000"
       refX="0"
       refY="0"
       orient="auto-start-reverse"
       inkscape:stockid="Triangle arrow"
       markerWidth="0.75"
       markerHeight="0.75"
       viewBox="0 0 1 1"
       inkscape:isstock="true"
       inkscape:collect="always"
       preserveAspectRatio="xMidYMid"><path
         transform="scale(0.5)"
         style="fill:#000000;fill-rule:evenodd;stroke:#000000;stroke-width:1pt"
         d="M 5.77,0 -2.88,5 V -5 Z"
         id="path1" /></marker><inkscape:path-effect
       effect="spiro"
       id="path-effect4646"
       is_visible="true"
       lpeversion="0" /><inkscape:path-effect
       effect="spiro"
       id="path-effect4642"
       is_visible="true"
       lpeversion="0" /><inkscape:path-effect
       effect="spiro"
       id="path-effect4638"
       is_visible="true"
       lpeversion="0" /><inkscape:path-effect
       effect="spiro"
       id="path-effect3273"
       is_visible="true"
       lpeversion="0" /><inkscape:path-effect
       effect="spiro"
       id="path-effect3265"
       is_visible="true"
       lpeversion="0" /><inkscape:path-effect
       effect="spiro"
       id="path-effect3261"
       is_visible="true"
       lpeversion="0" /><inkscape:path-effect
       effect="spiro"
       id="path-effect3257"
       is_visible="true"
       lpeversion="0" /><linearGradient
       id="linearGradient3960"><stop
         id="stop3972"
         offset="0"
         style="stop-color:#55d400;stop-opacity:0.74901961;" /><stop
         id="stop3970"
         offset="0.5"
         style="stop-color:#55d400;stop-opacity:0.49803922;" /><stop
         style="stop-color:#39d400;stop-opacity:0.24705882;"
         offset="0.75"
         id="stop3976" /><stop
         id="stop3980"
         offset="0.875"
         style="stop-color:#94d400;stop-opacity:0.24705882;" /><stop
         id="stop3978"
         offset="1"
         style="stop-color:#efd400;stop-opacity:0.24705882;" /></linearGradient><marker
       inkscape:stockid="Arrow2Lstart"
       orient="auto"
       refY="0"
       refX="0"
       id="Arrow2Lstart"
       style="overflow:visible"><path
         id="path4366"
         style="fill-rule:evenodd;stroke-width:0.625;stroke-linejoin:round"
         d="M 8.7185878,4.0337352 -2.2072895,0.01601326 8.7185884,-4.0017078 c -1.7454984,2.3720609 -1.7354408,5.6174519 -6e-7,8.035443 z"
         transform="matrix(1.1,0,0,1.1,1.1,0)"
         inkscape:connector-curvature="0" /></marker><marker
       inkscape:stockid="EmptyDiamondL"
       orient="auto"
       refY="0"
       refX="0"
       id="EmptyDiamondL"
       style="overflow:visible"><path
         id="path4454"
         d="M 0,-7.0710768 -7.0710894,0 0,7.0710589 7.0710462,0 Z"
         style="fill:#ffffff;fill-rule:evenodd;stroke:#000000;stroke-width:1pt"
         transform="scale(0.8)"
         inkscape:connector-curvature="0" /></marker><marker
       inkscape:stockid="DiamondSstart"
       orient="auto"
       refY="0"
       refX="0"
       id="DiamondSstart"
       style="overflow:visible"><path
         id="path4442"
         d="M 0,-7.0710768 -7.0710894,0 0,7.0710589 7.0710462,0 Z"
         style="fill-rule:evenodd;stroke:#000000;stroke-width:1pt"
         transform="matrix(0.2,0,0,0.2,1.2,0)"
         inkscape:connector-curvature="0" /></marker><marker
       inkscape:stockid="Arrow1Lstart"
       orient="auto"
       refY="0"
       refX="0"
       id="Arrow1Lstart"
       style="overflow:visible"><path
         id="path4348"
         d="M 0,0 5,-5 -12.5,0 5,5 Z"
         style="fill-rule:evenodd;stroke:#000000;stroke-width:1pt"
         transform="matrix(0.8,0,0,0.8,10,0)"
         inkscape:connector-curvature="0" /></marker><marker
       inkscape:stockid="SquareL"
       orient="auto"
       refY="0"
       refX="0"
       id="SquareL"
       style="overflow:visible"><path
         id="path4418"
         d="M -5,-5 V 5 H 5 V -5 Z"
         style="fill-rule:evenodd;stroke:#000000;stroke-width:1pt"
         transform="scale(0.8)"
         inkscape:connector-curvature="0" /></marker><inkscape:perspective
       sodipodi:type="inkscape:persp3d"
       inkscape:vp_x="-105.05586 : -18.83261 : 1"
       inkscape:vp_y="0 : 1000 : 0"
       inkscape:vp_z="1150 : 462 : 1"
       inkscape:persp3d-origin="575 : 395.33333 : 1"
       id="perspective4087" /><radialGradient
       r="97.496925"
       fy="188.21428"
       fx="236.78572"
       cy="188.21428"
       cx="236.78572"
       gradientTransform="translate(-139.2888,-90.7174)"
       gradientUnits="userSpaceOnUse"
       id="radialGradient3013"
       xlink:href="#linearGradient3684-76"
       inkscape:collect="always" /><radialGradient
       r="97.496925"
       fy="188.21428"
       fx="236.78572"
       cy="188.21428"
       cx="236.78572"
       gradientTransform="translate(-90.4365,1338.3028)"
       gradientUnits="userSpaceOnUse"
       id="radialGradient3004"
       xlink:href="#linearGradient3684-76"
       inkscape:collect="always" /><linearGradient
       id="linearGradient3684-76"><stop
         offset="0"
         style="stop-color:#000000;stop-opacity:1"
         id="stop3686-14" /><stop
         offset="0.89795917"
         style="stop-color:#000000;stop-opacity:0.86666667"
         id="stop3692-23" /><stop
         offset="1"
         style="stop-color:#000000;stop-opacity:0"
         id="stop3688-2" /></linearGradient><radialGradient
       gradientTransform="translate(-90.4365,1338.3028)"
       gradientUnits="userSpaceOnUse"
       xlink:href="#linearGradient3684-76"
       id="radialGradient4894"
       fy="188.21428"
       fx="236.78572"
       r="97.496925"
       cy="188.21428"
       cx="236.78572" /><inkscape:path-effect
       effect="spiro"
       id="path-effect3273-8"
       is_visible="true"
       lpeversion="0" /><inkscape:path-effect
       effect="spiro"
       id="path-effect3273-3"
       is_visible="true"
       lpeversion="0" /><inkscape:path-effect
       effect="spiro"
       id="path-effect3273-3-6"
       is_visible="true"
       lpeversion="0" /><inkscape:path-effect
       effect="spiro"
       id="path-effect3273-3-0"
       is_visible="true"
       lpeversion="0" /><inkscape:path-effect
       effect="spiro"
       id="path-effect3273-3-0-5"
       is_visible="true"
       lpeversion="0" /><inkscape:path-effect
       effect="spiro"
       id="path-effect3273-3-0-6"
       is_visible="true"
       lpeversion="0" /><inkscape:path-effect
       effect="spiro"
       id="path-effect3273-2"
       is_visible="true"
       lpeversion="0" /><inkscape:path-effect
       effect="spiro"
       id="path-effect3273-8-0"
       is_visible="true"
       lpeversion="0" /><inkscape:path-effect
       effect="spiro"
       id="path-effect3273-3-1"
       is_visible="true"
       lpeversion="0" /><inkscape:path-effect
       effect="spiro"
       id="path-effect3273-3-6-7"
       is_visible="true"
       lpeversion="0" /><inkscape:path-effect
       effect="spiro"
       id="path-effect3273-3-0-8"
       is_visible="true"
       lpeversion="0" /><inkscape:path-effect
       effect="spiro"
       id="path-effect3273-3-0-5-1"
       is_visible="true"
       lpeversion="0" /><inkscape:path-effect
       effect="spiro"
       id="path-effect3273-3-0-6-5"
       is_visible="true"
       lpeversion="0" /><ellipse
       transform="matrix(-1.655217,1.5156218,-1.8633661,-2.0349941,554.10899,812.95323)"
       id="path3981-2-1-6-7-5-0-3-3-9"
       style="display:inline;fill:none;stroke:none"
       cx="-36.96954"
       cy="-68.571419"
       rx="43.030457"
       ry="35" /><inkscape:path-effect
       effect="spiro"
       id="path-effect3273-9"
       is_visible="true"
       lpeversion="0" /><inkscape:path-effect
       effect="spiro"
       id="path-effect3273-8-3"
       is_visible="true"
       lpeversion="0" /><inkscape:path-effect
       effect="spiro"
       id="path-effect3273-3-2"
       is_visible="true"
       lpeversion="0" /><inkscape:path-effect
       effect="spiro"
       id="path-effect3273-3-6-0"
       is_visible="true"
       lpeversion="0" /><inkscape:path-effect
       effect="spiro"
       id="path-effect3273-3-0-1"
       is_visible="true"
       lpeversion="0" /><inkscape:path-effect
       effect="spiro"
       id="path-effect3273-3-0-5-8"
       is_visible="true"
       lpeversion="0" /><inkscape:path-effect
       effect="spiro"
       id="path-effect3273-3-0-6-3"
       is_visible="true"
       lpeversion="0" /><clipPath
       id="p6f567e9954"><rect
         x="108"
         y="51.84"
         width="669.59998"
         height="332.64001"
         id="rect91" /></clipPath><clipPath
       id="clipPath1"><rect
         x="108"
         y="51.84"
         width="669.59998"
         height="332.64001"
         id="rect1" /></clipPath><clipPath
       id="clipPath2"><rect
         x="108"
         y="51.84"
         width="669.59998"
         height="332.64001"
         id="rect2" /></clipPath><clipPath
       id="clipPath3"><rect
         x="108"
         y="51.84"
         width="669.59998"
         height="332.64001"
         id="rect3" /></clipPath><clipPath
       id="clipPath4"><rect
         x="108"
         y="51.84"
         width="669.59998"
         height="332.64001"
         id="rect4" /></clipPath><style
       type="text/css"
       id="style1">*{stroke-linejoin: round; stroke-linecap: butt}</style><path
       id="m3d5513235e"
       d="M 0,0 V 3.5"
       style="stroke:#000000;stroke-width:0.8" /><path
       id="DejaVuSans-30"
       d="m 2034,4250 q -487,0 -733,-480 -245,-479 -245,-1442 0,-959 245,-1439 246,-480 733,-480 491,0 736,480 246,480 246,1439 0,963 -246,1442 -245,480 -736,480 z m 0,500 q 785,0 1199,-621 414,-620 414,-1801 0,-1178 -414,-1799 -414,-620 -1199,-620 -784,0 -1198,620 -414,621 -414,1799 0,1181 414,1801 414,621 1198,621 z"
       transform="scale(0.015625)" /><path
       id="DejaVuSans-2e"
       d="m 684,794 h 660 V 0 H 684 Z"
       transform="scale(0.015625)" /><path
       id="DejaVuSans-32"
       d="M 1228,531 H 3431 V 0 H 469 v 531 q 359,372 979,998 621,627 780,809 303,340 423,576 121,236 121,464 0,372 -261,606 -261,235 -680,235 -297,0 -627,-103 -329,-103 -704,-313 v 638 q 381,153 712,231 332,78 607,78 725,0 1156,-363 431,-362 431,-968 0,-288 -108,-546 -107,-257 -392,-607 -78,-91 -497,-524 Q 1991,1309 1228,531 Z"
       transform="scale(0.015625)" /><path
       id="DejaVuSans-34"
       d="M 2419,4116 825,1625 h 1594 z m -166,550 h 794 V 1625 h 666 V 1100 H 3047 V 0 H 2419 V 1100 H 313 v 609 z"
       transform="scale(0.015625)" /><path
       id="DejaVuSans-36"
       d="m 2113,2584 q -425,0 -674,-291 -248,-290 -248,-796 0,-503 248,-796 249,-292 674,-292 425,0 673,292 248,293 248,796 0,506 -248,796 -248,291 -673,291 z m 1253,1979 v -575 q -238,112 -480,171 -242,60 -480,60 -625,0 -955,-422 -329,-422 -376,-1275 184,272 462,417 279,145 613,145 703,0 1111,-427 408,-426 408,-1160 0,-719 -425,-1154 -425,-434 -1131,-434 -810,0 -1238,620 -428,621 -428,1799 0,1106 525,1764 525,658 1409,658 238,0 480,-47 242,-47 505,-140 z"
       transform="scale(0.015625)" /><path
       id="DejaVuSans-38"
       d="m 2034,2216 q -450,0 -708,-241 -257,-241 -257,-662 0,-422 257,-663 258,-241 708,-241 450,0 709,242 260,243 260,662 0,421 -258,662 -257,241 -711,241 z m -631,268 q -406,100 -633,378 -226,279 -226,679 0,559 398,884 399,325 1092,325 697,0 1094,-325 397,-325 397,-884 0,-400 -227,-679 -226,-278 -629,-378 456,-106 710,-416 255,-309 255,-755 Q 3634,634 3220,271 2806,-91 2034,-91 1263,-91 848,271 434,634 434,1313 q 0,446 256,755 257,310 713,416 z m -231,997 q 0,-362 226,-565 227,-203 636,-203 407,0 636,203 230,203 230,565 0,363 -230,566 -229,203 -636,203 -409,0 -636,-203 -226,-203 -226,-566 z"
       transform="scale(0.015625)" /><path
       id="DejaVuSans-31"
       d="M 794,531 H 1825 V 4091 L 703,3866 v 575 l 1116,225 h 631 V 531 H 3481 V 0 H 794 Z"
       transform="scale(0.015625)" /><path
       id="DejaVuSans-65"
       d="M 3597,1894 V 1613 H 953 q 38,-594 358,-905 320,-311 892,-311 331,0 642,81 311,81 618,244 V 178 Q 3153,47 2828,-22 2503,-91 2169,-91 1331,-91 842,396 353,884 353,1716 q 0,859 464,1363 464,505 1252,505 706,0 1117,-455 411,-454 411,-1235 z m -575,169 q -6,471 -264,752 -258,282 -683,282 -481,0 -770,-272 -289,-272 -333,-766 z"
       transform="scale(0.015625)" /><path
       id="m6d6928415c"
       d="M 0,0 H -3.5"
       style="stroke:#000000;stroke-width:0.8" /><path
       id="m0383b43758"
       d="M 0,0 H -2"
       style="stroke:#000000;stroke-width:0.6" /><clipPath
       id="p691304088c"><rect
         x="108"
         y="51.84"
         width="669.59998"
         height="332.64001"
         id="rect69" /></clipPath><style
       type="text/css"
       id="style1-1">*{stroke-linejoin: round; stroke-linecap: butt}</style><path
       id="m3578b3ebe6"
       d="M 0,0 V 3.5"
       style="stroke:#000000;stroke-width:0.8" /><path
       id="DejaVuSans-30-7"
       d="m 2034,4250 q -487,0 -733,-480 -245,-479 -245,-1442 0,-959 245,-1439 246,-480 733,-480 491,0 736,480 246,480 246,1439 0,963 -246,1442 -245,480 -736,480 z m 0,500 q 785,0 1199,-621 414,-620 414,-1801 0,-1178 -414,-1799 -414,-620 -1199,-620 -784,0 -1198,620 -414,621 -414,1799 0,1181 414,1801 414,621 1198,621 z"
       transform="scale(0.015625)" /><path
       id="DejaVuSans-2e-0"
       d="m 684,794 h 660 V 0 H 684 Z"
       transform="scale(0.015625)" /><path
       id="DejaVuSans-32-6"
       d="M 1228,531 H 3431 V 0 H 469 v 531 q 359,372 979,998 621,627 780,809 303,340 423,576 121,236 121,464 0,372 -261,606 -261,235 -680,235 -297,0 -627,-103 -329,-103 -704,-313 v 638 q 381,153 712,231 332,78 607,78 725,0 1156,-363 431,-362 431,-968 0,-288 -108,-546 -107,-257 -392,-607 -78,-91 -497,-524 Q 1991,1309 1228,531 Z"
       transform="scale(0.015625)" /><path
       id="DejaVuSans-34-6"
       d="M 2419,4116 825,1625 h 1594 z m -166,550 h 794 V 1625 h 666 V 1100 H 3047 V 0 H 2419 V 1100 H 313 v 609 z"
       transform="scale(0.015625)" /><path
       id="DejaVuSans-36-9"
       d="m 2113,2584 q -425,0 -674,-291 -248,-290 -248,-796 0,-503 248,-796 249,-292 674,-292 425,0 673,292 248,293 248,796 0,506 -248,796 -248,291 -673,291 z m 1253,1979 v -575 q -238,112 -480,171 -242,60 -480,60 -625,0 -955,-422 -329,-422 -376,-1275 184,272 462,417 279,145 613,145 703,0 1111,-427 408,-426 408,-1160 0,-719 -425,-1154 -425,-434 -1131,-434 -810,0 -1238,620 -428,621 -428,1799 0,1106 525,1764 525,658 1409,658 238,0 480,-47 242,-47 505,-140 z"
       transform="scale(0.015625)" /><path
       id="DejaVuSans-38-6"
       d="m 2034,2216 q -450,0 -708,-241 -257,-241 -257,-662 0,-422 257,-663 258,-241 708,-241 450,0 709,242 260,243 260,662 0,421 -258,662 -257,241 -711,241 z m -631,268 q -406,100 -633,378 -226,279 -226,679 0,559 398,884 399,325 1092,325 697,0 1094,-325 397,-325 397,-884 0,-400 -227,-679 -226,-278 -629,-378 456,-106 710,-416 255,-309 255,-755 Q 3634,634 3220,271 2806,-91 2034,-91 1263,-91 848,271 434,634 434,1313 q 0,446 256,755 257,310 713,416 z m -231,997 q 0,-362 226,-565 227,-203 636,-203 407,0 636,203 230,203 230,565 0,363 -230,566 -229,203 -636,203 -409,0 -636,-203 -226,-203 -226,-566 z"
       transform="scale(0.015625)" /><path
       id="DejaVuSans-31-2"
       d="M 794,531 H 1825 V 4091 L 703,3866 v 575 l 1116,225 h 631 V 531 H 3481 V 0 H 794 Z"
       transform="scale(0.015625)" /><path
       id="DejaVuSans-65-6"
       d="M 3597,1894 V 1613 H 953 q 38,-594 358,-905 320,-311 892,-311 331,0 642,81 311,81 618,244 V 178 Q 3153,47 2828,-22 2503,-91 2169,-91 1331,-91 842,396 353,884 353,1716 q 0,859 464,1363 464,505 1252,505 706,0 1117,-455 411,-454 411,-1235 z m -575,169 q -6,471 -264,752 -258,282 -683,282 -481,0 -770,-272 -289,-272 -333,-766 z"
       transform="scale(0.015625)" /><path
       id="m09f3737790"
       d="M 0,0 H -3.5"
       style="stroke:#000000;stroke-width:0.8" /><path
       id="m132f1f590c"
       d="M 0,0 H -2"
       style="stroke:#000000;stroke-width:0.6" /><clipPath
       id="pe671ddc4af"><rect
         x="108"
         y="51.84"
         width="669.59998"
         height="332.64001"
         id="rect67" /></clipPath><clipPath
       id="pe671ddc4af-8"><rect
         x="108"
         y="51.84"
         width="669.59998"
         height="332.64001"
         id="rect67-0" /></clipPath><clipPath
       id="clipPath1-0"><rect
         x="108"
         y="51.84"
         width="669.59998"
         height="332.64001"
         id="rect1-2" /></clipPath><clipPath
       id="clipPath2-1"><rect
         x="108"
         y="51.84"
         width="669.59998"
         height="332.64001"
         id="rect2-3" /></clipPath><clipPath
       id="clipPath3-1"><rect
         x="108"
         y="51.84"
         width="669.59998"
         height="332.64001"
         id="rect3-8" /></clipPath><clipPath
       id="clipPath4-8"><rect
         x="108"
         y="51.84"
         width="669.59998"
         height="332.64001"
         id="rect4-0" /></clipPath><clipPath
       id="clipPath5"><rect
         x="108"
         y="51.84"
         width="669.59998"
         height="332.64001"
         id="rect5" /></clipPath><clipPath
       id="clipPath6"><rect
         x="108"
         y="51.84"
         width="669.59998"
         height="332.64001"
         id="rect6" /></clipPath></defs><sodipodi:namedview
     id="base"
     pagecolor="#ffffff"
     bordercolor="#666666"
     borderopacity="1.0"
     inkscape:pageopacity="0.0"
     inkscape:pageshadow="2"
     inkscape:zoom="0.70710678"
     inkscape:cx="364.15999"
     inkscape:cy="416.48589"
     inkscape:document-units="px"
     inkscape:current-layer="layer1"
     showgrid="false"
     inkscape:window-width="1920"
     inkscape:window-height="1001"
     inkscape:window-x="-9"
     inkscape:window-y="-9"
     inkscape:window-maximized="1"
     showguides="true"
     inkscape:guide-bbox="true"
     width="1150px"
     inkscape:snap-center="true"
     inkscape:snap-bbox="true"
     inkscape:bbox-nodes="true"
     inkscape:bbox-paths="true"
     inkscape:snap-bbox-edge-midpoints="true"
     inkscape:snap-bbox-midpoints="true"
     inkscape:object-paths="true"
     inkscape:snap-intersection-paths="true"
     inkscape:snap-object-midpoints="true"
     fit-margin-top="10"
     fit-margin-left="8"
     fit-margin-right="8"
     fit-margin-bottom="10"
     inkscape:document-rotation="0"
     inkscape:showpageshadow="2"
     inkscape:pagecheckerboard="0"
     inkscape:deskcolor="#d1d1d1"><inkscape:grid
       type="xygrid"
       id="grid1000"
       originx="0"
       originy="0"
       spacingy="1"
       spacingx="1"
       units="px"
       visible="false" /><sodipodi:guide
       position="-40,350"
       orientation="0,-1"
       id="guide26"
       inkscape:locked="false" /><sodipodi:guide
       position="-110,-30"
       orientation="0,-1"
       id="guide27"
       inkscape:locked="false" /></sodipodi:namedview><metadata
     id="metadata7"><rdf:RDF><cc:Work
         rdf:about=""><dc:format>image/svg+xml</dc:format><dc:type
           rdf:resource="http://purl.org/dc/dcmitype/StillImage" /></cc:Work></rdf:RDF></metadata><g
     inkscape:label="Ebene 1"
     inkscape:groupmode="layer"
     id="layer1"
     transform="translate(-415.21227,-900.07375)"
     style="display:inline"><g
       transform="matrix(0.91666939,0.00891669,-0.008729,0.91623053,14.672869,82.666835)"
       id="g3831-9-3-1-6-3"
       style="display:inline;fill:none;stroke:#cfcfcf;stroke-width:1.46722;stroke-linecap:round;stroke-miterlimit:4;stroke-dasharray:none;stroke-opacity:1" /><g
       style="display:inline"
       id="g3465-3-7"
       transform="matrix(1.14,0,0,1.14,-72.619603,-172.57851)"><path
         style="display:inline;opacity:1;vector-effect:none;fill:none;fill-opacity:1;fill-rule:nonzero;stroke:#1f567d;stroke-width:48.2456;stroke-linecap:butt;stroke-linejoin:miter;stroke-miterlimit:4;stroke-dasharray:none;stroke-dashoffset:0;stroke-opacity:1"
         id="path3981-2-1-6-7-5-0-4-4-8-3-3"
         transform="rotate(90.00083)"
         sodipodi:type="arc"
         sodipodi:cx="1076.4397"
         sodipodi:cy="-555.91534"
         sodipodi:rx="100.26201"
         sodipodi:ry="100.26201"
         sodipodi:start="0.52359878"
         sodipodi:end="5.7595865"
         d="m 1163.2691,-505.78434 a 100.26201,100.26201 0 0 1 -112.7791,46.71466 100.26201,100.26201 0 0 1 -74.31231,-96.84566 100.26201,100.26201 0 0 1 74.31231,-96.84567 100.26201,100.26201 0 0 1 112.7791,46.71466"
         sodipodi:open="true"
         sodipodi:arc-type="arc" /></g><g
       id="g28"
       transform="matrix(1.5316928,0,0,1.5316928,-302.62891,-551.5281)"><g
         id="figure_1-9"
         transform="matrix(0.16325691,0,0,0.16325691,475.80438,980.08569)"
         style="display:inline"><path
           d="m 182.44693,370.70046 10.47835,-17.50134 10.64503,-16.4396 10.82443,-15.47637 11.01753,-14.60067 11.22557,-13.80301 11.45009,-13.07511 11.6931,-12.40976 11.95718,-11.80069 12.24582,-11.2425 12.56374,-10.73046 12.91759,-10.26056 13.31703,-9.82941 13.77666,-9.43429 14.31957,-9.07315 14.9852,-8.74477 15.84678,-8.44869 17.05921,-8.18594 19.03203,-7.96115 0.85822,-0.32738 0.86519,-0.32708 0.87246,-0.32679 0.88003,-0.3265 0.88796,-0.32622 0.89623,-0.32594 0.9049,-0.32566 0.91401,-0.3254 0.92356,-0.32514 0.93363,-0.32488 0.94425,-0.32463 0.95546,-0.32439 0.96733,-0.32416 0.97995,-0.32393 0.99336,-0.32371 1.00767,-0.3235 1.02298,-0.3233 1.03943,-0.3231 1.05713,-0.32292 1.07629,-0.32275 1.09708,-0.32258 1.11978,-0.32243 1.14468,-0.32229 1.17215,-0.32217 1.20268,-0.32206 1.23684,-0.32196 1.27544,-0.32189 1.31949,-0.32183 1.37037,-0.3218 1.43,-0.32178 1.50117,-0.32182 1.58797,-0.32186 1.69687,-0.32196 1.83871,-0.32211 2.03328,-0.32232 2.32142,-0.32262 2.80566,-0.32303 3.85441,-0.32365 12.99576,-0.32475"
           clip-path="url(#pe671ddc4af-8)"
           style="display:inline;fill:none;stroke:#000000;stroke-width:11.99714787;stroke-linecap:square;stroke-linejoin:round;stroke-dasharray:none"
           id="path57-9"
           transform="translate(162.65514,147.56998)"
           sodipodi:nodetypes="cccccccccccccccccccccccccccccccccccccccccccccccccccccccccc" /><path
           d="m 276.30052,370.70046 8.799,-17.50134 8.89412,-16.4396 8.9929,-15.47637 9.09554,-14.60067 9.20219,-13.80301 9.31311,-13.07511 9.42856,-12.40976 9.54893,-11.80069 9.67469,-11.2425 9.80652,-10.73046 9.94534,-10.26056 10.09258,-9.82941 10.25042,-9.43429 10.42183,-9.07315 10.61058,-8.74477 10.82669,-8.44869 11.09958,-8.18594 11.50607,-7.96115 0.49208,-0.32738 0.49343,-0.32708 0.49481,-0.32679 0.49626,-0.3265 0.49778,-0.32622 0.49935,-0.32594 0.501,-0.32566 0.50274,-0.3254 0.50454,-0.32514 0.50645,-0.32488 0.50846,-0.32463 0.51058,-0.32439 0.51283,-0.32416 0.5152,-0.32393 0.51774,-0.32371 0.52045,-0.3235 0.52334,-0.3233 0.52645,-0.3231 0.52981,-0.32292 0.53345,-0.32275 0.53741,-0.32258 0.54174,-0.32243 0.54651,-0.32229 0.55179,-0.32217 0.55769,-0.32206 0.56433,-0.32196 0.57189,-0.32189 0.58058,-0.32183 0.5907,-0.3218 0.60269,-0.32178 0.61718,-0.32182 0.63511,-0.32186 0.65799,-0.32196 0.6884,-0.32211 0.73117,-0.32232 0.79653,-0.32262 0.91094,-0.32303 1.17411,-0.32365 3.93296,-0.32475"
           clip-path="url(#pe671ddc4af-8)"
           style="display:inline;fill:none;stroke:#000000;stroke-width:3.99904929;stroke-linecap:square;stroke-linejoin:round;stroke-dasharray:none"
           id="path58-4"
           transform="translate(162.65514,147.56998)"
           sodipodi:nodetypes="cccccccccccccccccccccccccccccccccccccccccccccccccccccccccc" /><path
           d="m 370.15411,370.70046 7.11966,-17.50134 7.1432,-16.4396 7.16138,-15.47637 7.17354,-14.60067 7.17881,-13.80301 7.17613,-13.07511 7.16402,-12.40976 7.14068,-11.80069 7.10356,-11.2425 7.0493,-10.73046 6.97309,-10.26056 6.86812,-9.82941 6.7242,-9.43429 6.52408,-9.07315 6.23596,-8.74477 5.8066,-8.44869 5.13996,-8.18594 3.9801,-7.96115 0.12595,-0.32738 0.12165,-0.32708 0.11717,-0.32679 0.11249,-0.3265 0.1076,-0.32622 0.10248,-0.32594 0.0971,-0.32566 0.0915,-0.3254 0.0855,-0.32514 0.0793,-0.32488 0.0727,-0.32463 0.0657,-0.32439 0.0583,-0.32416 0.0505,-0.32393 0.0421,-0.32371 0.0332,-0.3235 0.0237,-0.3233 0.0135,-0.3231 0.002,-0.32292 -0.009,-0.32275 -0.0223,-0.32258 -0.0363,-0.32243 -0.0517,-0.32229 -0.0686,-0.32217 -0.0873,-0.32206 -0.10817,-0.32196 -0.13167,-0.32189 -0.15833,-0.32183 -0.18897,-0.3218 -0.22462,-0.32178 -0.26681,-0.32182 -0.31775,-0.32186 -0.38089,-0.32196 -0.46191,-0.32211 -0.57093,-0.32232 -0.72838,-0.32262 -0.98376,-0.32303 -1.5062,-0.32365 -5.12984,-0.32475"
           clip-path="url(#pe671ddc4af-8)"
           style="display:inline;fill:none;stroke:#000000;stroke-width:3.99904929;stroke-linecap:square;stroke-linejoin:round;stroke-dasharray:none"
           id="path59-0"
           transform="translate(162.65514,147.56998)"
           sodipodi:nodetypes="cccccccccccccccccccccccccccccccccccccccccccccccccccccccccc" /><path
           d="m 464.00769,370.70046 5.44032,-17.50134 5.39229,-16.4396 5.32986,-15.47637 5.25154,-14.60067 5.15543,-13.80301 5.03914,-13.07511 4.89949,-12.40976 4.73242,-11.80069 4.53244,-11.2425 4.29207,-10.73046 4.00085,-10.26056 3.64366,-9.82941 3.19798,-9.43429 2.62632,-9.07315 1.86135,-8.74477 0.78652,-8.44869 -0.81968,-8.18594 -3.54586,-7.96115 -0.24019,-0.32738 -0.25012,-0.32708 -0.26047,-0.32679 -0.27127,-0.3265 -0.28258,-0.32622 -0.29441,-0.32594 -0.3068,-0.32566 -0.31981,-0.3254 -0.3335,-0.32514 -0.34791,-0.32488 -0.36311,-0.32463 -0.37918,-0.32439 -0.3962,-0.32416 -0.41427,-0.32393 -0.43349,-0.32371 -0.45401,-0.3235 -0.47594,-0.3233 -0.49949,-0.3231 -0.52484,-0.32292 -0.55223,-0.32275 -0.58195,-0.32258 -0.61435,-0.32243 -0.64983,-0.32229 -0.68892,-0.32217 -0.73227,-0.32206 -0.78069,-0.32196 -0.83522,-0.32189 -0.89725,-0.32183 -0.96863,-0.3218 -1.05194,-0.32178 -1.15079,-0.32182 -1.27061,-0.32186 -1.41977,-0.32196 -1.61222,-0.32211 -1.87303,-0.32232 -2.25329,-0.32262 -2.87847,-0.32303 -4.1865,-0.32365 -14.19264,-0.32475"
           clip-path="url(#pe671ddc4af-8)"
           style="display:inline;fill:none;stroke:#000000;stroke-width:11.99714787;stroke-linecap:square;stroke-linejoin:round;stroke-dasharray:none"
           id="path60-6"
           transform="translate(162.65514,147.56998)"
           sodipodi:nodetypes="cccccccccccccccccccccccccccccccccccccccccccccccccccccccccc" /><path
           d="m 206.22003,99.467458 -2.16236,42.345152 -2.58276,198.08308 h 272.31534 l 0.73387,7.46787 1.19107,14.78439 0.93786,8.55249"
           clip-path="url(#pe671ddc4af-8)"
           style="display:inline;fill:none;stroke:#000000;stroke-width:9.99762322;stroke-linecap:butt;stroke-linejoin:round;stroke-dasharray:19.99509764,19.99509764;stroke-dashoffset:0"
           id="path61-6"
           transform="translate(162.65514,147.56998)"
           sodipodi:nodetypes="ccccccc" /><path
           d="m 287.93831,100.44671 -1.88685,34.80446 -0.53667,107.75084 h 224.80877 l 3.05057,7.61744 3.74958,11.85065 3.07534,12.74545 2.49413,13.48952 2.00287,14.10139 1.59488,14.59906 1.2611,14.99974 0.99142,15.31946 0.7758,15.57271 0.60481,7.40301"
           clip-path="url(#pe671ddc4af-8)"
           style="display:inline;fill:none;stroke:#000000;stroke-width:9.99762322;stroke-linecap:butt;stroke-linejoin:round;stroke-dasharray:19.99509764,19.99509764;stroke-dashoffset:0"
           id="path62-0"
           transform="translate(162.65514,147.56998)"
           sodipodi:nodetypes="cccccccccccccc" /><path
           d="m 378.55934,99.467458 4.07622,34.273322 6.43653,40.44019 h 140.99808 l 7.90731,4.17889 8.55437,6.35032 7.61089,7.77249 6.65479,9.08556 5.72066,10.27699 4.83839,11.33841 4.03086,12.26625 3.31259,13.06224 2.68978,13.73314 2.16165,14.28959 1.72216,14.74464 1.3622,15.11237 1.07118,15.40655 0.83837,15.63997 0.65369,15.82397 0.33992,17.43809"
           clip-path="url(#pe671ddc4af-8)"
           style="display:inline;fill:none;stroke:#000000;stroke-width:9.99762322;stroke-linecap:butt;stroke-linejoin:round;stroke-dasharray:19.99509764,19.99509764;stroke-dashoffset:0"
           id="path63-0"
           transform="translate(162.65514,147.56998)"
           sodipodi:nodetypes="cccccccccccccccccccc" /></g><path
         style="display:inline;opacity:0.99;fill:none;stroke:#000000;stroke-width:0.97930864;stroke-linejoin:round;stroke-dasharray:none;marker-end:url(#Triangle_Fnone_S-000000)"
         d="m 530.21227,1072.0738 v -57"
         id="path27"
         sodipodi:nodetypes="cc" /><path
         style="display:inline;opacity:0.99;fill:none;stroke:#000000;stroke-width:0.97930864;stroke-linejoin:round;stroke-dasharray:none;marker-end:url(#Triangle_Fnone_S-000000)"
         d="m 525.21227,1067.0738 h 75"
         id="path28"
         sodipodi:nodetypes="cc" /></g></g></svg>
